<?xml version="1.0" encoding="utf-8"?>
<!-- Generator: Adobe Illustrator 23.0.3, SVG Export Plug-In . SVG Version: 6.00 Build 0)  -->
<svg version="1.1" id="Calque_1" xmlns="http://www.w3.org/2000/svg" xmlns:xlink="http://www.w3.org/1999/xlink" x="0px" y="0px"
	 viewBox="0 0 70.1 32" style="enable-background:new 0 0 70.1 32;" xml:space="preserve">
<style type="text/css">
	.st0{fill:#C62641;}
</style>
<title>Logo Eduscol</title>
<path class="st0" d="M43.6,27c0-0.9,0.2-1.6,0.5-2.4c0.6-1.4,2-2.4,3.5-2.4c0.6-0.1,1.1,0,1.7,0.1c1.7,0.4,3.1,2,3.2,3.8
	c0.1,1,0.1,2.1-0.3,3c-0.5,1.5-2.1,2.6-3.7,2.7c-0.6,0.1-1.1,0-1.7-0.1C45,31.2,44,30,43.6,28.2C43.7,27.7,43.6,27.4,43.6,27z
	 M50.4,26.8c-0.1-0.3-0.1-0.7-0.2-1.1c-0.2-0.9-1-1.6-2-1.6c-0.9-0.1-2,0.5-2.1,1.5c-0.3,1-0.3,2.1,0.1,3.1c0.3,0.7,1,1.2,1.8,1.2
	c0.8,0.1,1.5-0.3,2-0.9C50.3,28.2,50.4,27.6,50.4,26.8z M16.3,30.6c-1.1,1.7-4,1.5-5.3-0.2c-0.5-0.7-0.9-1.5-1-2.5
	c-0.3-1.4,0.1-2.8,0.9-4c1-1.5,2.9-2.1,4.4-1.3c0.4,0.3,0.8,0.5,1.1,0.9v-4.3c-0.1-0.4,0.3-0.8,0.7-0.9c0.1,0,0.1,0,0.1,0
	c0.3,0,0.7,0.3,0.7,0.6v12.2c0,0.3-0.3,0.7-0.7,0.7l0,0c-0.3,0.1-0.7-0.3-0.7-0.6v-0.1L16.3,30.6L16.3,30.6z M11.3,27
	c0,0.7,0.1,1.4,0.3,2c0.3,0.9,1.1,1.5,2,1.5c0.9,0.1,1.8-0.4,2.1-1.3c0.7-1.4,0.7-3,0-4.4c-0.3-0.9-1-1.4-2-1.3
	c-0.9,0-1.6,0.4-2.1,1.2C11.6,25.4,11.4,26.2,11.3,27z M31.9,22.2c0.7-0.1,1.4,0.1,1.9,0.4c0.4,0.2,0.7,0.6,0.6,1.1
	c0,0.5-0.4,0.9-0.9,0.9l0,0c-0.3-0.1-0.5-0.1-0.8-0.2l-1-0.2c-0.2,0-0.4,0.1-0.6,0.1c-0.3,0.1-0.3,0.3-0.3,0.6s0.2,0.5,0.4,0.5
	l1.5,0.5c0.3,0.1,0.7,0.3,1.1,0.4c0.9,0.5,1.4,1.5,1.3,2.5c-0.1,1.7-1.1,2.6-2.9,2.8c-0.9,0.1-1.8,0-2.6-0.3
	c-0.3-0.1-0.5-0.3-0.7-0.5c-0.3-0.3-0.4-0.9-0.1-1.3c0.3-0.3,0.7-0.5,1.1-0.3c0.5,0.1,0.9,0.3,1.4,0.4c0.3,0.1,0.7,0.1,1.1,0
	c0.4-0.1,0.6-0.3,0.6-0.7c0.1-0.3-0.1-0.7-0.5-0.8c-0.4-0.2-0.9-0.3-1.4-0.5c-0.3-0.1-0.6-0.2-0.9-0.3c-1.2-0.5-1.6-1.5-1.5-2.7
	c0.3-1.4,1.5-2.4,2.9-2.4C31.5,22.2,31.7,22.2,31.9,22.2z M40.2,31.8c-2.3,0.1-4.2-1.6-4.5-3.9c-0.2-1.1-0.1-2.2,0.4-3.3
	c0.7-1.5,2.1-2.4,3.6-2.4c0.7-0.1,1.4,0,2,0.2c0.3,0.1,0.5,0.3,0.8,0.4c0.4,0.3,0.5,0.8,0.3,1.2c-0.2,0.5-0.7,0.7-1.1,0.6
	c-0.3-0.1-0.7-0.3-0.9-0.3c-1.1-0.3-2.4,0.3-2.7,1.4c-0.3,0.9-0.3,1.7,0,2.6c0.3,1.1,1.5,1.7,2.6,1.4c0.3-0.1,0.7-0.2,1-0.3
	c0.4-0.2,0.9-0.1,1.1,0.3c0.3,0.4,0.3,1-0.2,1.4c-0.3,0.3-0.6,0.4-0.9,0.5c-0.2,0.1-0.4,0.1-0.6,0.2C40.8,31.8,40.5,31.8,40.2,31.8z
	 M2.3,27.6c-0.1,1.3,0.7,2.4,2,2.7c1,0.3,2.1,0,3-0.6l0.5-0.3c0.3-0.2,0.5-0.2,0.7,0c0.2,0.2,0.3,0.5,0.1,0.7
	c-0.1,0.2-0.3,0.3-0.5,0.5c-1.3,0.9-3,1.4-4.5,0.9c-0.9-0.3-1.7-0.9-2.1-1.7c-0.9-1.7-0.9-3.8,0.1-5.4c0.7-1.4,2.1-2.1,3.5-2
	c1.5,0,2.7,0.9,3.3,2.1c0.3,0.7,0.5,1.5,0.5,2.3c0,0.6-0.2,0.9-0.9,0.9H2.8C2.7,27.6,2.5,27.6,2.3,27.6z M7.3,26.4
	c0.1-1.7-1.1-2.9-2.6-2.8c-1.4,0.1-2.5,1.2-2.4,2.6c0,0.1,0,0.2,0,0.3C2.3,26.4,7.3,26.4,7.3,26.4z M20,25.8v-2.7
	c-0.1-0.3,0.2-0.7,0.5-0.8s0.8,0.1,0.9,0.4c0,0,0,0,0,0.1c0.1,0.2,0.1,0.3,0.1,0.5v5.1c0.1,1.5,1.1,2.1,2.5,2c1-0.1,1.8-0.9,1.7-2
	c0.1-0.6,0-1.3,0-1.9v-3.3c-0.1-0.3,0.2-0.7,0.5-0.9c0.3-0.1,0.7,0,0.9,0.3c0,0.1,0.1,0.1,0.1,0.2c0.1,0.2,0.1,0.3,0.1,0.5V28
	c0,0.3,0,0.7-0.1,0.9c-0.2,1.3-1.1,2.2-2.3,2.6c-0.9,0.3-2,0.3-2.9-0.2c-1.1-0.4-1.8-1.5-1.9-2.7C20,27.7,19.9,26.8,20,25.8z
	 M55.7,29.7h2.6c0.4,0,0.8,0.3,0.8,0.8c0.1,0.5-0.2,0.9-0.7,1l0,0c-0.2,0.1-0.3,0.1-0.5,0.1h-3c-0.9,0-1.2-0.3-1.2-1.3v-7.1
	c0-0.5,0.4-0.9,0.9-0.9c0.5-0.1,0.9,0.3,1,0.8v0.1c0.1,0.2,0.1,0.3,0,0.5L55.7,29.7L55.7,29.7z M6,18.8c0.3-0.1,0.6,0.2,0.7,0.5
	s0,0.5-0.3,0.7c-0.1,0.1-0.1,0.1-0.3,0.1L4,21.1c-0.3,0.1-0.5,0.1-0.7,0C3,21,2.9,20.5,3,20.3c0.1-0.1,0.2-0.3,0.3-0.3
	C4.2,19.6,5.1,19.3,6,18.8C5.8,18.8,5.9,18.8,6,18.8z"/>
</svg>
