<?xml version="1.0" encoding="utf-8"?>
<!-- Generator: Adobe Illustrator 23.0.3, SVG Export Plug-In . SVG Version: 6.00 Build 0)  -->
<svg version="1.1"
	 id="Calque_1" xmlns:cc="http://creativecommons.org/ns#" xmlns:dc="http://purl.org/dc/elements/1.1/" xmlns:inkscape="http://www.inkscape.org/namespaces/inkscape" xmlns:rdf="http://www.w3.org/1999/02/22-rdf-syntax-ns#" xmlns:sodipodi="http://sodipodi.sourceforge.net/DTD/sodipodi-0.dtd" xmlns:svg="http://www.w3.org/2000/svg"
	 xmlns="http://www.w3.org/2000/svg" xmlns:xlink="http://www.w3.org/1999/xlink" x="0px" y="0px" viewBox="0 0 211 135.1"
	 style="enable-background:new 0 0 211 135.1;" xml:space="preserve">
<style type="text/css">
	.st0{fill:#B1B3B4;}
	.st1{fill:#CED0D0;}
	.st2{fill:#B2B4B5;}
	.st3{fill:#5B5B5D;}
	.st4{fill:#AFB1B2;}
	.st5{fill:#828284;}
	.st6{fill:#9A9B9D;}
	.st7{fill:#A8AAAB;}
	.st8{fill:#AEB0B1;}
	.st9{fill:#BEBEC0;}
	.st10{fill:#ABACAE;}
	.st11{fill:#5B5C5E;}
	.st12{fill:#AFB2B3;}
	.st13{fill:#EAEAEB;}
	.st14{fill:#FBFCFC;}
	.st15{fill:#FFFFFF;}
	.st16{fill:#FBFCFE;}
	.st17{fill:#5E5F61;}
	.st18{fill:#5E5E60;}
	.st19{fill:#ADAFB0;}
	.st20{fill:#AAABAD;}
	.st21{enable-background:new    ;}
	.st22{fill:#C62641;}
</style>
<sodipodi:namedview  bordercolor="#666666" borderopacity="1" fit-margin-bottom="0" fit-margin-left="0" fit-margin-right="0" fit-margin-top="0" gridtolerance="10" guidetolerance="10" id="namedview11" inkscape:current-layer="Calque_1" inkscape:cx="-23.040766" inkscape:cy="46.536729" inkscape:pageopacity="0" inkscape:pageshadow="2" inkscape:window-height="1016" inkscape:window-maximized="1" inkscape:window-width="1869" inkscape:window-x="51" inkscape:window-y="27" inkscape:zoom="2.2718011" objecttolerance="10" pagecolor="#ffffff" showgrid="false">
	</sodipodi:namedview>
<title  id="title6">Logo Eduscol</title>
<path id="path10" inkscape:connector-curvature="0" class="st0" d="M164.6,79.9l-2,1v2.6c0,1-0.4,1.2-1.2,1.2
	c-0.7,0-1.5,0.1-2.2,0.4v0.6h-25.3v-3.6c-0.6-0.4-0.4-1-0.4-1.2V46.6c0.4-0.9,0.7-1.7,1.2-2.6c0.6-1,1-2.2,1.6-3.2
	c0.9-1.5,2.2-2.5,3.8-2.8c2.2-0.7,4.5-0.1,6.1,1.6c0.2,0.2,0.4,0.6,0.4,1v2.8c-0.2,0.6-0.4,1.2-0.4,2c-0.5,0-0.9,0.2-1,0.7
	c0,0.1,0,0.1,0,0.2c0,0.1-0.1,0.4-0.4,0.4l0,0c-0.6,0.6-0.4,1.2,0,2.2c0.4,0.4,0.4,0.6,0.6,1c0.6,0.6,0.7,1.5,0.4,2.2
	c0,0.5,0.1,0.9,0.4,1.2c1,0.9,1.8,2,2.6,3.2c0.7,0.4,1.5,0.4,2.2,0c0.6-0.6,1.6-1,2.2-1.6c0.6-0.6,1-0.6,1.6-0.4
	c1-0.6,1.6-1.2,2.6-2c0.4-0.4,0.6-0.4,1.2-0.4s1,0.4,1.6,0.4c-0.4,0.4-0.4,0.4-0.4,0.6c-0.4,1-1,1.6-1,2.6c-0.1,0.7-0.2,1.6-0.6,2.2
	h1.6c0.6,0,1,0,1,0.6l1,1c0.2,0.2,0.4,0.6,0.1,0.9l-0.1,0.1c-0.4,1.8-0.6,3.8-0.6,5.8c0,0.4,0,0.6,0.6,1c0.4,0.4,0.7,0.6,1.2,0.6
	c1,0.4,1.7,1,2.2,2V76l-0.4,0.4v2c0,0.1,0.1,0.4,0.4,0.4l0,0C164.6,78.9,164.6,79.3,164.6,79.9L164.6,79.9z"/>
<path id="path14" inkscape:connector-curvature="0" class="st1" d="M164.6,78.6l-0.4-0.4v-2c0-0.1,0.1-0.4,0.4-0.4l0,0V78.6z"/>
<path id="path16" inkscape:connector-curvature="0" class="st2" d="M55.9,85.3c-0.9-0.6-1.6-1.5-2.2-2.2c-0.6-0.5-1-1.1-1-2
	c-1-0.4-1.6,0.4-2.2,0.6c-0.7,0.6-1.6,0.9-2.6,0.6c0-0.9,0.5-1.6,1.2-2c1.3-0.5,2.5-1.7,2.6-3.2c0-0.4-0.1-0.7-0.4-1
	c1.1-0.7,1.8-1.8,2-3.2c0.2-1,0.4-2,0.4-2.8c0.2-2.8,0.7-5.6,1.6-8.3c0.4-0.6,0-1.6,0-2.2c0-0.6,0-1,0.4-1.2c1.1-1.1,2.6-1.7,4.2-2
	h1.8c0.6,0,1.2,0.4,2,0.4c0.7,0.2,1.5,0.4,2.2,0.4H67c0-0.4,0-0.4-0.4-0.6c-0.6-1-1-2-1.6-2.8c-0.6-1-0.6-1-1.2-1
	c-0.6,0-1.2-0.4-1.6-1h-0.4c-1.2,0-1.2-1-2-1.6c0-0.2,0.1-0.5,0.4-0.6h0.6c0.4,0.4,0.6,0.4,1,0.6c0.4-0.6-0.6-1,0-1.2
	c1.7,0.9,3.2,1.8,4.5,3.2c0.9,0.9,1.8,1.7,2.8,2.2c0-0.4,0.4-0.6,0.4-1.2c0-0.6-0.4-0.4-0.4-0.6c0.6-1,1.6-1.6,2.2-2.6
	c0.6-0.5,1.2-1,2-1.2c0.4,0,0.6-0.4,1.2-0.4c0-0.5-0.1-0.9-0.4-1.2h-0.6c-0.6,0.4-1,0-1.6-0.4s-0.6-1-1-1.2c-0.4,0-0.7,0.1-1,0.4
	c0-1.6-0.4-3.1-1-4.5c0-0.5,0.1-0.9,0.4-1.2c0.7-0.7,1.5-1.3,2.2-2c1.6-1.1,3.4-1,4.7,0.1c0.2,0.2,0.6,0.4,1,0.4
	c1.2,0.4,1.6,1,1.6,2v2c0,1.1,0.4,2.1,1,2.8c0.4,0.6,1,1,1,1.6l0.4,0.4v34.2c-0.2,0.2-0.4,0.6-0.4,1v2.8L55.9,85.3z"/>
<path id="path18" inkscape:connector-curvature="0" class="st3" d="M55.9,85.3h25v-2.8c0-0.4-0.4-0.6,0.4-1V38.3
	c0-0.4-0.1-0.7-0.4-1l-1-1c-0.4-0.4-0.6-1-0.4-1.2c-0.4,0-0.6-0.4-0.6-1s0-0.6,0.4-0.6s0.6-0.4,1.6,0c0.2-0.6,0.1-1.3-0.4-2
	c-0.6-0.9-1.2-1.8-1.6-2.8c-0.6-0.9-1-1.8-1.2-2.8c-0.4-1.3,0.2-2.7,1.6-3.1c0.4-0.1,0.6-0.1,1-0.1h0.6v-0.4c-1-0.9-1.8-1.8-2.6-2.8
	c-0.6-0.4-0.6-0.6-0.4-1.2c0.6-1.7,1.6-3.2,2.8-4.5c2.5-2.7,5.4-5,8.6-6.7c3.9-2,8.1-3.2,12.5-3.8c2.7-0.4,5.4-0.5,8.1-0.5
	c6.7,0.5,13.2,2.7,18.9,6.4c2.6,1.5,4.8,3.6,6.4,6.1c0.6,1,1,2.2,1.6,3.2c-1.2,1.2-2.2,2.6-3.6,3.8h1c1.3-0.1,2.5,0.9,2.6,2.2
	c0,0.1,0,0.2,0,0.4c-0.1,1.3-0.5,2.7-1.2,3.8c-0.4,1-0.7,2-1.2,2.8c-0.4,0.6-0.4,1-0.6,1.6c0.6-0.4,1.2-0.6,2,0.4c0.6,1,0,1.2-0.6,2
	c0.4,0.6,0.4,1-0.4,1.6c-1.2,0.6-1.2,2-1.2,3.2v40.6c0,0.6-0.4,1,0.4,1.2v3.6h26.2c1,0,1.6,0.4,1.6,1.6H52.5c0-0.9,0.6-1.6,1.3-1.6
	c0.1,0,0.1,0,0.2,0C54.5,85.4,55.2,85.3,55.9,85.3L55.9,85.3z M127.2,23.6h-40v4.2c-0.4,0-0.4,0.4-0.6,0.4V81c0,0.6,0,1.2,0.6,1.2
	v3.6c2,0.4,39,0,40,0v-3.3c1-0.4,0.6-1,0.6-1.6V28.4c-0.4,0-0.4-0.4-0.6-0.4V23.6z M79.5,18.4c0.6,0.6,1.2,1.6,2,2.2
	c0.2,0.9,1.1,1.3,2,1.2h48.7l1-1c0.6-0.6,1.2-1.6,2-2.2c0.6-0.6,0.4-0.6,0-1.2s-0.4-0.4-0.4-0.6c-1.2-2.2-3.1-4-5.1-5.4
	c-2.7-2-5.8-3.6-8.9-4.5l-6.4-2c-2.1-0.4-4.3-0.6-6.4-0.6c-1.8,0-3.7,0-5.4,0.4c-1.2,0.4-2.6,0.4-3.8,0.6c-2.2,0.6-4.3,1.3-6.4,2.2
	c-3.8,1.5-7.2,3.7-9.9,6.7C80.9,15.4,79.9,16.9,79.5,18.4L79.5,18.4z M83.1,39.3v42.5h1.8V39.3H83.1z M131.4,81.8V39.3h-2v42.5
	H131.4z M83.1,27.8L83.1,27.8v9.3c0,0.4,0.4,0.4,0.6,0.4h0.6c1,0,1,0,1-1v-8.9C84.5,27.6,83.8,27.8,83.1,27.8L83.1,27.8z
	 M131.4,37.7v-9.9h-2v8.3C129.4,37.9,129.4,37.9,131.4,37.7z M128.4,26.4h3.2c0.4,0,0.6-0.2,0.6-0.6v-2h-3.8V26.4z M82.1,26.4h3.2
	c0.6,0,0.6-0.4,0.6-0.6v-2h-3.8C82.1,23.8,82.1,26.4,82.1,26.4z M82.1,85.6h2c1.6,0,2-0.4,1.6-2c0-0.4-0.2-0.6-0.6-0.6h-3.2
	C82,83.9,82.1,84.8,82.1,85.6L82.1,85.6z M128.8,85.6h3.2c0.4,0,0.6-0.2,0.6-0.6v-1.6c0-0.4-0.2-0.6-0.6-0.6h-3.2V85
	C128.4,85.3,128.4,85.6,128.8,85.6L128.8,85.6z"/>
<path id="path20" inkscape:connector-curvature="0" class="st4" d="M127.2,23.6v4.2c0.4,0,0.4,0.4,0.6,0.4v52.5
	c0,0.6,0.4,1.2-0.6,1.6v3.2c-1,0.4-38.1,0.4-40,0v-3.6c-1-0.4-0.6-0.6-0.6-1.2V27.8c0.4,0,0.4-0.4,0.6-0.4v-4.2
	C100.6,23.6,113.7,23.6,127.2,23.6L127.2,23.6z M123.7,27H91c-0.4,2.6,0,53.7,0,54.4h32.6L123.7,27L123.7,27z"/>
<path id="path22" inkscape:connector-curvature="0" class="st5" d="M79.5,18.4c0.6-1.6,1.5-3.1,2.6-4.5c2.8-2.8,6.3-5.1,9.9-6.7
	c2.1-1,4.2-1.7,6.4-2.2c1.2-0.4,2.6-0.6,3.8-0.6c1.8-0.3,3.7-0.4,5.4-0.4c2.2,0,4.3,0.2,6.4,0.6c2.2,0.2,4.4,1,6.4,2
	c3.2,1.2,6.1,2.7,8.9,4.5c2,1.5,3.8,3.3,5.1,5.4c0,0.4,0.4,0.4,0.4,0.6c0,0.4,0.4,0.6,0,1.2s-1.2,1.6-2,2.2l-1,1H83.3
	c-0.7,0.1-1.6-0.2-2-1C80.7,20,80.1,19.3,79.5,18.4L79.5,18.4z M86.5,18.1h41.9c-0.2-0.2-0.6-0.6-0.6-0.9c-1.3-2-3.1-3.6-5.1-4.8
	c-2.5-1.6-5.1-2.9-8-3.8c-2.2-0.7-4.7-1.1-7-1c-1.3,0-2.8,0-4.2,0.4c-2.5,0.6-5,1.3-7.4,2.2c-3.1,1.2-5.9,3.2-8,5.8
	C87.2,16.2,86.9,17.2,86.5,18.1L86.5,18.1z"/>
<path id="path24" inkscape:connector-curvature="0" class="st6" d="M83.1,39.3h1.8v42.5h-2V39.3H83.1z M131.4,81.8h-2V39.3h2V81.8z"
	/>
<path id="path26" inkscape:connector-curvature="0" class="st7" d="M83.1,27.8h1.8v8.9c0,1,0,1-1,1h-0.6c-0.4,0-0.4-0.4-0.6-0.4V37
	C82.9,33.9,83.1,30.8,83.1,27.8L83.1,27.8z"/>
<path id="path28" inkscape:connector-curvature="0" class="st8" d="M131.4,37.7c-2,0.4-2,0.4-2-1.6v-8.3h2V37.7z"/>
<path id="path30" inkscape:connector-curvature="0" class="st9" d="M128.4,26.4v-2.6c0.6-0.4,1.2,0,2,0h2v2c0,0.4-0.2,0.6-0.6,0.6
	H128.4z M82.1,26.4v-2.6h3.8v2c0,0.6-0.4,0.6-0.6,0.6H82.1z"/>
<path id="path32" inkscape:connector-curvature="0" class="st10" d="M82.1,85.6V83h3.2c0.4,0,0.6,0.2,0.6,0.6c0.4,1.6,0,2-1.6,2
	H82.1z M128.8,85.6V83h3.2c0.4,0,0.6,0.2,0.6,0.6v1.6c0,0.4-0.2,0.6-0.6,0.6C130.9,85.8,129.9,85.6,128.8,85.6L128.8,85.6z"/>
<path id="path34" inkscape:connector-curvature="0" class="st11" d="M123.7,27v54.4H91c-0.4-0.6-0.4-51.9,0-54.4H123.7z M112.1,76.3
	V32.5c2.6-1.2,5.1-2.6,8-3.8H94.6l7.7,3.8v43.8c-2.6,1.2-5.1,2.2-7.7,3.6h25.3C117.2,78.9,114.7,77.7,112.1,76.3z M92.6,45.9v17.7
	H93c2.6-1,5.4-1.6,8.3-2.6V48.2C98.4,47.6,95.5,46.9,92.6,45.9L92.6,45.9z M113.5,61.4c2.8,1,5.4,1.6,8.3,2.6c0.4-2.8,0-16.9,0-17.9
	c-2.8,1-5.4,1.6-8.3,2.6V61.4z M92.3,29.4v15.1c2.8,1,5.8,1.6,8.6,2.6V33.2C97.9,32.2,95.1,30.8,92.3,29.4z M122.1,29.6
	c-1.6,0.6-2.8,1.2-4.2,2c-1.2,0.6-2.8,1.2-4.2,2c-0.4,3.8,0,12.8,0,13.7c2.8-1,5.4-1.6,8.3-2.6L122.1,29.6L122.1,29.6z M92.3,65.2
	v13.7c2.9-1,5.9-2.1,8.6-3.6V62.6C98,63.6,95.2,64.2,92.3,65.2z M113.5,62.6v12.8c2.8,1.2,5.4,2.6,8.3,3.6V65.2
	C119.2,64.5,116.3,63.6,113.5,62.6z"/>
<path id="path36" inkscape:connector-curvature="0" class="st12" d="M86.5,18.1c0.4-1,0.9-1.8,1.6-2.6c2.2-2.5,5-4.4,8-5.8
	c2.5-1,4.9-1.7,7.4-2.2c1.3-0.2,2.8-0.4,4.2-0.4c2.3,0,4.8,0.2,7,1c2.9,0.7,5.6,2.1,8,3.8c2,1.5,3.7,3.2,5.1,5.1
	c0.4,0.4,0.4,0.6,0.6,1H86.5V18.1z M107.3,16.9h1c2.3-0.7,3.6-3.3,2.8-5.5c0-0.1-0.1-0.4-0.2-0.5c-0.6-1-2.6-1.2-3.2-0.4
	c-0.5,0.7-0.7,1.7-0.6,2.6c0.4,1.2,1.2,1.6,2.6,1.2c0.2,0,0.5-0.1,0.6-0.4C109.6,15.1,108.6,16.1,107.3,16.9L107.3,16.9z
	 M111.9,14.9c1,0,2,0.4,2.6,0.4v2c1,0,1,0,1-0.6v-1c0.6-0.4,1-1,0.6-1.2h-1v-3.9h-0.4C113.6,11.8,112.6,13.4,111.9,14.9L111.9,14.9z
	 M102.2,12.1c0.4-0.4,0.4-1,0.6-1c0.4,0,1.6-0.6,2.2,0c0,0.4-0.1,0.7-0.4,1l-1,2c-0.4,0.7-0.7,1.5-1,2.2c-0.4,1,0,1.2,1,1
	c0-0.6,0-1.3,0.4-2c0.4-1,0.6-2,1-3.2c0.5-0.6,0.6-1.5,0.4-2.2c-0.9,0-2.2,0.2-3.2,0.2C102.2,10.7,102,11.1,102.2,12.1L102.2,12.1z
	 M101,16.5c-0.4-0.4-0.6-0.4-1-0.6v-5.8l-2,1v0.4h0.6v4.8c-0.1,0-0.4,0.1-0.4,0.4l0,0L97.9,17C99,16.6,100,16.5,101,16.5L101,16.5z"
	/>
<path id="path38" inkscape:connector-curvature="0" class="st13" d="M112.1,76.3c2.6,1.2,5.1,2.2,8,3.6H94.8
	c2.6-1.2,5.1-2.2,7.7-3.6V32.5l-7.7-3.8h25.6c-2.8,1.2-5.4,2.6-8,3.8C112.1,47.3,112.1,61.6,112.1,76.3L112.1,76.3z"/>
<path id="path40" inkscape:connector-curvature="0" class="st14" d="M92.6,45.9c2.8,1,5.8,1.6,8.3,2.6v12.8c-2.8,1-5.4,1.6-8.3,2.6
	V46.3C92.3,46.3,92.3,46.3,92.6,45.9L92.6,45.9z"/>
<path id="path42" inkscape:connector-curvature="0" class="st15" d="M113.5,61.4V48.5c2.8-1,5.4-1.6,8.3-2.6c0.4,6,0.4,11.9,0,17.9
	C119.2,62.9,116.3,62.2,113.5,61.4z"/>
<path id="path44" inkscape:connector-curvature="0" class="st16" d="M92.3,29.4l8.6,3.8v13.7c-2.8-1-5.8-1.8-8.6-2.6V29.4z"/>
<path id="path46" inkscape:connector-curvature="0" class="st15" d="M122.1,29.6v15.1c-2.8,1-5.4,1.6-8.3,2.6
	c-0.4-4.5-0.4-9.2,0-13.7l3.8-2C119.2,31,120.5,30.3,122.1,29.6z"/>
<path id="path48" inkscape:connector-curvature="0" class="st14" d="M92.3,65.2c2.8-1,5.8-1.6,8.6-2.6v12.8
	c-2.7,1.5-5.6,2.7-8.6,3.6V65.2z"/>
<path id="path50" inkscape:connector-curvature="0" class="st15" d="M113.5,62.6c2.8,1,5.8,1.6,8.3,2.6v13.7
	c-2.8-1.2-5.8-2.6-8.3-3.6V62.6z"/>
<path id="path52" inkscape:connector-curvature="0" class="st17" d="M107.3,16.9c1-0.6,2.2-1.2,2.6-2.8c-0.4,0-0.4,0-0.6,0.4
	c-1,0.4-2.1-0.1-2.5-1.1c0-0.1,0-0.1-0.1-0.2c-0.2-0.9,0-1.8,0.6-2.6c0.6-1,2.6-0.6,3.2,0.4c1.1,2.2,0.1,4.8-2,5.9
	c-0.1,0.1-0.4,0.1-0.5,0.2C108,16.5,107.7,16.5,107.3,16.9L107.3,16.9z M108.6,10.1c-0.4,0.4-1,0.6-0.6,1.2c0,0.6,0,1.3,0.4,2
	c0.6,0.6,1.2,0.6,1.6,0c0.6-1,0.4-2.3-0.7-2.9C109.1,10.2,108.8,10.2,108.6,10.1L108.6,10.1z"/>
<path id="path54" inkscape:connector-curvature="0" class="st11" d="M111.9,14.9c0.9-1.7,2-3.3,3.6-4.5h0.4v3.8h1
	c0.4,0.4,0,1-0.6,1.2v1c0,0.6,0,0.6-1,0.6v-2C114,15,112.9,14.9,111.9,14.9L111.9,14.9z M114.3,11.7c-0.6,1-1.2,1.6-1.6,2.2h1.6
	V11.7z"/>
<path id="path56" inkscape:connector-curvature="0" class="st18" d="M102.2,12.1c-0.4-0.6,0-1.2,0-2c1,0,2.2-0.4,3.2-0.4
	c0.2,0.7,0.1,1.6-0.4,2.2c-0.4,1-0.6,2-1,3.2c0,0.6,0,1.3-0.4,2c-1.2,0.4-1.2,0-1-1c0.4-1,0.4-1.6,1-2.2l1-2c0-0.4,0.4-0.6,0.4-1
	c-0.7-0.1-1.5-0.1-2.2,0C102.6,11.1,102.6,11.7,102.2,12.1L102.2,12.1z"/>
<path id="path58" inkscape:connector-curvature="0" class="st11" d="M101,16.5h-2.6l0.4-0.4c0.1,0,0.4-0.1,0.4-0.4l0,0V11h-0.7v-0.4
	l2-1v5.8C100.4,16.2,100.6,16.2,101,16.5L101,16.5z"/>
<path id="path60" inkscape:connector-curvature="0" class="st19" d="M108.6,10.1c1.2,0.6,2,2,1.2,2.8c-0.6,1-1,1-1.6,0
	c-0.2-0.6-0.4-1.2-0.4-2C108,10.7,108.3,10.5,108.6,10.1L108.6,10.1z"/>
<path id="path62" inkscape:connector-curvature="0" class="st20" d="M114.3,11.7v2.2h-1.6C113.5,13.3,113.7,12.3,114.3,11.7z"/>
<g class="st21">
	<path class="st22" d="M31.6,114.1L31.6,114.1l-5.8-9.2c-0.4-0.6-0.6-0.7-1.2-0.7h-4.6c-0.6,0-0.8,0.1-0.8,0.9v13.4h3
		c0.5,0,0.7-0.1,1.2-0.6l4-4.6h0.1v11.4h-0.1l-4-4.6c-0.4-0.5-0.6-0.6-1.2-0.6h-3v13.5c0,0.8,0.1,0.9,0.8,0.9H25
		c0.8,0,1-0.1,1.3-0.6l5.5-9.5H32v11H7.7v-0.1l3-2.8c0.4-0.4,0.4-0.5,0.4-1.1v-23.4c0-0.6,0-0.7-0.4-1.1l-3-2.8v-0.1h23.9V114.1z"/>
	<path class="st22" d="M55.8,134.7l-15.4-23.8v16.3c0,0.7,0.1,0.8,0.5,1.4l4.6,6v0.1H34.4v-0.1l4.5-6c0.5-0.6,0.6-0.8,0.6-1.4v-16.9
		c0-0.7,0-0.9-0.4-1.4l-4.5-5.5v-0.1h10.5l15.2,23.6v-16.1c0-0.7,0-0.8-0.5-1.4l-4.6-6v-0.1h11.1v0.1l-4.5,6
		c-0.4,0.6-0.6,0.8-0.6,1.4v23.9H55.8z"/>
	<path class="st22" d="M77,135.1c-2.7,0-6.4-0.4-9.2-1.2v-10.7h0.1l5.9,10.2c0.3,0.5,0.4,0.7,1,0.8c0.7,0.1,1.3,0.1,1.9,0.1
		c3.6,0,6.1-1.8,6.1-5.1c0-3-2.1-4.3-6.2-6.3l-1.4-0.7c-4-1.9-8.3-4.5-8.3-10c0-5.7,4.6-9.3,11.6-9.3c2.3,0,5.4,0.3,8.6,1V114H87
		l-6-9.6c-0.3-0.4-0.4-0.5-0.9-0.6c-0.5-0.1-0.9-0.1-1.3-0.1c-3.1,0-5.3,1.8-5.3,4.9c0,2.9,2.2,4.2,5.7,5.8l1.7,0.8
		c4.7,2.3,8.7,4.4,8.7,9.7C89.5,131,84.6,135.1,77,135.1z"/>
	<path class="st22" d="M92.8,123.2h11.6v0.9H92.8V123.2z"/>
	<path class="st22" d="M106.3,134.6l3-2.8c0.4-0.4,0.4-0.5,0.4-1.1v-23.4c0-0.6,0-0.7-0.4-1.1l-3-2.8v-0.1h14.9
		c10.4,0,15.4,5.9,15.4,15c0,10.4-5.9,16.4-16.3,16.4L106.3,134.6L106.3,134.6z M119.7,133.8c5.8,0,7.9-5.2,7.9-14.9
		c0-9.6-2.1-14.7-7.5-14.7h-1.4c-0.6,0-0.8,0.1-0.8,0.8v27.9c0,0.8,0.1,0.9,0.9,0.9H119.7z"/>
	<path class="st22" d="M172.6,131.8l2.9,2.8v0.1h-14.9v-0.1l3-2.8c0.4-0.4,0.4-0.5,0.4-1.1v-17.9c0-0.8,0-1.8,0.1-2.7l-10.1,25H154
		l-10.4-22.9c-0.3-0.6-0.6-1.3-0.8-2v17.1c0,0.7,0.1,0.8,0.6,1.5l4.5,5.9v0.1h-11.1v-0.1l4.5-5.9c0.5-0.7,0.6-0.8,0.6-1.5v-17.7
		c0-0.8,0-0.8-0.4-1.3l-3.7-4.8v-0.1h10.7l9.3,20.4l8.2-20.4h9.6v0.1l-2.9,3.3c-0.4,0.4-0.4,0.5-0.4,1.1v22.9
		C172.2,131.3,172.2,131.4,172.6,131.8z"/>
	<path class="st22" d="M181.7,127.3c-0.2,0.7-0.2,0.8,0.4,1.6l4,5.7v0.1h-10.6v-0.1l4.3-5.7c0.7-0.8,0.8-1,1-1.9l6.2-19
		c0.3-0.8,0.3-1-0.3-1.6l-2.6-3v-0.1h10.5l8.3,26.5c0.2,0.7,0.5,1.2,0.9,1.8l1.9,3v0.1h-13.2v-0.1l2.1-3c0.3-0.4,0.3-0.6,0.1-1.2
		l-2.1-6.7h-9.7L181.7,127.3z M183.1,122.8h9.2l-4.5-14.5L183.1,122.8z"/>
</g>
</svg>
