<?xml version="1.0" encoding="utf-8"?>
<!-- Generator: Adobe Illustrator 23.0.3, SVG Export Plug-In . SVG Version: 6.00 Build 0)  -->
<svg version="1.1" id="Warstwa_1" xmlns="http://www.w3.org/2000/svg" xmlns:xlink="http://www.w3.org/1999/xlink" x="0px" y="0px"
	 viewBox="0 0 210.6 28.5" style="enable-background:new 0 0 210.6 28.5;" xml:space="preserve">
<style type="text/css">
	.st0{fill:#FFFFFF;}
</style>
<path class="st0" d="M12.9,0.5c2.4,0,5,0.2,7.7,0.8V10h-0.1l-4.8-8.1c-0.3-0.6-0.5-0.7-1.2-0.7c-0.4,0-0.8,0-1.1,0
	c-5.2,0-7.1,5.5-7.1,13.4c0,8.4,2.2,13.3,7.3,13.3c0.3,0,0.7,0,1,0c0.7-0.1,0.9-0.2,1.2-0.7l4.8-8.4h0.1v9.1
	c-2.5,0.5-5.2,0.7-7.3,0.7C4,28.5,0,22.8,0,14.6C0,6.2,4.6,0.5,12.9,0.5z"/>
<path class="st0" d="M41.3,25.2c0,0.5,0,0.6,0.4,0.9L44,28v0.1h-7.6v-4.3c-1,2.9-2.9,4.6-5.7,4.6c-3.6,0-5.5-2.6-5.5-7.9
	c0-2.4,0-5.4,0.1-8.5c0-0.5,0-0.6-0.4-0.9l-2.3-1.9V9.1h7.6c0,0.2-0.1,9.2-0.1,10.3c0,4.1,0.8,6.3,3.1,6.3c1.4,0,2.5-1,3.3-2.4V12
	c0-0.5,0-0.6-0.4-0.9l-2.3-1.9V9.1h7.6L41.3,25.2L41.3,25.2z"/>
<path class="st0" d="M52.2,25.5c0,0.4,0,0.5,0.4,0.9l2.3,1.7v0.1H44.7V28l2.3-1.7c0.3-0.3,0.4-0.4,0.4-0.9v-22c0-0.5,0-0.6-0.4-0.9
	L44.7,1V0.9L52.2,0V25.5z"/>
<path class="st0" d="M62.8,23.2c0,1.7,0.8,2.7,2.1,2.7c1.2,0,2.2-0.9,2.7-1.9h0.1c-0.4,2.2-1.9,4.3-5.2,4.3c-2.9,0-4.5-1.6-4.5-4.8
	V9.8h-2.4V9.1h2c0.5,0,0.7-0.1,1-0.5l4.2-5.9h0.1v6.4H68v0.7h-5.1L62.8,23.2L62.8,23.2z"/>
<path class="st0" d="M86.6,25.2c0,0.5,0,0.6,0.4,0.9l2.3,1.9v0.1h-7.6v-4.3c-1,2.9-2.9,4.6-5.7,4.6c-3.6,0-5.5-2.6-5.5-7.9
	c0-2.4,0-5.4,0.1-8.5c0-0.5,0-0.6-0.4-0.9l-2.3-1.9V9.1h7.6c0,0.2-0.1,9.2-0.1,10.3c0,4.1,0.8,6.3,3.1,6.3c1.4,0,2.5-1,3.3-2.4V12
	c0-0.5,0-0.6-0.4-0.9L79,9.2V9.1h7.6V25.2z"/>
<path class="st0" d="M98,25.2c0,0.4,0,0.6,0.5,0.9l4,1.9v0.1H90.4V28l2.3-1.7c0.3-0.3,0.4-0.4,0.4-0.9V12c0-0.5,0-0.6-0.4-0.9
	l-2.3-1.9V9.1H98v5.5c0.6-2.7,2.4-5.8,5.6-5.8c0.9,0,1.7,0.3,2.2,0.8l-2.1,5.9h-0.1l-2.4-4c-0.2-0.2-0.3-0.2-0.5-0.1
	c-1.3,0.6-2,2.1-2.7,3.6V25.2z"/>
<path class="st0" d="M111.5,17.3V18c0,5.1,2.5,7.6,5.6,7.6c2.5,0,4.7-1.2,6-4.2h0.1c-0.9,4.8-3.7,7-8,7c-4.5,0-8.7-2.9-8.7-9.6
	c0-7.3,4.5-9.9,8.9-9.9c3.9,0,7.8,2.1,7.8,7.5c0,0.3,0,0.7-0.1,1h-11.6V17.3z M111.5,16.6h6.9c0-0.3,0-0.6,0-0.7
	c0-4.4-1-6.5-3.2-6.5C113,9.4,111.6,11.9,111.5,16.6z"/>
<path class="st0" d="M152,25.9l3,2.1v0.1h-12.2V28l3-2.1c0.4-0.3,0.5-0.4,0.5-0.9V7.9c0-0.7,0-1.7,0.1-2.5l-9.1,23h-0.1l-9-20.7
	c-0.3-0.7-0.6-1.5-0.9-2.2V23c0,0.6,0.1,0.7,0.6,1.2l3.8,3.8v0.1h-9.4V28l3.8-3.8c0.5-0.5,0.5-0.6,0.5-1.2V5c0-0.7,0-0.7-0.4-1
	l-3.3-3V0.9h8.2l8.4,19.5l7.8-19.5h7.7V1l-3,2.3c-0.4,0.3-0.5,0.4-0.5,0.9v21C151.5,25.5,151.6,25.7,152,25.9z"/>
<path class="st0" d="M166.8,14.4v-0.2c0-2.8-1.1-4.8-3.6-4.8c-0.9,0-0.9,0-1.2,0.5l-2.7,5.5h-0.1l-2.1-5.3c2.4-0.9,4.8-1.4,7.1-1.4
	c2.4,0,4.2,0.4,5.4,1.6c1.1,1.2,1.8,3.1,1.8,6.2v0.7l-0.2,6.2c-0.1,1.6,0.3,2.4,1.3,2.4c0.6,0,1-0.3,1.2-0.9h0.1
	c0,0.4-0.1,0.9-0.3,1.3c-0.5,1.2-1.7,2.1-3.3,2.1c-1.9,0-3.5-1.3-3.6-3.9c-0.8,2.4-2.8,3.9-5.3,3.9c-2.7,0-5.1-1.9-5.1-5.2
	c0-3.8,3.3-5.8,6.4-5.8c1.5,0,3,0.3,4.1,1.2L166.8,14.4z M161.1,22.6c0,2.1,1.2,3.3,2.7,3.3c1.1,0,2.2-0.7,2.9-1.8l0.1-5.3
	c-0.6-0.2-1.3-0.3-1.9-0.3C162.4,18.5,161.1,20.4,161.1,22.6z"/>
<path class="st0" d="M181.5,23.2c0,1.7,0.8,2.7,2.1,2.7c1.2,0,2.2-0.9,2.7-1.9h0.1c-0.4,2.2-1.9,4.3-5.2,4.3c-2.9,0-4.5-1.6-4.5-4.8
	V9.8h-2.4V9.1h2c0.5,0,0.7-0.1,1-0.5l4.2-5.9h0.1v6.4h5.1v0.7h-5.1v13.4H181.5z"/>
<path class="st0" d="M206.3,26.4l2.3,1.7v0.1h-10.3V28l2.2-1.7c0.3-0.3,0.4-0.5,0.4-0.8c0-0.4,0.1-6,0.1-7.7c0-4.2-0.8-6.3-3.2-6.3
	c-1.5,0-2.7,1-3.5,2.4v11.7c0,0.4,0,0.5,0.4,0.9L197,28v0.1h-10.3V28l2.3-1.7c0.3-0.3,0.4-0.4,0.4-0.9v-22c0-0.5,0-0.6-0.4-0.9
	L186.8,1V0.9l7.5-0.9v13.5c0.9-3.1,2.9-4.7,5.9-4.7c3.6,0,5.7,2.6,5.7,7.9c0,2.1,0,5.7-0.1,8.8C205.8,26,205.9,26.1,206.3,26.4z"/>
</svg>
