<svg viewBox="0 0 14 14" xmlns="http://www.w3.org/2000/svg">
  <g fill="#F8F2F4" fill-rule="evenodd">
    <path d="M4.90371304 4.72908818h2.7551534v1.2631149h.03860228c.3834672-.7268526 1.32054755-1.49284552 2.71816518-1.49284552 2.909159 0 3.4460938 1.914377 3.4460938 4.40281153v5.0700794h-2.8708258V9.47716815c0-1.07171755-.0196374-2.45050477-1.49271098-2.45050477-1.49472855 0-1.72419017 1.16748347-1.72419017 2.3730312v4.57255392h-2.8702877V4.72908818z"/>
    <path d="M1.6659236.13451615c.91838446 0 1.66487447.7463555 1.66487447 1.66500898 0 .919595-.74649 1.666085-1.66487447 1.666085-.92080552 0-1.6659505-.74649-1.6659505-1.666085 0-.91865347.74514498-1.66500897 1.6659505-1.66500897zM.2287622 13.9722889h2.87284326V4.72912853H.2287622v9.24316037z"/>
  </g>
</svg>
