<svg viewBox="0 0 196 67" xmlns="http://www.w3.org/2000/svg"><g stroke="none" stroke-width="1" fill="none" fill-rule="evenodd"><g transform="translate(-623.000000, -29.000000)" fill="#FACC00"><g transform="translate(0.000000, 7.000000)"><path d="M623.57,22.65 L637.97,22.65 L637.97,56.49 L651.47,40.92 L668.66,40.92 L652.37,58.2 L670.55,87 L653.45,87 L642.56,68.64 L637.97,73.41 L637.97,87 L623.57,87 L623.57,22.65 Z M696.56,88.44 C681.17,88.44 671.9,78.27 671.9,63.96 C671.9,49.65 681.17,39.48 696.56,39.48 C711.86,39.48 721.13,49.65 721.13,63.96 C721.13,78.27 711.86,88.44 696.56,88.44 Z M696.56,77.64 C702.86,77.64 706.73,72.87 706.73,63.96 C706.73,55.05 702.86,50.28 696.56,50.28 C690.17,50.28 686.3,55.05 686.3,63.96 C686.3,72.87 690.17,77.64 696.56,77.64 Z M751.91,40.11 C753.17,40.11 754.25,40.11 755.87,40.47 L755.87,53.07 L755.69,53.07 C748.31,51.72 740.48,55.77 740.48,65.58 L740.48,87 L726.08,87 L726.08,40.92 L740.48,40.92 L740.48,48.48 L740.66,48.48 C742.91,43.35 746.87,40.11 751.91,40.11 Z M767.75,35.43 C763.7,35.43 760.55,33.27 760.55,29.04 C760.55,24.9 763.7,22.65 767.75,22.65 C771.8,22.65 774.95,24.9 774.95,29.04 C774.95,33.27 771.8,35.43 767.75,35.43 Z M760.55,40.92 L774.95,40.92 L774.95,87 L760.55,87 L760.55,40.92 Z M789.17,35.43 C785.12,35.43 781.97,33.27 781.97,29.04 C781.97,24.9 785.12,22.65 789.17,22.65 C793.22,22.65 796.37,24.9 796.37,29.04 C796.37,33.27 793.22,35.43 789.17,35.43 Z M781.97,40.92 L796.37,40.92 L796.37,87 L781.97,87 L781.97,40.92 Z M810.41,87.81 C806.09,87.81 802.76,84.84 802.76,80.16 C802.76,75.57 806.09,72.51 810.41,72.51 C814.64,72.51 818.06,75.57 818.06,80.16 C818.06,84.84 814.64,87.81 810.41,87.81 Z"></path></g></g></g></svg>