<svg width="169" height="62" viewbox="0 0 169 62"  xmlns="http://www.w3.org/2000/svg">
  <path d="M39.992 16.5569279l7.062-6.461C42.223 2.82592785 26.333-3.24307215 13.837 1.93392785 1.339 7.11192785-.847 21.3929279 7.153 28.5239279c8.001 7.131 24.968 5.562 29.288 11.307 4.389 5.834-1.762 11.965-8.838 12.414-6.982.441-15.017-.613-19.836-9.068l-7.767 7.363c6.918 9.148 20.755 12.266 33.263 9.652 12.507-2.611 18.07-14.504 13.578-25-2.098-4.901-7.82-7.604-14.616-9.11-7.739-1.713-14.628-2.312-18.089-6.008-3.451-3.688-.344-9.214 5.101-11.08900005 5.446-1.873 14.996-.702 20.755 7.57200005zM50.999 5.00092785h10V60.0009279h-10V5.00092785zm68.959 19.49700005h9.041v-6.741h-9.041V4.61492785l-9.506 9.55000005v3.592h-6.303v6.741h6.303v26.132c0 7.209 4.479 10.365 12.131 10.365h3.305v-9.041c-4.062-.062-5.93-1.09-5.93-3.723v-23.733zm29.227-8.258c-14.427 0-20.754 11.581-20.754 22.093 0 9.674 6.494 22.662 21.523 22.662 15.031 0 18.312-12.57 18.312-14.68l-9.309-.006c0 2.215-2.646 6.35-8.316 6.35-5.675 0-12.035-3.947-12.035-12.658h30.137c.594-12.746-5.732-23.761-19.558-23.761zm-10.176 16.335c1.172-4.352 4.52-8.102 10.311-8.102s9.039 3.782 9.373 8.102h-19.684zm-37.201 16.045v-19.626c0-8.47-5.711-12.753-17.363-12.753-11.649 0-18.087 4.285-18.5 13.39h9.216c.357-3.795 3.057-5.803 8.48-5.803s8.705 1.808 8.241 7.542c-9.011 3.582-20.07 2.326-24.711 7.9-4.998 6.002-3.303 14.885 1.697 18.811 4.998 3.928 16.413 5.006 23.242-2.293l.619 3.967 10.695-.031c-1.088-3.516-1.616-5.257-1.616-11.104zm-9.909-4.596c0 4.719-4.493 8.475-9.581 8.562-2.807.049-6.939-.477-7.604-4.219-.663-3.744 2.316-5.551 4.015-6.146 3.841-1.348 5.993-1.055 13.169-3.268l.001 5.071z" fill="#6e0031" fill-rule="nonzero"/>
</svg>