<svg viewBox="0 0 14 13" xmlns="http://www.w3.org/2000/svg">
  <path d="M9.75090522.395349c-1.58622167 0-2.8724487 1.3412573-2.8724487 2.99397332 0 .23588418.02549954.46413457.07424867.6832244C4.5662478 3.94658917 2.4490356 2.75571757 1.0323109.94421867c-.24674558.44199657-.38849305.9557508-.38849305 1.50538384 0 1.03819574.50699095 1.95577757 1.27797718 2.4916698-.4709916-.0152676-.91423367-.14962234-1.30122676-.37405583v.03740558c0 1.4511839.98998232 2.66190336 2.30395885 2.93671988-.2407457.06794075-.49499116.10534633-.75673648.10534633-.1852467 0-.36524348-.01984786-.54074035-.0549633.36599346 1.1901082 1.42647452 2.05654363 2.68345207 2.0802084-.98323244.80307494-2.22146033 1.28171374-3.5669363 1.28171374-.23249585 0-.46049178-.0145042-.68548776-.0419859 1.27047732.8504045 2.78095035 1.3458376 4.40317138 1.3458376 5.28290567 0 8.17260402-4.56348103 8.17260402-8.52007555 0-.13053785-.0029999-.25878556-.0089998-.38779665.56099-.4221487 1.0484813-.94964375 1.4332244-1.54965983-.5144908.23817432-1.0687309.39848396-1.6492205.4702416.5924894-.37023892 1.0484812-.95651416 1.2629774-1.65576953-.5549901.34275727-1.1699791.59238228-1.8239674.72673702C11.3236271.7594809 10.5773905.395349 9.75090522.395349" fill="#F8F2F4" fill-rule="evenodd"/>
</svg>
