<svg width="16" height="16" viewbox="0 0 16 16" xmlns="http://www.w3.org/2000/svg">
  <path d="M11.4224434 9.4334678c-.1949067-.09754684-1.1531697-.56901078-1.3318435-.63412928-.17863642-.06504369-.30857419-.09750944-.43851197.09754684-.12993778.19509369-.50348085.63416668-.61718575.76425408-.11366751.13004998-.22737242.14639506-.42227908.04877342-.19490667-.09754685-.82293927-.30333777-1.56740719-.96742679-.57940879-.51683369-.97060604-1.15507729-1.08427354-1.35020837-.11370491-.19513109-.01215595-.30060735.08542829-.39778016.08770987-.08737325.19494407-.22767164.29237871-.34148876.09747203-.11377971.12993777-.19513108.19490666-.32514367.06496889-.13012479.03250315-.2439045-.01627027-.34145135-.04869862-.09754684-.43851195-1.0569694-.60091548-1.44726897-.15821439-.38001377-.31889738-.32854734-.43854935-.33456921-.1135553-.00564784-.24364269-.00684474-.37354306-.00684474-.12993778 0-.34111473.04877342-.51978852.24386711-.1786364.19513108-.68215464.66670722-.68215464 1.62601758 0 .95942255.69838751 1.88619236.79585955 2.01627975.09747203.13012479 1.37437066 2.09879062 3.32964623 2.94304952.46499323.2008538.82806347.3207676 1.11112885.410572.46690077.1483774.89179806.1274318 1.22763896.077237.3744781-.0559173 1.1531697-.4714639 1.3156107-.9267324.1624035-.4553806.1624035-.8456054.1136675-.92688196-.0486986-.08131397-.1786364-.1300874-.3735431-.22767164m-3.55634539 4.8558354h-.0026182c-1.16341814-.0004488-2.30450673-.3130251-3.29994831-.9037296l-.23676055-.1405228-2.45385663.6437044.65496271-2.3925158-.15413748-.2453258c-.64901564-1.0322461-.99181349-2.22532475-.99128985-3.45042032.00142131-3.57471024 2.90994796-6.48301247 6.48622912-6.48301247 1.73175566.00059845 3.35960598.67587095 4.58376648 1.90141535 1.2240857 1.2254696 1.8978247 2.85444201 1.8971514 4.58683353-.0014587 3.57500941-2.9099479 6.48357351-6.48349869 6.48357351M13.3840775 2.28767541C11.9113371.81321451 9.95277008.00086027 7.86602321 0 3.56644419 0 .06710086 3.49911891.06538032 7.80000704c-.00056104 1.3748569.3586193 2.71676186 1.04126017 3.89977906L0 15.7419582l4.13519314-1.0847224c1.13936806.6214497 2.42217635.9490246 3.72772563.949436H7.86613542c4.29913018 0 7.79877278-3.4994555 7.80053068-7.80041847.0007855-2.08431568-.8098482-4.04415441-2.2825886-5.51857792" fill="#FFF" fill-rule="evenodd"/>
</svg>
