<svg x="0" y="0" width="196" height="62" viewBox="0 0 196 62" xmlns="http://www.w3.org/2000/svg">
	<path fill="#FFFFFF" d="M173.9,4.7h8.9v1.6h-7V11h6.6v1.7h-6.6V19h-1.9V4.7L173.9,4.7z M185.1,4.7h4.7c1.1,0,1.9,0.1,2.6,0.4
		c0.7,0.2,1.2,0.6,1.6,0.9c0.4,0.4,0.7,0.8,0.8,1.3c0.1,0.5,0.2,1,0.2,1.5c0,0.9-0.2,1.7-0.6,2.3c-0.4,0.6-1,1.1-1.9,1.5l3,6.4h-2.1
		l-2.7-6c-0.2,0-0.4,0-0.6,0.1l-0.5,0H187V19h-1.8L185.1,4.7L185.1,4.7L185.1,4.7z M190,11.5c0.6,0,1.2-0.1,1.6-0.2s0.7-0.3,1-0.5
		c0.2-0.2,0.4-0.5,0.5-0.8s0.1-0.7,0.1-1.1c0-0.4-0.1-0.8-0.2-1.1c-0.1-0.3-0.3-0.6-0.6-0.8c-0.3-0.2-0.6-0.4-1.1-0.5
		c-0.4-0.1-1-0.2-1.7-0.2H187v5.2L190,11.5L190,11.5L190,11.5z M40.4,16.6l7.1-6.5C42.6,2.9,26.7-3.2,14.2,2
		C1.7,7.2-0.4,21.5,7.6,28.6c8,7.1,25,5.6,29.3,11.3c4.4,5.8-1.8,12-8.8,12.4c-7,0.4-15-0.6-19.8-9.1l-7.8,7.4
		c6.9,9.1,20.8,12.3,33.3,9.7c12.5-2.6,18.1-14.5,13.6-25c-2.1-4.9-7.8-7.6-14.6-9.1c-7.7-1.7-14.6-2.3-18.1-6
		c-3.5-3.7-0.3-9.2,5.1-11.1C25.1,7.2,34.6,8.4,40.4,16.6z M51.4,5.1h10v55h-10V5.1z M120.4,24.6h9v-6.7h-9V4.7l-9.5,9.6v3.6h-6.3
		v6.7h6.3v26.1c0,7.2,4.5,10.4,12.1,10.4h3.3v-9c-4.1-0.1-5.9-1.1-5.9-3.7V24.6z M149.6,16.3c-14.4,0-20.8,11.6-20.8,22.1
		c0,9.7,6.5,22.7,21.5,22.7c15,0,18.3-12.6,18.3-14.7l-9.3,0c0,2.2-2.6,6.3-8.3,6.3c-5.7,0-12-3.9-12-12.7h30.1
		C169.7,27.3,163.4,16.3,149.6,16.3L149.6,16.3z M139.4,32.7c1.2-4.4,4.5-8.1,10.3-8.1s9,3.8,9.4,8.1H139.4z M102.2,48.7V29.1
		c0-8.5-5.7-12.8-17.4-12.8c-11.6,0-18.1,4.3-18.5,13.4h9.2c0.4-3.8,3.1-5.8,8.5-5.8s8.7,1.8,8.2,7.5c-9,3.6-20.1,2.3-24.7,7.9
		c-5,6-3.3,14.9,1.7,18.8c5,3.9,16.4,5,23.2-2.3l0.6,4l10.7,0C102.7,56.3,102.2,54.5,102.2,48.7z M92.3,44.1c0,4.7-4.5,8.5-9.6,8.6
		c-2.8,0-6.9-0.5-7.6-4.2c-0.7-3.7,2.3-5.6,4-6.1c3.8-1.3,6-1.1,13.2-3.3L92.3,44.1z"/>
</svg>
