<svg xmlns="http://www.w3.org/2000/svg" width="13.243" height="12.134" viewBox="0 0 13.243 12.134">
  <g id="Group_53" data-name="Group 53" transform="translate(-6 -6)">
    <g id="volume" transform="translate(6 -9.99)">
      <path id="Path_15" data-name="Path 15" d="M7.555,16.033a.432.432,0,0,0-.458.052L2.881,19.457H.867A.868.868,0,0,0,0,20.324v3.467a.868.868,0,0,0,.867.867H2.881L7.1,28.03a.434.434,0,0,0,.459.051.432.432,0,0,0,.245-.39V16.424A.435.435,0,0,0,7.555,16.033Z" fill="#fff"/>
      <path id="Path_16" data-name="Path 16" d="M342.49,122.377a.434.434,0,1,0-.609.617,3.457,3.457,0,0,1,0,4.895.433.433,0,1,0,.609.615,4.323,4.323,0,0,0,0-6.127Z" transform="translate(-337.496 -103.384)" fill="#fff"/>
      <path id="Path_17" data-name="Path 17" d="M387.607,77.251a.434.434,0,1,0-.611.615,5.171,5.171,0,0,1,0,7.34.434.434,0,0,0,.611.615,6.04,6.04,0,0,0,0-8.57Z" transform="translate(-381.39 -59.479)" fill="#fff"/>
    </g>
    <rect id="Rectangle_17" data-name="Rectangle 17" width="1" height="5" rx="0.5" transform="translate(18.536 10) rotate(45)" fill="#fff"/>
    <rect id="Rectangle_18" data-name="Rectangle 18" width="1" height="5" rx="0.5" transform="translate(19.243 13.536) rotate(135)" fill="#fff"/>
  </g>
</svg>
