<?xml version="1.0" encoding="utf-8"?>
<!-- Generator: Adobe Illustrator 16.0.0, SVG Export Plug-In . SVG Version: 6.00 Build 0)  -->
<!DOCTYPE svg PUBLIC "-//W3C//DTD SVG 1.1//EN" "http://www.w3.org/Graphics/SVG/1.1/DTD/svg11.dtd">
<svg version="1.1" id="Layer_1" xmlns="http://www.w3.org/2000/svg" xmlns:xlink="http://www.w3.org/1999/xlink" x="0px" y="0px"
	 width="155px" height="42px" viewBox="0 0 155 42" enable-background="new 0 0 155 42" xml:space="preserve">
<g id="Layer_1_1_">
	<path d="M63.161,22.711h-3.157c-0.621,0-1.314,0.036-2.079-0.012c0,0.539,0.072,1.07,0.214,1.535c0.693,0,1.041,0.211,1.041,0.604
		c0,0.271-0.179,0.643-0.538,1.109c-0.359,0.464-1.066,1.08-1.878,1.838l-1.668,1.509c0.292-1.485,2.241-11.979,2.531-13.625
		c0.238-1.321-0.174-2.103-0.914-2.349c-0.265,0.147-0.61,0.299-1.041,0.459c-0.431,0.158-0.626,0.312-1.094,0.457
		c-0.467,0.147-0.92,0.275-1.364,0.385c-0.441,0.11-0.806,0.179-1.093,0.204c-0.191,0.366-0.263,0.831-0.215,1.395
		c0.574,0,1.021,0.025,1.344,0.075c0.324,0.05,0.545,0.188,0.666,0.424c0.121,0.232,0.155,0.587,0.106,1.063
		c-0.048,0.479-0.394,2.434-0.538,3.292l-3.119,17.564h3.263l1.113-6.469c0.023-0.173,0.048-0.337,0.071-0.482
		c0.018-0.113,0.052-0.244,0.084-0.373l0.059-0.049c0.46,0.713,0.852,1.39,1.165,2.019c0.324,0.647,0.652,1.415,0.988,2.294
		c0.239,0.642,0.459,1.177,0.664,1.617c0.203,0.439,0.431,0.787,0.682,1.047c0.25,0.258,0.53,0.441,0.841,0.55
		c0.311,0.11,0.707,0.166,1.185,0.166c0.502,0,1.106-0.235,1.812-0.716c0.705-0.479,1.344-1.069,1.919-1.781
		c-0.145-0.465-0.359-0.855-0.647-1.174c-0.359,0.39-0.656,0.667-0.896,0.824c-0.24,0.16-0.478,0.236-0.718,0.236
		c-0.336,0-0.616-0.097-0.842-0.291c-0.229-0.195-0.509-0.648-0.843-1.359c-1.004-2.154-1.891-3.563-2.653-4.223
		c0.001-0.002,0.005-0.002,0.007-0.002c-0.288-0.232-0.622-0.408-0.95-0.55l0.611-0.479l3.121-2.9
		c0.885-0.831,1.664-1.408,2.332-1.727c0.668-0.319,1.35-0.489,2.044-0.516c0.096-0.222,0.162-0.473,0.198-0.753
		c0.035-0.28,0.053-0.604,0.053-0.849C64.381,22.747,63.758,22.711,63.161,22.711z M46.436,36.128
		c-0.323,0.173-0.604,0.259-0.845,0.259c-0.167,0-0.305-0.037-0.412-0.111s-0.173-0.207-0.197-0.401
		c-0.024-0.197,0-0.483,0.073-0.863c0.07-0.378,0.19-0.86,0.357-1.448l1.975-7.093c0.405-1.516,0.531-2.647,0.375-3.396
		c-0.155-0.746-0.604-1.279-1.347-1.599c-0.216,0.148-0.495,0.3-0.842,0.462c-0.347,0.156-0.718,0.313-1.112,0.455
		c-0.396,0.147-0.785,0.276-1.165,0.389c-0.383,0.109-0.719,0.179-1.005,0.201c-0.167,0.392-0.24,0.855-0.215,1.397
		c0.599,0,1.058,0.033,1.382,0.106C43.78,24.561,43.99,24.73,44.084,25c0.098,0.27,0.09,0.664-0.019,1.193
		c-0.105,0.525-0.292,1.254-0.554,2.186l-1.472,5.289c-0.431,1.593-0.508,2.871-0.234,3.839c0.276,0.968,1.011,1.45,2.206,1.45
		c0.67,0,1.346-0.216,2.028-0.643c0.679-0.432,1.369-1.033,2.063-1.818c-0.072-0.537-0.287-0.93-0.648-1.178
		C47.099,35.689,46.758,35.959,46.436,36.128z M47.636,15.594c-0.551,0-1.04,0.203-1.47,0.608c-0.433,0.402-0.718,0.948-0.862,1.634
		c-0.119,0.636-0.041,1.156,0.233,1.56c0.276,0.405,0.7,0.606,1.272,0.606c0.599,0,1.113-0.201,1.543-0.606
		c0.431-0.404,0.705-0.924,0.826-1.56c0.145-0.686,0.07-1.232-0.215-1.634C48.677,15.797,48.232,15.594,47.636,15.594z
		 M71.435,36.128c-0.323,0.173-0.604,0.259-0.845,0.259c-0.167,0-0.303-0.037-0.413-0.111c-0.106-0.074-0.171-0.207-0.197-0.401
		c-0.023-0.197,0-0.483,0.073-0.863c0.07-0.378,0.189-0.86,0.357-1.448l1.975-7.093c0.405-1.516,0.531-2.647,0.376-3.396
		c-0.155-0.746-0.604-1.279-1.347-1.599c-0.213,0.148-0.495,0.3-0.841,0.462c-0.347,0.156-0.719,0.313-1.113,0.455
		c-0.395,0.147-0.785,0.276-1.166,0.389c-0.382,0.109-0.718,0.179-1.004,0.201c-0.167,0.392-0.241,0.855-0.216,1.397
		c0.599,0,1.06,0.033,1.383,0.106c0.323,0.074,0.532,0.244,0.626,0.515c0.097,0.271,0.09,0.664-0.018,1.192
		c-0.107,0.526-0.292,1.255-0.554,2.187l-1.472,5.289c-0.431,1.593-0.508,2.871-0.235,3.839c0.279,0.969,1.011,1.45,2.208,1.45
		c0.67,0,1.345-0.216,2.027-0.644c0.68-0.431,1.369-1.032,2.062-1.817c-0.072-0.537-0.287-0.931-0.646-1.179
		C72.098,35.689,71.758,35.959,71.435,36.128z M72.386,15.594c-0.551,0-1.042,0.203-1.471,0.608
		c-0.432,0.402-0.718,0.948-0.861,1.634c-0.12,0.636-0.041,1.156,0.234,1.56c0.274,0.405,0.7,0.606,1.272,0.606
		c0.598,0,1.114-0.201,1.542-0.606c0.433-0.404,0.707-0.924,0.825-1.56c0.146-0.686,0.073-1.232-0.214-1.634
		C73.426,15.797,72.984,15.594,72.386,15.594z M114.671,35.318c-0.478,0.42-0.86,0.705-1.147,0.863
		c-0.282,0.159-0.56,0.236-0.82,0.236c-0.192,0-0.344-0.033-0.448-0.105c-0.106-0.073-0.177-0.223-0.196-0.44
		c-0.027-0.22,0-0.54,0.07-0.956c0.072-0.416,0.182-0.979,0.323-1.688L114.243,25c0.167-0.734,0.274-1.32,0.323-1.764
		c0.047-0.44,0.06-0.783,0.035-1.031c-0.023-0.242-0.078-0.414-0.162-0.514c-0.084-0.097-0.174-0.17-0.271-0.22
		c-0.237,0.125-0.549,0.208-0.933,0.257c-0.385,0.049-0.752,0.072-1.113,0.072c-0.266-0.099-0.578-0.179-0.949-0.238
		c-0.372-0.061-0.726-0.091-1.063-0.091c-1.168,0-2.274,0.244-3.317,0.733c-1.036,0.489-1.981,1.165-2.831,2.021
		c-0.852,0.857-1.574,1.879-2.168,3.067c-0.602,1.188-1.044,2.491-1.328,3.912c-0.525,2.718-0.537,4.687-0.033,5.911
		c0.502,1.224,1.35,1.839,2.545,1.839c0.67,0,1.32-0.173,1.955-0.515s1.23-0.789,1.793-1.342c0.562-0.549,1.084-1.162,1.561-1.839
		c0.479-0.672,0.886-1.35,1.219-2.036h0.037c-0.214,0.517-0.395,1.102-0.54,1.764c-0.144,0.662-0.181,1.285-0.106,1.875
		c0.074,0.584,0.291,1.082,0.664,1.486c0.369,0.401,0.963,0.604,1.773,0.604c0.623,0,1.298-0.245,2.029-0.733
		c0.729-0.487,1.38-1.079,1.953-1.764c-0.071-0.22-0.155-0.423-0.25-0.606C114.973,35.671,114.842,35.493,114.671,35.318z
		 M110.8,26.287c-0.358,1.518-0.806,2.874-1.345,4.074c-0.538,1.201-1.082,2.217-1.631,3.048c-0.555,0.834-1.084,1.472-1.598,1.909
		c-0.516,0.44-0.929,0.662-1.235,0.662c-0.72,0-1.181-0.556-1.382-1.672c-0.203-1.113-0.092-2.709,0.339-4.793
		c0.168-0.902,0.399-1.735,0.698-2.496c0.302-0.761,0.666-1.408,1.097-1.946c0.431-0.539,0.933-0.96,1.507-1.271
		c0.574-0.305,1.232-0.458,1.973-0.458c0.838,0,1.565,0.122,2.188,0.369L110.8,26.287z M131.479,36.109
		c-0.395,0.232-0.725,0.35-0.986,0.35c-0.145,0-0.258-0.023-0.34-0.072c-0.086-0.052-0.12-0.186-0.108-0.404
		c0.013-0.222,0.065-0.561,0.161-1.028c0.097-0.462,0.238-1.111,0.43-1.946l1.045-4.479c0.334-1.443,0.481-2.625,0.445-3.545
		c-0.038-0.918-0.186-1.635-0.445-2.148c-0.266-0.516-0.594-0.869-0.988-1.064c-0.396-0.194-0.783-0.292-1.166-0.292
		c-0.621,0-1.282,0.184-1.988,0.548c-0.707,0.369-1.389,0.842-2.045,1.416c-0.659,0.574-1.25,1.197-1.777,1.871
		c-0.527,0.679-0.93,1.307-1.219,1.895l-0.573,1.248h-0.034c0.262-0.609,0.508-1.268,0.732-1.966
		c0.229-0.698,0.436-1.571,0.63-2.625c0.214-1.347-0.036-2.144-0.753-2.387c-0.266,0.147-0.607,0.301-1.041,0.458
		c-0.43,0.158-0.887,0.313-1.363,0.459c-0.479,0.146-0.939,0.273-1.382,0.387s-0.806,0.179-1.094,0.199
		c-0.12,0.199-0.183,0.414-0.198,0.646c-0.012,0.236-0.018,0.486-0.018,0.755c0.574,0,1.021,0.022,1.348,0.071
		c0.322,0.05,0.544,0.188,0.662,0.423c0.117,0.234,0.154,0.59,0.109,1.063c-0.049,0.479-0.146,1.146-0.289,2.002l-1.976,10.688
		h3.267l0.896-4.776c0.266-1.443,0.656-2.767,1.184-3.967c0.526-1.197,1.088-2.234,1.688-3.103c0.595-0.87,1.188-1.541,1.773-2.021
		c0.586-0.477,1.062-0.716,1.416-0.716c0.266,0,0.496,0.068,0.699,0.202c0.203,0.136,0.348,0.372,0.432,0.717
		c0.084,0.342,0.107,0.813,0.07,1.413c-0.033,0.603-0.158,1.367-0.373,2.295l-0.971,4.374c-0.191,0.904-0.347,1.727-0.466,2.46
		c-0.122,0.734-0.14,1.359-0.054,1.874c0.082,0.514,0.289,0.905,0.625,1.176c0.337,0.271,0.863,0.401,1.58,0.401
		c0.646,0,1.295-0.2,1.953-0.606c0.656-0.4,1.381-1.021,2.17-1.852c-0.096-0.441-0.313-0.833-0.646-1.18
		C132.213,35.615,131.872,35.88,131.479,36.109z M147.385,32.125l2.94-16.969c0.217-1.32-0.033-2.104-0.753-2.35
		c-0.264,0.147-0.609,0.301-1.039,0.459c-0.43,0.16-0.877,0.312-1.346,0.459c-0.465,0.146-0.922,0.275-1.363,0.386
		c-0.44,0.111-0.807,0.177-1.094,0.203c-0.121,0.196-0.187,0.411-0.196,0.643c-0.015,0.235-0.019,0.485-0.019,0.754
		c0.571,0,1.02,0.023,1.346,0.073c0.322,0.05,0.543,0.19,0.662,0.423c0.121,0.232,0.156,0.587,0.106,1.064
		c-0.049,0.477-0.146,0.889-0.287,1.747c-0.069,0.49-0.138,0.954-0.194,1.395c-0.063,0.44-0.104,0.856-0.127,1.25
		c-0.552-0.122-1.056-0.184-1.506-0.184c-1.174,0-2.279,0.245-3.32,0.735c-1.038,0.489-1.984,1.161-2.832,2.02
		c-0.851,0.855-1.571,1.879-2.17,3.066s-1.039,2.49-1.326,3.908c-0.526,2.72-0.538,4.689-0.036,5.916
		c0.503,1.225,1.353,1.837,2.549,1.837c0.692,0,1.373-0.185,2.044-0.551c0.672-0.366,1.293-0.843,1.866-1.433
		c0.571-0.586,1.099-1.242,1.577-1.966c0.477-0.723,0.885-1.438,1.222-2.146h0.033c-0.168,0.589-0.331,1.239-0.483,1.946
		c-0.154,0.711-0.203,1.371-0.146,1.983c0.063,0.61,0.276,1.125,0.647,1.542c0.368,0.415,0.982,0.623,1.846,0.623
		c0.623,0,1.31-0.244,2.063-0.732c0.753-0.49,1.416-1.078,1.991-1.767c-0.072-0.219-0.157-0.421-0.251-0.604
		c-0.098-0.184-0.229-0.36-0.393-0.535c-0.479,0.419-0.862,0.705-1.149,0.865c-0.286,0.158-0.563,0.235-0.822,0.235
		c-0.171,0-0.3-0.034-0.396-0.108c-0.096-0.073-0.142-0.254-0.142-0.551c0-0.293,0.039-0.729,0.125-1.305
		C147.094,33.887,147.219,33.104,147.385,32.125z M145.2,26.287c-0.339,1.518-0.771,2.874-1.312,4.074
		c-0.539,1.201-1.09,2.217-1.652,3.048c-0.562,0.834-1.098,1.472-1.612,1.909c-0.513,0.44-0.927,0.662-1.237,0.662
		c-0.716,0-1.177-0.556-1.383-1.672c-0.197-1.113-0.085-2.709,0.344-4.793c0.168-0.902,0.398-1.735,0.698-2.496
		c0.302-0.761,0.664-1.408,1.095-1.946c0.433-0.539,0.936-0.96,1.508-1.271c0.574-0.305,1.229-0.458,1.974-0.458
		c0.837,0,1.565,0.122,2.188,0.369L145.2,26.287z"/>
	<path d="M98.824,21.239c0,0-2.754,0.823-4.235,1.044c0,0,0.024,0.578,0.306,1.291c0,0,3.153-0.172,0.728,6.138
		c-0.115,0.306-0.242,0.62-0.396,0.954c-0.651,1.443-1.73,3.107-3.24,4.991c-0.07-0.679-0.168-1.438-0.279-2.278
		c-0.114-0.842-0.244-1.722-0.396-2.638c-0.15-0.917-0.321-1.849-0.511-2.788c-0.187-0.941-0.37-1.854-0.546-2.73
		c-0.175-0.854-0.326-1.531-0.451-2.035c-0.125-0.502-0.264-0.896-0.414-1.185c-0.149-0.289-0.313-0.497-0.49-0.623
		c-0.176-0.125-0.414-0.226-0.715-0.301c-0.203,0.25-0.49,0.483-0.867,0.696s-0.778,0.382-1.207,0.508
		c0.38,1.433,0.601,2.73,0.662,3.898c0.063,1.168-0.037,2.277-0.303,3.334c-0.264,1.055-0.695,2.078-1.301,3.069
		c-0.602,0.99-1.367,2.024-2.296,3.104c-0.052-0.676-0.12-1.438-0.208-2.277c-0.089-0.842-0.193-1.721-0.32-2.637
		c-0.125-0.918-0.262-1.846-0.414-2.786c-0.149-0.941-0.313-1.854-0.49-2.732c-0.147-0.753-0.274-1.368-0.375-1.844
		c-0.101-0.479-0.222-0.873-0.356-1.188c-0.14-0.313-0.313-0.553-0.526-0.718c-0.216-0.162-0.494-0.306-0.848-0.432
		c-0.4,0.301-0.977,0.616-1.716,0.94c-0.74,0.324-1.426,0.526-2.053,0.604c-0.075,0.201-0.125,0.465-0.149,0.791
		c-0.027,0.324-0.038,0.54-0.038,0.638c0.477-0.021,0.865-0.004,1.167,0.06c0.301,0.063,0.545,0.188,0.734,0.375
		c0.188,0.188,0.339,0.439,0.452,0.756c0.114,0.313,0.233,0.695,0.36,1.147c0.374,1.558,0.733,3.402,1.071,5.535
		c0.339,2.138,0.584,4.386,0.734,6.745c0.5,0.273,1.104,0.391,1.808,0.338c0.903-0.902,1.694-1.73,2.373-2.484
		c0.68-0.754,1.262-1.471,1.751-2.148c0.49-0.676,0.904-1.348,1.24-2.014c0.343-0.666,0.648-1.375,0.929-2.129
		c0.198,1.154,0.394,2.441,0.583,3.858c0.188,1.422,0.344,2.946,0.47,4.579c0.505,0.273,1.104,0.391,1.81,0.338
		c1.783-1.833,3.242-3.459,4.369-4.878c0.476-0.595,0.894-1.153,1.279-1.696l0.002,0.008
		C96.509,32.441,101.721,25.583,98.824,21.239z"/>
</g>
<g id="Layer_2">
	<path fill="#40BBE1" d="M9.203,5.718L9.97,9.001l3.24,0.619l-3.206,0.781L9.399,13.72l-0.766-3.282l-3.24-0.617L8.6,9.036
		L9.203,5.718z"/>
	<path fill="#40BBE1" d="M7.385,7.691L6.853,7.453l-0.43,0.398l0.233-0.542L6.264,6.867l0.532,0.241l0.431-0.403L6.992,7.251
		L7.385,7.691z"/>
	<path fill="#40BBE1" d="M12.739,7.731l-0.557-0.018l-0.24,0.514l0.014-0.57l-0.502-0.246l0.557,0.016l0.239-0.514l-0.015,0.57
		L12.739,7.731z"/>
	<path fill="#FFBF13" d="M19.583,9.525l-0.556-0.016l-0.24,0.512l0.015-0.568L18.3,9.205l0.558,0.016l0.24-0.514L19.08,9.276
		L19.583,9.525z"/>
	<path fill="#BF60A2" d="M15.478,2.141l0.534,2.295l2.267,0.433l-2.242,0.549L15.615,7.74l-0.536-2.297l-2.267-0.432l2.242-0.55
		L15.478,2.141z"/>
	<path fill="#BF60A2" d="M18.334,6.541L18.15,7.283l0.586,0.473l-0.724-0.189L17.549,8.17l0.184-0.743l-0.585-0.475l0.724,0.189
		L18.334,6.541z"/>
	<path fill="#FFBF13" d="M20.672,8.486l0.489,2.101l2.075,0.396l-2.052,0.501l-0.386,2.125l-0.491-2.101l-2.074-0.396l2.053-0.503
		L20.672,8.486z"/>
	<g>
		<path d="M17.893,11.844c-0.526-0.561-2.102-0.669-2.969-0.428c-1.347,0.376-2.196,0.972-2.477,1.772
			c-0.002,0.137,2.729,8.626,2.729,8.626c1.123,0.541,2.916,0.188,3.891-0.848C19.067,20.968,17.932,11.941,17.893,11.844z
			 M13.289,14.378l-0.256-0.835c1.234,0.618,3.543-0.626,3.543-0.626C15.667,14.461,13.289,14.378,13.289,14.378z"/>
		<path d="M42.618,15.237c0,0-4.339,0.105-6.861,0c0,0,0.023,1.275,0.248,1.573c0,0,1.656,0.247,1.979,1.41
			c0,0,0.291,0.726-0.083,2.858c0,0-1.887,10.363-2.135,11.386l-6.729-17.627c0,0-0.947-0.162-1.612,0.052L21.11,32.876
			l-0.045,0.172c-1.544-8.702-1.601-9.084-1.827-11.319c-0.416,0.558-2.73,1.604-3.911,0.862c0.855,3.041,2.006,6.392,4.054,16.597
			l0.027-0.049l-0.017,0.06c0.003,0.009,0.004,0.019,0.007,0.026c0,0,1,0.049,1.335-0.058l6.616-18.794l7.236,18.706
			c0,0,0.896,0.108,1.271-0.021c0,0,3.524-17.021,3.962-18.708c0,0,0.683-3.318,2.548-3.542
			C42.368,16.81,42.67,15.667,42.618,15.237z"/>
	</g>
</g>
</svg>
