<?xml version="1.0" encoding="utf-8"?>
<!-- Generator: Adobe Illustrator 16.0.0, SVG Export Plug-In . SVG Version: 6.00 Build 0)  -->
<!DOCTYPE svg PUBLIC "-//W3C//DTD SVG 1.1//EN" "http://www.w3.org/Graphics/SVG/1.1/DTD/svg11.dtd">
<svg version="1.1" id="Layer_1" xmlns="http://www.w3.org/2000/svg" xmlns:xlink="http://www.w3.org/1999/xlink" x="0px" y="0px"
	 width="402.5px" height="90.5px" viewBox="0 0 402.5 90.5" enable-background="new 0 0 402.5 90.5" xml:space="preserve">
<g>
	<path fill="#FFFFFF" d="M198.695,37.65h-1.41V26.768h-3.844v-1.253h9.098v1.253h-3.844V37.65z"/>
	<path fill="#FFFFFF" d="M212.01,33.093c0,1.483-0.373,2.641-1.119,3.474c-0.748,0.833-1.779,1.25-3.098,1.25
		c-0.813,0-1.535-0.191-2.166-0.573c-0.631-0.382-1.117-0.93-1.461-1.644c-0.344-0.714-0.516-1.549-0.516-2.507
		c0-1.483,0.371-2.638,1.113-3.466c0.741-0.827,1.771-1.241,3.088-1.241c1.272,0,2.283,0.423,3.033,1.271
		C211.635,30.503,212.01,31.648,212.01,33.093z M205.079,33.093c0,1.162,0.231,2.047,0.696,2.656
		c0.466,0.609,1.148,0.913,2.051,0.913s1.588-0.303,2.055-0.909c0.469-0.605,0.701-1.493,0.701-2.66
		c0-1.157-0.232-2.035-0.701-2.636c-0.467-0.6-1.158-0.9-2.07-0.9c-0.901,0-1.582,0.296-2.043,0.888
		C205.309,31.037,205.079,31.919,205.079,33.093z"/>
	<path fill="#FFFFFF" d="M221.779,36.679c0.244,0,0.479-0.018,0.707-0.054c0.227-0.036,0.406-0.074,0.539-0.112v1.054
		c-0.149,0.072-0.369,0.131-0.66,0.178c-0.29,0.047-0.553,0.071-0.784,0.071c-1.761,0-2.64-0.927-2.64-2.781v-5.412h-1.303v-0.664
		l1.303-0.573l0.58-1.942h0.797v2.108h2.641v1.071h-2.641v5.354c0,0.548,0.131,0.968,0.391,1.262
		C220.971,36.532,221.326,36.679,221.779,36.679z"/>
	<path fill="#FFFFFF" d="M232.695,33.093c0,1.483-0.373,2.641-1.12,3.474s-1.779,1.25-3.097,1.25c-0.813,0-1.535-0.191-2.166-0.573
		c-0.631-0.382-1.117-0.93-1.461-1.644c-0.345-0.714-0.516-1.549-0.516-2.507c0-1.483,0.37-2.638,1.112-3.466
		c0.741-0.827,1.771-1.241,3.088-1.241c1.272,0,2.284,0.423,3.034,1.271C232.32,30.503,232.695,31.648,232.695,33.093z
		 M225.766,33.093c0,1.162,0.231,2.047,0.696,2.656c0.466,0.609,1.147,0.913,2.05,0.913s1.588-0.303,2.055-0.909
		c0.469-0.605,0.701-1.493,0.701-2.66c0-1.157-0.232-2.035-0.701-2.636c-0.467-0.6-1.157-0.9-2.069-0.9
		c-0.901,0-1.583,0.296-2.043,0.888C225.994,31.037,225.766,31.919,225.766,33.093z"/>
	<path fill="#FFFFFF" d="M242.557,28.552v0.872l-1.685,0.199c0.155,0.194,0.294,0.447,0.415,0.76s0.184,0.665,0.184,1.058
		c0,0.891-0.305,1.602-0.914,2.133c-0.608,0.531-1.443,0.797-2.507,0.797c-0.271,0-0.526-0.022-0.764-0.066
		c-0.587,0.31-0.88,0.7-0.88,1.17c0,0.249,0.103,0.433,0.307,0.552c0.205,0.119,0.557,0.178,1.055,0.178h1.61
		c0.985,0,1.741,0.208,2.271,0.623c0.528,0.415,0.793,1.018,0.793,1.81c0,1.007-0.403,1.775-1.213,2.304
		c-0.808,0.528-1.985,0.792-3.535,0.792c-1.189,0-2.106-0.221-2.752-0.664c-0.645-0.443-0.967-1.068-0.967-1.876
		c0-0.553,0.178-1.032,0.531-1.436c0.354-0.404,0.852-0.678,1.494-0.822c-0.232-0.105-0.428-0.269-0.586-0.49
		c-0.157-0.221-0.236-0.479-0.236-0.772c0-0.332,0.088-0.623,0.266-0.872c0.179-0.249,0.457-0.49,0.839-0.722
		c-0.47-0.194-0.854-0.523-1.149-0.988c-0.295-0.465-0.443-0.996-0.443-1.594c0-0.996,0.299-1.764,0.896-2.304
		c0.599-0.539,1.444-0.809,2.541-0.809c0.476,0,0.903,0.055,1.286,0.166L242.557,28.552L242.557,28.552z M235.303,39.177
		c0,0.493,0.207,0.866,0.622,1.121s1.011,0.382,1.784,0.382c1.157,0,2.014-0.173,2.568-0.519c0.558-0.346,0.836-0.815,0.836-1.407
		c0-0.493-0.152-0.834-0.457-1.025c-0.305-0.19-0.877-0.286-1.719-0.286h-1.651c-0.626,0-1.112,0.149-1.461,0.448
		C235.477,38.19,235.303,38.618,235.303,39.177z M236.049,31.466c0,0.636,0.18,1.118,0.54,1.444c0.36,0.326,0.86,0.49,1.503,0.49
		c1.344,0,2.018-0.653,2.018-1.959c0-1.367-0.682-2.05-2.043-2.05c-0.646,0-1.146,0.174-1.494,0.523
		C236.225,30.263,236.049,30.78,236.049,31.466z"/>
	<path fill="#FFFFFF" d="M251.871,28.552v0.872l-1.686,0.199c0.153,0.194,0.293,0.447,0.414,0.76
		c0.123,0.313,0.184,0.665,0.184,1.058c0,0.891-0.305,1.602-0.913,2.133c-0.608,0.531-1.444,0.797-2.507,0.797
		c-0.271,0-0.525-0.022-0.764-0.066c-0.586,0.31-0.881,0.7-0.881,1.17c0,0.249,0.104,0.433,0.309,0.552
		c0.203,0.119,0.556,0.178,1.054,0.178h1.61c0.983,0,1.742,0.208,2.271,0.623c0.529,0.415,0.792,1.018,0.792,1.81
		c0,1.007-0.402,1.775-1.211,2.304c-0.809,0.528-1.986,0.792-3.537,0.792c-1.189,0-2.105-0.221-2.751-0.664
		c-0.646-0.443-0.968-1.068-0.968-1.876c0-0.553,0.178-1.032,0.531-1.436c0.354-0.404,0.853-0.678,1.494-0.822
		c-0.232-0.105-0.428-0.269-0.586-0.49c-0.156-0.221-0.235-0.479-0.235-0.772c0-0.332,0.089-0.623,0.266-0.872
		c0.177-0.249,0.456-0.49,0.839-0.722c-0.471-0.194-0.854-0.523-1.15-0.988c-0.295-0.465-0.442-0.996-0.442-1.594
		c0-0.996,0.299-1.764,0.896-2.304c0.599-0.539,1.443-0.809,2.539-0.809c0.478,0,0.905,0.055,1.287,0.166L251.871,28.552
		L251.871,28.552z M244.615,39.177c0,0.493,0.208,0.866,0.623,1.121c0.414,0.255,1.01,0.382,1.785,0.382
		c1.156,0,2.013-0.173,2.567-0.519c0.558-0.346,0.834-0.815,0.834-1.407c0-0.493-0.151-0.834-0.456-1.025
		c-0.304-0.19-0.877-0.286-1.718-0.286H246.6c-0.625,0-1.111,0.149-1.461,0.448C244.79,38.19,244.615,38.618,244.615,39.177z
		 M245.363,31.466c0,0.636,0.18,1.118,0.539,1.444c0.359,0.326,0.859,0.49,1.502,0.49c1.346,0,2.018-0.653,2.018-1.959
		c0-1.367-0.681-2.05-2.042-2.05c-0.647,0-1.146,0.174-1.493,0.523C245.538,30.263,245.363,30.78,245.363,31.466z"/>
	<path fill="#FFFFFF" d="M255.116,37.65h-1.378V24.734h1.378V37.65z"/>
	<path fill="#FFFFFF" d="M261.881,37.816c-1.344,0-2.404-0.41-3.183-1.229c-0.778-0.819-1.167-1.956-1.167-3.412
		c0-1.466,0.361-2.631,1.084-3.495c0.722-0.863,1.691-1.295,2.908-1.295c1.141,0,2.043,0.375,2.707,1.125s0.996,1.739,0.996,2.968
		v0.872h-6.269c0.028,1.068,0.298,1.879,0.81,2.432c0.514,0.553,1.233,0.83,2.164,0.83c0.979,0,1.946-0.205,2.903-0.614v1.229
		c-0.485,0.21-0.946,0.361-1.382,0.452C263.02,37.771,262.496,37.816,261.881,37.816z M261.508,29.54
		c-0.73,0-1.313,0.238-1.747,0.714c-0.434,0.476-0.69,1.134-0.769,1.976h4.757c0-0.869-0.194-1.534-0.581-1.996
		C262.781,29.771,262.227,29.54,261.508,29.54z"/>
	<path fill="#FFFFFF" d="M279.131,34.354c0,1.079-0.391,1.926-1.171,2.54c-0.78,0.614-1.856,0.921-3.229,0.921
		c-1.371,0-2.494-0.213-3.369-0.639V35.3c0.554,0.26,1.142,0.465,1.765,0.614c0.622,0.149,1.202,0.224,1.738,0.224
		c0.786,0,1.366-0.149,1.739-0.448c0.373-0.299,0.561-0.7,0.561-1.204c0-0.454-0.171-0.838-0.516-1.154
		c-0.344-0.316-1.051-0.689-2.125-1.121c-1.106-0.448-1.887-0.96-2.34-1.536c-0.455-0.576-0.682-1.267-0.682-2.075
		c0-1.013,0.359-1.81,1.079-2.391s1.685-0.872,2.897-0.872c1.162,0,2.317,0.254,3.469,0.764l-0.631,1.619
		c-1.078-0.454-2.041-0.681-2.889-0.681c-0.643,0-1.13,0.14-1.462,0.419s-0.497,0.648-0.497,1.108c0,0.315,0.065,0.585,0.198,0.809
		c0.133,0.225,0.353,0.436,0.656,0.635c0.304,0.199,0.852,0.462,1.644,0.789c0.893,0.371,1.545,0.717,1.959,1.038
		c0.416,0.321,0.721,0.684,0.913,1.087C279.032,33.327,279.131,33.807,279.131,34.354z"/>
	<path fill="#FFFFFF" d="M288.344,37.65h-6.863V25.514h6.863v1.677h-4.881v3.304h4.574v1.66h-4.574v3.81h4.881V37.65z"/>
	<path fill="#FFFFFF" d="M298.496,37.65l-1.212-3.37h-4.64l-1.188,3.37h-2.093l4.541-12.186h2.158l4.541,12.186H298.496z
		 M296.762,32.57l-1.138-3.304c-0.083-0.221-0.198-0.57-0.345-1.046c-0.147-0.476-0.248-0.825-0.303-1.046
		c-0.149,0.681-0.369,1.425-0.656,2.233l-1.096,3.163H296.762z"/>
	<path fill="#FFFFFF" d="M304.189,32.802v4.848h-1.982V25.514h3.428c1.566,0,2.727,0.293,3.479,0.88
		c0.752,0.586,1.128,1.472,1.128,2.656c0,1.511-0.785,2.587-2.356,3.229l3.429,5.371h-2.259l-2.905-4.848H304.189z M304.189,31.159
		h1.379c0.924,0,1.594-0.171,2.009-0.515c0.415-0.344,0.622-0.852,0.622-1.527c0-0.686-0.225-1.179-0.672-1.478
		c-0.448-0.299-1.123-0.448-2.025-0.448h-1.313V31.159z"/>
	<path fill="#FFFFFF" d="M318.235,27.042c-1.142,0-2.037,0.404-2.689,1.212c-0.653,0.808-0.979,1.923-0.979,3.345
		c0,1.489,0.313,2.615,0.941,3.378s1.537,1.146,2.729,1.146c0.514,0,1.012-0.051,1.493-0.154c0.48-0.102,0.981-0.233,1.503-0.394
		v1.702c-0.952,0.36-2.031,0.54-3.237,0.54c-1.776,0-3.142-0.538-4.093-1.615c-0.951-1.076-1.429-2.616-1.429-4.619
		c0-1.262,0.231-2.366,0.693-3.312s1.131-1.671,2.005-2.175c0.874-0.504,1.901-0.755,3.079-0.755c1.24,0,2.386,0.26,3.438,0.78
		l-0.716,1.652c-0.408-0.194-0.842-0.364-1.299-0.51C319.219,27.115,318.738,27.042,318.235,27.042z"/>
	<path fill="#FFFFFF" d="M333.418,37.65h-1.992v-5.47h-5.595v5.47h-1.984V25.514h1.984v4.964h5.595v-4.964h1.992V37.65z"/>
	<path fill="#FFFFFF" d="M337.916,35.674l0.124,0.191c-0.145,0.553-0.351,1.197-0.622,1.93s-0.554,1.416-0.847,2.046h-1.037
		c0.147-0.576,0.313-1.287,0.493-2.133c0.18-0.846,0.306-1.524,0.378-2.034H337.916z"/>
	<path fill="#FFFFFF" d="M349.289,37.816c-0.592,0-1.133-0.109-1.623-0.328c-0.489-0.219-0.9-0.555-1.232-1.009h-0.1
		c0.066,0.531,0.1,1.035,0.1,1.511v3.744h-1.378V28.552h1.121l0.19,1.245h0.065c0.354-0.498,0.768-0.858,1.237-1.079
		c0.47-0.221,1.01-0.332,1.618-0.332c1.206,0,2.138,0.412,2.793,1.237c0.656,0.825,0.983,1.981,0.983,3.47
		c0,1.494-0.333,2.655-1,3.482C351.398,37.402,350.474,37.816,349.289,37.816z M349.09,29.557c-0.93,0-1.603,0.257-2.017,0.772
		c-0.416,0.515-0.629,1.333-0.641,2.457v0.307c0,1.278,0.214,2.193,0.641,2.743c0.426,0.551,1.108,0.826,2.05,0.826
		c0.786,0,1.401-0.318,1.847-0.955c0.446-0.637,0.668-1.514,0.668-2.631c0-1.134-0.223-2.005-0.668-2.61
		C350.524,29.859,349.897,29.557,349.09,29.557z"/>
	<path fill="#FFFFFF" d="M359.623,28.386c0.404,0,0.767,0.033,1.087,0.1l-0.19,1.278c-0.376-0.083-0.708-0.125-0.995-0.125
		c-0.736,0-1.365,0.299-1.89,0.896c-0.521,0.598-0.784,1.342-0.784,2.233v4.881h-1.378v-9.098h1.139l0.156,1.685h0.066
		c0.338-0.592,0.744-1.049,1.22-1.37C358.53,28.547,359.053,28.386,359.623,28.386z"/>
	<path fill="#FFFFFF" d="M366.255,37.816c-1.344,0-2.405-0.41-3.183-1.229c-0.778-0.819-1.167-1.956-1.167-3.412
		c0-1.466,0.36-2.631,1.084-3.495c0.722-0.863,1.69-1.295,2.909-1.295c1.14,0,2.042,0.375,2.705,1.125
		c0.664,0.75,0.996,1.739,0.996,2.968v0.872h-6.268c0.028,1.068,0.298,1.879,0.81,2.432c0.513,0.553,1.233,0.83,2.163,0.83
		c0.979,0,1.947-0.205,2.904-0.614v1.229c-0.486,0.21-0.947,0.361-1.382,0.452C367.394,37.771,366.87,37.816,366.255,37.816z
		 M365.882,29.54c-0.729,0-1.313,0.238-1.747,0.714c-0.434,0.476-0.689,1.134-0.769,1.976h4.757c0-0.869-0.193-1.534-0.581-1.996
		C367.154,29.771,366.602,29.54,365.882,29.54z"/>
	<path fill="#FFFFFF" d="M377.819,35.168c0,0.847-0.316,1.5-0.947,1.959s-1.516,0.689-2.656,0.689c-1.206,0-2.146-0.191-2.822-0.573
		v-1.278c0.438,0.221,0.906,0.396,1.407,0.523c0.501,0.127,0.983,0.191,1.448,0.191c0.72,0,1.273-0.115,1.66-0.345
		c0.388-0.229,0.582-0.58,0.582-1.05c0-0.354-0.154-0.657-0.461-0.909c-0.309-0.251-0.906-0.549-1.797-0.892
		c-0.849-0.315-1.449-0.591-1.807-0.826c-0.356-0.235-0.623-0.502-0.797-0.801c-0.175-0.299-0.262-0.656-0.262-1.071
		c0-0.742,0.302-1.327,0.905-1.756c0.603-0.429,1.43-0.643,2.48-0.643c0.979,0,1.938,0.199,2.872,0.598l-0.49,1.121
		c-0.912-0.376-1.739-0.564-2.48-0.564c-0.653,0-1.146,0.103-1.479,0.307c-0.332,0.204-0.498,0.487-0.498,0.847
		c0,0.244,0.063,0.451,0.188,0.623c0.125,0.171,0.325,0.335,0.603,0.49c0.276,0.155,0.809,0.379,1.595,0.672
		c1.077,0.393,1.808,0.789,2.187,1.187S377.819,34.565,377.819,35.168z"/>
	<path fill="#FFFFFF" d="M385.929,35.168c0,0.847-0.315,1.5-0.946,1.959c-0.632,0.459-1.517,0.689-2.656,0.689
		c-1.206,0-2.146-0.191-2.822-0.573v-1.278c0.438,0.221,0.906,0.396,1.407,0.523c0.501,0.127,0.982,0.191,1.448,0.191
		c0.72,0,1.272-0.115,1.659-0.345c0.389-0.229,0.582-0.58,0.582-1.05c0-0.354-0.153-0.657-0.461-0.909
		c-0.308-0.251-0.905-0.549-1.797-0.892c-0.848-0.315-1.449-0.591-1.806-0.826c-0.357-0.235-0.623-0.502-0.797-0.801
		c-0.175-0.299-0.262-0.656-0.262-1.071c0-0.742,0.302-1.327,0.904-1.756c0.604-0.429,1.431-0.643,2.481-0.643
		c0.979,0,1.937,0.199,2.872,0.598l-0.49,1.121c-0.912-0.376-1.74-0.564-2.481-0.564c-0.652,0-1.146,0.103-1.478,0.307
		c-0.332,0.204-0.498,0.487-0.498,0.847c0,0.244,0.063,0.451,0.188,0.623c0.125,0.171,0.324,0.335,0.603,0.49
		c0.276,0.155,0.808,0.379,1.594,0.672c1.078,0.393,1.809,0.789,2.188,1.187S385.929,34.565,385.929,35.168z"/>
	<path fill="#FFFFFF" d="M198.612,61.68c0.243,0,0.479-0.019,0.706-0.055s0.406-0.074,0.539-0.111v1.053
		c-0.149,0.072-0.369,0.132-0.66,0.179c-0.29,0.047-0.552,0.071-0.784,0.071c-1.76,0-2.64-0.928-2.64-2.781v-5.412h-1.303v-0.664
		l1.303-0.573l0.581-1.942h0.797v2.108h2.64v1.071h-2.64v5.354c0,0.549,0.13,0.969,0.39,1.263
		C197.802,61.532,198.158,61.68,198.612,61.68z"/>
	<path fill="#FFFFFF" d="M207.9,62.65v-5.885c0-0.742-0.168-1.295-0.506-1.66s-0.867-0.549-1.586-0.549
		c-0.957,0-1.656,0.26-2.097,0.78c-0.438,0.521-0.66,1.373-0.66,2.558v4.756h-1.377V49.734h1.377v3.91
		c0,0.47-0.021,0.859-0.065,1.17h0.084c0.271-0.438,0.656-0.782,1.156-1.035c0.502-0.25,1.072-0.377,1.715-0.377
		c1.113,0,1.947,0.265,2.502,0.793c0.558,0.529,0.836,1.369,0.836,2.52v5.936H207.9z"/>
	<path fill="#FFFFFF" d="M215.953,62.816c-1.346,0-2.406-0.41-3.184-1.229c-0.778-0.819-1.166-1.956-1.166-3.412
		c0-1.466,0.359-2.631,1.082-3.495c0.723-0.863,1.692-1.295,2.91-1.295c1.141,0,2.041,0.375,2.705,1.125s0.996,1.739,0.996,2.969
		v0.871h-6.268c0.027,1.068,0.298,1.879,0.81,2.433c0.513,0.553,1.231,0.829,2.162,0.829c0.979,0,1.948-0.204,2.906-0.613v1.229
		c-0.487,0.211-0.948,0.361-1.384,0.453C217.092,62.771,216.566,62.816,215.953,62.816z M215.579,54.54
		c-0.729,0-1.313,0.237-1.747,0.714c-0.436,0.477-0.689,1.135-0.768,1.977h4.756c0-0.869-0.193-1.535-0.582-1.996
		C216.852,54.771,216.299,54.54,215.579,54.54z"/>
	<path fill="#FFFFFF" d="M231.467,51.602c-1.334,0-2.387,0.444-3.158,1.332c-0.771,0.89-1.158,2.104-1.158,3.648
		c0,1.588,0.373,2.814,1.117,3.682c0.744,0.866,1.805,1.299,3.184,1.299c0.847,0,1.813-0.151,2.896-0.457v1.237
		c-0.842,0.315-1.879,0.474-3.113,0.474c-1.787,0-3.166-0.543-4.137-1.627c-0.973-1.084-1.457-2.627-1.457-4.625
		c0-1.25,0.232-2.346,0.7-3.287c0.468-0.94,1.144-1.666,2.025-2.174c0.883-0.51,1.922-0.765,3.116-0.765
		c1.272,0,2.387,0.231,3.338,0.697l-0.598,1.212C233.305,51.816,232.385,51.602,231.467,51.602z"/>
	<path fill="#FFFFFF" d="M240.73,62.65h-1.412V51.768h-3.842v-1.252h9.098v1.252h-3.844V62.65L240.73,62.65z"/>
	<path fill="#FFFFFF" d="M247.811,57.604v5.047h-1.41V50.514h3.328c1.488,0,2.588,0.285,3.301,0.855
		c0.711,0.57,1.066,1.428,1.066,2.572c0,1.605-0.813,2.689-2.441,3.254l3.296,5.455h-1.668l-2.938-5.047H247.811z M247.811,56.391
		h1.936c0.996,0,1.727-0.197,2.191-0.593s0.696-0.989,0.696-1.78c0-0.803-0.235-1.382-0.71-1.735
		c-0.473-0.354-1.232-0.531-2.277-0.531h-1.836V56.391L247.811,56.391z"/>
	<path fill="#FFFFFF" d="M256.908,62.65V50.514h1.412v10.857h5.354v1.277h-6.766V62.65z"/>
	<path fill="#FFFFFF" d="M271.997,57.993c0.238-0.337,0.602-0.78,1.088-1.328l2.938-3.113h1.636l-3.686,3.876l3.941,5.221h-1.668
		l-3.213-4.299l-1.037,0.896v3.403h-1.36V49.734h1.36v6.848c0,0.304-0.021,0.775-0.065,1.411H271.997z"/>
	<path fill="#FFFFFF" d="M283.401,62.816c-1.344,0-2.405-0.41-3.183-1.229c-0.778-0.819-1.167-1.956-1.167-3.412
		c0-1.466,0.36-2.631,1.084-3.495c0.722-0.863,1.69-1.295,2.908-1.295c1.141,0,2.042,0.375,2.706,1.125s0.996,1.739,0.996,2.969
		v0.871h-6.268c0.027,1.068,0.298,1.879,0.81,2.433c0.513,0.553,1.233,0.829,2.163,0.829c0.979,0,1.947-0.204,2.904-0.613v1.229
		c-0.486,0.211-0.947,0.361-1.382,0.453C284.54,62.771,284.017,62.816,283.401,62.816z M283.028,54.54
		c-0.73,0-1.313,0.237-1.747,0.714s-0.689,1.135-0.769,1.977h4.757c0-0.869-0.193-1.535-0.581-1.996
		C284.301,54.771,283.748,54.54,283.028,54.54z"/>
	<path fill="#FFFFFF" d="M287.652,53.552h1.478l1.992,5.188c0.438,1.184,0.708,2.039,0.813,2.564h0.065
		c0.072-0.281,0.224-0.765,0.452-1.449c0.229-0.683,0.981-2.785,2.254-6.304h1.479l-3.909,10.359
		c-0.388,1.024-0.84,1.75-1.357,2.179c-0.518,0.43-1.151,0.643-1.904,0.643c-0.421,0-0.836-0.047-1.245-0.141v-1.104
		c0.305,0.066,0.645,0.1,1.021,0.1c0.945,0,1.621-0.531,2.025-1.594l0.506-1.295L287.652,53.552z"/>
	<path fill="#FFFFFF" d="M305.018,61.68c0.243,0,0.479-0.019,0.706-0.055c0.227-0.036,0.405-0.074,0.539-0.111v1.053
		c-0.149,0.072-0.369,0.132-0.66,0.179c-0.29,0.047-0.552,0.071-0.784,0.071c-1.76,0-2.64-0.928-2.64-2.781v-5.412h-1.304v-0.664
		l1.304-0.573l0.581-1.942h0.797v2.108h2.64v1.071h-2.64v5.354c0,0.549,0.13,0.969,0.39,1.263
		C304.207,61.532,304.563,61.68,305.018,61.68z"/>
	<path fill="#FFFFFF" d="M315.509,62.65l-1.669-5.338c-0.104-0.326-0.302-1.067-0.59-2.225h-0.065
		c-0.222,0.969-0.414,1.715-0.58,2.241l-1.719,5.321h-1.595l-2.481-9.099h1.444c0.587,2.286,1.033,4.026,1.341,5.222
		c0.308,1.194,0.482,2,0.526,2.416h0.066c0.061-0.315,0.159-0.725,0.295-1.225c0.136-0.501,0.253-0.898,0.353-1.191l1.669-5.221
		h1.494l1.627,5.221c0.311,0.953,0.521,1.752,0.632,2.399h0.065c0.021-0.198,0.081-0.506,0.178-0.921
		c0.098-0.415,0.675-2.648,1.73-6.699h1.428l-2.515,9.098H315.509L315.509,62.65z"/>
	<path fill="#FFFFFF" d="M321.188,51.087c0-0.315,0.077-0.546,0.231-0.692c0.155-0.146,0.35-0.221,0.581-0.221
		c0.223,0,0.412,0.075,0.572,0.225c0.161,0.148,0.241,0.379,0.241,0.688s-0.08,0.541-0.241,0.692
		c-0.16,0.152-0.351,0.229-0.572,0.229c-0.231,0-0.426-0.076-0.581-0.229C321.265,51.628,321.188,51.396,321.188,51.087z
		 M322.682,62.65h-1.378v-9.099h1.378V62.65z"/>
	<path fill="#FFFFFF" d="M329.238,62.816c-1.317,0-2.337-0.405-3.059-1.217c-0.724-0.811-1.083-1.957-1.083-3.439
		c0-1.521,0.365-2.698,1.1-3.528s1.777-1.245,3.133-1.245c0.438,0,0.875,0.047,1.313,0.141c0.437,0.095,0.778,0.205,1.028,0.332
		l-0.424,1.17c-0.305-0.121-0.637-0.223-0.996-0.303c-0.358-0.08-0.678-0.119-0.955-0.119c-1.848,0-2.771,1.179-2.771,3.535
		c0,1.118,0.225,1.977,0.676,2.573s1.119,0.896,2.005,0.896c0.758,0,1.536-0.162,2.333-0.489v1.22
		C330.929,62.658,330.162,62.816,329.238,62.816z"/>
	<path fill="#FFFFFF" d="M337.54,62.816c-1.346,0-2.405-0.41-3.184-1.229s-1.166-1.956-1.166-3.412c0-1.466,0.36-2.631,1.083-3.495
		c0.722-0.863,1.691-1.295,2.909-1.295c1.14,0,2.042,0.375,2.706,1.125s0.996,1.739,0.996,2.969v0.871h-6.268
		c0.027,1.068,0.297,1.879,0.81,2.433c0.512,0.553,1.231,0.829,2.161,0.829c0.98,0,1.948-0.204,2.906-0.613v1.229
		c-0.486,0.211-0.948,0.361-1.383,0.453C338.678,62.771,338.153,62.816,337.54,62.816z M337.166,54.54
		c-0.729,0-1.313,0.237-1.747,0.714c-0.434,0.477-0.689,1.135-0.768,1.977h4.756c0-0.869-0.193-1.535-0.581-1.996
		C338.438,54.771,337.886,54.54,337.166,54.54z"/>
</g>
<g>
	<line fill="none" stroke="#FFFFFF" stroke-miterlimit="10" x1="29.934" y1="39.842" x2="43" y2="52.908"/>
	<line fill="none" stroke="#FFFFFF" stroke-miterlimit="10" x1="43" y1="39.842" x2="29.934" y2="52.908"/>
</g>
<g>
	<path fill="#FFFFFF" d="M22.071,54.833H11.349v-1.031l4.559-4.758c1.281-1.328,2.18-2.344,2.695-3.047s0.895-1.375,1.137-2.016
		c0.242-0.641,0.363-1.313,0.363-2.016c0-1.023-0.336-1.855-1.008-2.496c-0.672-0.641-1.543-0.961-2.613-0.961
		c-1.43,0-2.797,0.52-4.102,1.559l-0.633-0.809c1.43-1.203,3.016-1.805,4.758-1.805c1.492,0,2.666,0.398,3.521,1.195
		s1.283,1.895,1.283,3.293c0,1.133-0.287,2.229-0.861,3.287c-0.574,1.058-1.623,2.365-3.146,3.92l-4.395,4.512v0.047h9.164V54.833
		L22.071,54.833z"/>
</g>
<path fill="none" stroke="#FFFFFF" stroke-width="2" stroke-miterlimit="10" d="M158,66c0,4.418-3.582,8-8,8H62
	c-4.418,0-8-3.582-8-8V25c0-4.418,3.582-8,8-8h88c4.418,0,8,3.582,8,8V66z"/>
<g>
	<g>
		<path fill="#FFFFFF" d="M65.71,58.852c-0.863,0-1.544,0.287-2.043,0.861c-0.5,0.575-0.75,1.361-0.75,2.361
			c0,1.027,0.241,1.82,0.722,2.382c0.482,0.562,1.168,0.841,2.06,0.841c0.548,0,1.173-0.099,1.875-0.296v0.8
			c-0.544,0.205-1.216,0.307-2.014,0.307c-1.157,0-2.049-0.351-2.677-1.053c-0.629-0.701-0.943-1.699-0.943-2.992
			c0-0.809,0.151-1.518,0.454-2.127c0.303-0.607,0.74-1.076,1.311-1.406c0.571-0.329,1.244-0.493,2.017-0.493
			c0.824,0,1.543,0.149,2.159,0.45l-0.387,0.783C66.899,58.99,66.305,58.852,65.71,58.852z"/>
		<path fill="#FFFFFF" d="M71.705,66h-0.913v-7.041h-2.487v-0.813h5.887v0.813h-2.487V66z"/>
		<path fill="#FFFFFF" d="M76.286,62.734V66h-0.913v-7.854h2.154c0.963,0,1.675,0.186,2.135,0.555c0.46,0.367,0.69,0.924,0.69,1.664
			c0,1.039-0.526,1.74-1.579,2.105L80.905,66h-1.08l-1.901-3.266H76.286z M76.286,61.95h1.251c0.645,0,1.117-0.128,1.418-0.384
			c0.301-0.256,0.451-0.642,0.451-1.152c0-0.52-0.153-0.895-0.459-1.123c-0.306-0.229-0.797-0.344-1.474-0.344h-1.187V61.95z"/>
		<path fill="#FFFFFF" d="M82.173,66v-7.854h0.913v7.025h3.464V66H82.173z"/>
	</g>
</g>
</svg>
