<?xml version="1.0" encoding="utf-8"?>
<!-- Generator: Adobe Illustrator 16.0.0, SVG Export Plug-In . SVG Version: 6.00 Build 0)  -->
<!DOCTYPE svg PUBLIC "-//W3C//DTD SVG 1.1//EN" "http://www.w3.org/Graphics/SVG/1.1/DTD/svg11.dtd">
<svg version="1.1" id="Layer_1" xmlns="http://www.w3.org/2000/svg" xmlns:xlink="http://www.w3.org/1999/xlink" x="0px" y="0px"
	 width="42px" height="42px" viewBox="0 0 42 42" enable-background="new 0 0 42 42" xml:space="preserve">
<path fill="none" d="M14.381,23.291c0.218,0.447,0.192,0.375,1.592,5.625c0.102,0.4-1.03-5.607-1.03-5.607
	S14.563,23.387,14.381,23.291z"/>
<path fill="none" d="M11.167,13.842l0.203,0.546c0,0,1.864,0.451,3.183-0.913C14.552,13.476,12.544,14.522,11.167,13.842z"/>
<path d="M33.555,34.6l-6.527-17.802c0,0-0.904-0.155-1.545,0.049l-5.943,18.147l-0.045,0.162c-1.683-8.852-2.164-11.482-2.38-13.624
	c-0.398,0.53-2.611,1.534-3.742,0.823c0.82,2.912,1.634,5.89,4.512,18.674l0.025-0.049l-0.016,0.06
	c0.002,0.008,0.005,0.019,0.007,0.021c0,0,0.957,0.051,1.277-0.053l6.236-18.916l7.019,18.834c0,0,0.855,0.104,1.217-0.02
	c0,0,3.586-17.43,4.004-19.042c0,0,0.656-3.175,2.439-3.387c-0.002,0,0.288-1.094,0.238-1.506c0,0-4.15,0.101-6.563,0
	c0,0,0.021,1.219,0.235,1.506c0,0,1.583,0.234,1.896,1.348c0,0,0.277,0.694-0.08,2.733C35.814,22.561,33.794,33.619,33.555,34.6z
	 M15.974,28.916c-1.452-5.006-1.593-5.119-1.74-5.625c0.181,0.096,0.71,0.018,0.71,0.018S16.075,29.316,15.974,28.916z"/>
<path d="M13.018,11.943c-1.289,0.359-2.101,0.931-2.37,1.695c-0.002,0.132,2.612,8.254,2.612,8.254
	c1.074,0.516,2.79,0.18,3.723-0.813c0,0-1.089-8.636-1.123-8.731C15.354,11.816,13.847,11.713,13.018,11.943z M11.438,14.766
	l-0.271-0.798c1.377,0.68,3.386-0.49,3.386-0.49C13.37,15.047,11.438,14.766,11.438,14.766z"/>
<polygon fill="#40BBE1" points="6.518,15.77 7.368,11.1 11.879,9.997 7.319,9.125 6.241,4.505 5.391,9.176 0.878,10.281 
	5.439,11.149 "/>
<polygon fill="#40BBE1" points="3.2,7.465 3.827,7.747 3.365,7.228 3.642,6.584 3.134,7.057 2.506,6.775 2.968,7.296 2.693,7.936 
	"/>
<polygon fill="#40BBE1" points="9.189,7.773 9.844,7.792 9.251,7.501 9.271,6.83 8.987,7.435 8.332,7.417 8.924,7.707 8.906,8.378 
	"/>
<polygon fill="#FFBF13" points="17.791,9.968 17.136,9.949 17.727,10.239 17.708,10.911 17.991,10.306 18.647,10.325 18.055,10.033 
	18.074,9.361 "/>
<polygon fill="#BF60A2" points="9.965,5.906 13.049,6.494 13.779,9.618 14.354,6.458 17.405,5.712 14.32,5.124 13.592,2 
	13.015,5.158 "/>
<polygon fill="#BF60A2" points="15.387,7.917 14.532,7.695 15.225,8.254 15.007,9.128 15.553,8.419 16.406,8.642 15.716,8.084 
	15.932,7.209 "/>
<polygon fill="#FFBF13" points="19.209,12.37 19.787,14.848 20.242,12.342 22.661,11.752 20.215,11.285 19.639,8.81 19.183,11.31 
	16.763,11.903 "/>
</svg>
