<svg xmlns="http://www.w3.org/2000/svg" width="100" height="100"><g fill="none" fill-rule="evenodd"><path fill="#AAA" fill-opacity=".3" d="M82.5 52.5h-24a3 3 0 1 1 0-6h24a3 3 0 1 1 0 6m-3 24h-18a4 4 0 0 1-4-4v-20h26v20a4 4 0 0 1-4 4"/><path fill="#9BD96F" d="M68.513 50.5h-42a3 3 0 0 1-3-3v-2a3 3 0 0 1 3-3h42a3 3 0 0 1 3 3v2a3 3 0 0 1-3 3m-5 26h-32a4 4 0 0 1-4-4v-22h40v22a4 4 0 0 1-4 4"/><path fill="#6FBF5C" d="M27.513 56.5h40v-6h-40z"/><path fill="#5A9C4B" d="M57.513 40.5h-4v-4c0-2.206 1.794-4 4-4s4 1.794 4 4-1.794 4-4 4zm-16 0h-4c-2.206 0-4-1.794-4-4s1.794-4 4-4 4 1.794 4 4v4zm16-12a8 8 0 0 0-8 8v4h-4v-4a8 8 0 1 0-8 8h6v32h8v-32h6a8 8 0 0 0 0-16z"/><path fill="#5A9C4B" d="M33.513 56.5h4v-14h-4z"/><path fill="#AAA" fill-opacity=".6" d="M69.514 29a1.5 1.5 0 0 1-.671-2.842l6.007-3a1.5 1.5 0 0 1 1.34 2.683l-6.007 3a1.484 1.484 0 0 1-.67.16"/><path stroke="#AAA" stroke-linecap="round" stroke-opacity=".6" stroke-width="3" d="M72.516 36h7.01m-54.013-8.5l-6.008-3M22.509 36h-7.01"/><path fill="#FFF" d="M38.5 68.5h-6a1 1 0 0 1-1-1v-10a1 1 0 0 1 1-1h6a1 1 0 0 1 1 1v10a1 1 0 0 1-1 1"/></g></svg>