<svg width="100" height="100" xmlns="http://www.w3.org/2000/svg"><g fill="none" fill-rule="evenodd"><path d="M40 24a4 4 0 0 0-4-4H10a4 4 0 0 0-4 4v2.019h34V24z" fill-opacity=".6" fill="#AAA"/><path d="M6 26.019V42a4 4 0 0 0 4 4h26a4 4 0 0 0 4-4V26.019H6z" fill-opacity=".3" fill="#AAA"/><path d="M18.5 75.5V36c0-.827.673-1.5 1.5-1.5h56c.827 0 1.5.673 1.5 1.5v39.5h-59z" fill="#FFF"/><path d="M76 32H20a4 4 0 0 0-4 4v42h64V36a4 4 0 0 0-4-4zM21 73h54V37H21v36z" fill="#357DB6"/><path fill="#4495D4" d="M10 76h76v-6H10z"/><path d="M80.343 80H15.657a4 4 0 0 1-2.83-1.171L10 76h76l-2.828 2.829A4 4 0 0 1 80.342 80" fill="#357DB6"/><path d="M36 63.802a13.836 13.836 0 0 1-8-12.592v-3.572a6.03 6.03 0 0 0 3.657-3.657h8.686A6.03 6.03 0 0 0 44 47.638v3.572a13.836 13.836 0 0 1-8 12.592" fill="#6ACCF2"/><path d="M42 41.981H30a4 4 0 0 1-4 4v5.229c0 6.505 3.96 12.355 10 14.771 6.04-2.416 10-8.266 10-14.771v-5.229a4 4 0 0 1-4-4m-2.927 4A8.06 8.06 0 0 0 42 48.907v2.303c0 4.342-2.309 8.245-6 10.342-3.691-2.097-6-6-6-10.342v-2.303a8.06 8.06 0 0 0 2.927-2.926h6.146" fill="#40ABD4"/><path d="M73 45.981H51a1 1 0 0 1-1-1v-2a1 1 0 0 1 1-1h22a1 1 0 0 1 1 1v2a1 1 0 0 1-1 1M73 53.981H51a1 1 0 0 1-1-1v-2a1 1 0 0 1 1-1h22a1 1 0 0 1 1 1v2a1 1 0 0 1-1 1M61 61.981H51a1 1 0 0 1-1-1v-2a1 1 0 0 1 1-1h10a1 1 0 0 1 1 1v2a1 1 0 0 1-1 1" fill="silver"/><path d="M90 61.981H72a4 4 0 0 1-4-4v-28A3.984 3.984 0 0 1 72 26h18c2.209 0 4 1.772 4 3.981v28a4 4 0 0 1-4 4" fill="#357DB6"/><path d="M72 55.981c-1.104 0-2-.897-2-2V26c0-1.103.896-2 2-2h18c1.104 0 2 .897 2 2v27.981c0 1.103-.896 2-2 2H72z" fill="#FFF"/><path d="M74 24v2l.895 1.789A3.999 3.999 0 0 0 78.472 30h5.056c1.515 0 2.9-.856 3.577-2.211L88 26v-2H74z" fill="#357DB6"/><path d="M90 22H72a4 4 0 0 0-4 4v27.981a4 4 0 0 0 4 4h18a4 4 0 0 0 4-4V26a4 4 0 0 0-4-4zM72 54h18V26H72v28z" fill="#4495D4"/><path d="M85 38h-8a1 1 0 0 1-1-1v-2a1 1 0 0 1 1-1h8a1 1 0 0 1 1 1v2a1 1 0 0 1-1 1M85 46h-8a1 1 0 0 1-1-1v-2a1 1 0 0 1 1-1h8a1 1 0 0 1 1 1v2a1 1 0 0 1-1 1" fill="silver"/></g></svg>