<?xml version="1.0" encoding="utf-8"?>
<!-- Generator: Adobe Illustrator 23.0.3, SVG Export Plug-In . SVG Version: 6.00 Build 0)  -->
<svg version="1.1" id="Calque_1" xmlns="http://www.w3.org/2000/svg" xmlns:xlink="http://www.w3.org/1999/xlink" x="0px" y="0px"
	 viewBox="0 0 70.7 32" style="enable-background:new 0 0 70.7 32;" xml:space="preserve">
<style type="text/css">
	.st0{fill:#FFFFFF;}
</style>
<title>Logo Eduscol</title>
<path class="st0" d="M50.8,25.4c0-1,0.2-2,0.6-3c0.7-1.7,2.3-2.9,4.1-3c0.7-0.1,1.3,0,2,0.1c2,0.5,3.6,2.4,3.7,4.6
	c0.1,1.3,0.1,2.5-0.4,3.7c-0.6,1.9-2.4,3.2-4.3,3.3c-0.7,0.1-1.3,0-2-0.1c-2.1-0.5-3.2-2.1-3.7-4.3C50.9,26.3,50.8,25.9,50.8,25.4z
	 M58.8,25.2c-0.1-0.4-0.1-0.8-0.2-1.3c-0.2-1.2-1.2-2-2.3-2c-1.1-0.1-2.3,0.7-2.5,1.9c-0.4,1.3-0.4,2.6,0.1,3.8
	C54.2,28.4,55,29,56,29c0.9,0.1,1.8-0.4,2.3-1.2C58.7,27,58.9,26.1,58.8,25.2z M18.9,29.8c-1.3,2.1-4.7,1.8-6.2-0.2
	c-0.6-0.9-1.1-1.9-1.2-3.1c-0.3-1.7,0.1-3.5,1-4.9c1.2-1.8,3.4-2.5,5.1-1.6c0.5,0.3,0.9,0.7,1.3,1v-5.4c-0.1-0.5,0.3-1,0.8-1
	c0.1,0,0.1,0,0.1,0c0.4,0,0.8,0.3,0.8,0.7v15c0,0.4-0.4,0.8-0.8,0.8l0,0c-0.4,0.1-0.8-0.3-0.8-0.7v-0.1L18.9,29.8z M13.1,25.3
	c0,0.8,0.1,1.6,0.4,2.4c0.4,1,1.3,1.8,2.3,1.9c1.1,0.1,2.1-0.5,2.5-1.6c0.8-1.6,0.8-3.7,0-5.4C18,21.7,17,21,16,21.1
	c-1,0-1.9,0.5-2.4,1.5C13.3,23.5,13.2,24.4,13.1,25.3z M37,19.4c0.8-0.1,1.6,0.1,2.2,0.5c0.5,0.2,0.8,0.7,0.7,1.3c0,0.6-0.5,1-1.1,1
	l0,0c-0.3-0.1-0.6-0.1-0.9-0.2l-1.2-0.2c-0.2,0-0.5,0.1-0.7,0.1c-0.3,0.1-0.4,0.4-0.4,0.7s0.2,0.6,0.5,0.7l1.7,0.7
	c0.4,0.1,0.8,0.3,1.3,0.5c1.1,0.6,1.6,1.8,1.5,3.1c-0.1,2.1-1.3,3.2-3.4,3.5c-1.1,0.1-2.1,0-3-0.4c-0.4-0.1-0.6-0.3-0.8-0.6
	c-0.4-0.4-0.5-1.1-0.1-1.6c0.3-0.4,0.8-0.7,1.3-0.4c0.6,0.1,1.1,0.4,1.6,0.5c0.4,0.1,0.8,0.1,1.3,0c0.4-0.1,0.7-0.4,0.7-0.9
	c0.1-0.4-0.1-0.8-0.6-1c-0.5-0.2-1.1-0.4-1.6-0.6c-0.4-0.1-0.7-0.2-1.1-0.4c-1.4-0.6-1.9-1.8-1.7-3.4c0.3-1.7,1.7-3,3.4-3
	C36.7,19.4,36.9,19.4,37,19.4z M46.9,31.4c-2.7,0.1-4.9-2-5.2-4.9c-0.2-1.3-0.1-2.8,0.5-4c0.8-1.8,2.4-2.9,4.2-3
	c0.8-0.1,1.6,0,2.3,0.2c0.4,0.1,0.6,0.3,0.9,0.5c0.5,0.3,0.6,1,0.4,1.5c-0.2,0.6-0.8,0.9-1.3,0.7c-0.4-0.1-0.8-0.3-1.1-0.4
	c-1.3-0.4-2.8,0.3-3.2,1.7c-0.4,1-0.4,2.2,0,3.2c0.4,1.3,1.8,2.1,3,1.7c0.4-0.1,0.8-0.2,1.2-0.4c0.5-0.2,1.1-0.1,1.3,0.4
	c0.4,0.5,0.3,1.3-0.2,1.6c-0.4,0.3-0.7,0.5-1.1,0.7c-0.2,0.1-0.5,0.1-0.7,0.2C47.6,31.3,47.2,31.3,46.9,31.4z M2.5,26.2
	c-0.1,1.6,0.8,3,2.3,3.4c1.2,0.3,2.5,0,3.5-0.7l0.6-0.4c0.4-0.2,0.6-0.2,0.8,0c0.2,0.2,0.3,0.6,0.1,0.9c-0.1,0.2-0.4,0.4-0.6,0.7
	c-1.5,1.2-3.5,1.6-5.3,1c-1.1-0.3-2-1.1-2.5-2.2c-1.1-2.1-1.1-4.6,0.1-6.6c0.8-1.6,2.4-2.6,4.1-2.5c1.7,0,3.2,1,3.9,2.6
	c0.4,0.9,0.6,1.9,0.6,2.8c0,0.7-0.2,1-1,1H3.1C2.9,26.1,2.7,26.1,2.5,26.2z M8.4,24.7c0.1-2.1-1.3-3.6-3-3.5
	c-1.6,0.1-2.9,1.5-2.8,3.1c0,0.1,0,0.2,0,0.4C2.5,24.7,8.4,24.7,8.4,24.7z M23.1,24v-3.4c-0.1-0.4,0.2-0.8,0.6-1
	c0.4-0.1,0.9,0.1,1.1,0.5c0,0,0,0,0,0.1c0.1,0.2,0.1,0.4,0.1,0.6v6.3c0.1,1.9,1.3,2.6,2.9,2.5c1.2-0.1,2.1-1.2,2-2.5
	c0.1-0.7,0-1.6,0-2.3v-4.1c-0.1-0.4,0.2-0.9,0.6-1c0.4-0.1,0.8,0,1,0.4c0,0.1,0.1,0.1,0.1,0.2c0.1,0.2,0.1,0.4,0.1,0.6v5.8
	c0,0.4,0,0.8-0.1,1.2c-0.2,1.6-1.3,2.8-2.7,3.1c-1.1,0.4-2.3,0.3-3.4-0.2c-1.3-0.5-2.1-1.8-2.2-3.3C23.1,26.3,23,25.2,23.1,24z
	 M65,28.7h3c0.5,0,0.9,0.4,0.9,1c0.1,0.6-0.2,1.1-0.8,1.3l0,0C67.9,31,67.8,31,67.6,31h-3.5c-1,0-1.4-0.4-1.4-1.6v-8.8
	c0-0.7,0.5-1.1,1.1-1.1c0.6-0.1,1.1,0.4,1.2,1v0.1c0.1,0.2,0.1,0.4,0,0.6V28.7z M6.8,15.2c0.4-0.1,0.7,0.2,0.8,0.6
	c0.1,0.4,0,0.6-0.3,0.9c-0.1,0.1-0.1,0.1-0.3,0.1L4.5,18c-0.3,0.1-0.6,0.1-0.8,0c-0.4-0.1-0.5-0.6-0.4-1c0.1-0.1,0.2-0.3,0.4-0.4
	c1-0.4,2-0.9,3-1.3C6.7,15.2,6.7,15.3,6.8,15.2z"/>
</svg>
