<?xml version="1.0" encoding="utf-8"?>
<!-- Generator: Adobe Illustrator 23.0.3, SVG Export Plug-In . SVG Version: 6.00 Build 0)  -->
<svg version="1.1"
	 id="Calque_1" xmlns:cc="http://creativecommons.org/ns#" xmlns:dc="http://purl.org/dc/elements/1.1/" xmlns:inkscape="http://www.inkscape.org/namespaces/inkscape" xmlns:rdf="http://www.w3.org/1999/02/22-rdf-syntax-ns#" xmlns:sodipodi="http://sodipodi.sourceforge.net/DTD/sodipodi-0.dtd" xmlns:svg="http://www.w3.org/2000/svg"
	 xmlns="http://www.w3.org/2000/svg" xmlns:xlink="http://www.w3.org/1999/xlink" x="0px" y="0px" viewBox="0 0 293 178.4"
	 style="enable-background:new 0 0 293 178.4;" xml:space="preserve">
<style type="text/css">
	.st0{fill:#B1B3B4;}
	.st1{fill:#CED0D0;}
	.st2{fill:#B2B4B5;}
	.st3{fill:#5B5B5D;}
	.st4{fill:#AFB1B2;}
	.st5{fill:#828284;}
	.st6{fill:#9A9B9D;}
	.st7{fill:#A8AAAB;}
	.st8{fill:#AEB0B1;}
	.st9{fill:#BEBEC0;}
	.st10{fill:#ABACAE;}
	.st11{fill:#5B5C5E;}
	.st12{fill:#AFB2B3;}
	.st13{fill:#EAEAEB;}
	.st14{fill:#FBFCFC;}
	.st15{fill:#FFFFFF;}
	.st16{fill:#FBFCFE;}
	.st17{fill:#5E5F61;}
	.st18{fill:#5E5E60;}
	.st19{fill:#ADAFB0;}
	.st20{fill:#AAABAD;}
	.st21{enable-background:new    ;}
</style>
<sodipodi:namedview  bordercolor="#666666" borderopacity="1" fit-margin-bottom="0" fit-margin-left="0" fit-margin-right="0" fit-margin-top="0" gridtolerance="10" guidetolerance="10" id="namedview11" inkscape:current-layer="Calque_1" inkscape:cx="-23.040766" inkscape:cy="46.536729" inkscape:pageopacity="0" inkscape:pageshadow="2" inkscape:window-height="1016" inkscape:window-maximized="1" inkscape:window-width="1869" inkscape:window-x="51" inkscape:window-y="27" inkscape:zoom="2.2718011" objecttolerance="10" pagecolor="#ffffff" showgrid="false">
	</sodipodi:namedview>
<title  id="title6">Logo Eduscol</title>
<path id="path10" inkscape:connector-curvature="0" class="st0" d="M226,101.7l-2.6,1.3v3.4c0,1.3-0.5,1.6-1.7,1.6c-1,0-2,0.1-3,0.5
	v0.8h-33.8v-4.6c-0.8-0.5-0.5-1.3-0.5-1.6V58.6c0.5-1.2,1-2.2,1.7-3.4c0.8-1.3,1.3-2.9,2.1-4.2c1.2-2,3-3.1,5.1-3.7
	c3-0.9,6-0.1,8.3,2.1c0.4,0.3,0.5,0.8,0.5,1.3v3.7c-0.4,0.8-0.5,1.6-0.5,2.5c-0.7,0-1.2,0.3-1.3,0.9c0,0.1,0,0.1,0,0.3
	c0,0.1-0.1,0.5-0.5,0.5l0,0c-0.8,0.8-0.5,1.6,0,2.9c0.5,0.5,0.5,0.8,0.8,1.3c0.8,0.8,1,2,0.5,2.9c0,0.7,0.1,1.2,0.5,1.6
	c1.3,1.2,2.5,2.5,3.4,4.2c1,0.5,2,0.5,3,0c0.8-0.8,2.1-1.3,3-2.1c0.8-0.8,1.3-0.8,2.1-0.5c1.3-0.8,2.1-1.6,3.4-2.5
	c0.5-0.5,0.8-0.5,1.7-0.5c0.8,0,1.3,0.5,2.1,0.5c-0.5,0.5-0.5,0.5-0.5,0.8c-0.5,1.3-1.3,2.1-1.3,3.4c-0.1,0.9-0.4,2.1-0.8,2.9h2.1
	c0.8,0,1.3,0,1.3,0.8l1.3,1.3c0.4,0.3,0.5,0.8,0.1,1.2l-0.1,0.1c-0.5,2.4-0.8,5-0.8,7.5c0,0.5,0,0.8,0.8,1.3c0.5,0.5,1,0.8,1.7,0.8
	c1.3,0.5,2.4,1.3,3,2.5v8l-0.5,0.5v2.5c0,0.1,0.1,0.5,0.5,0.5l0,0C226,100.5,226,100.9,226,101.7L226,101.7z"/>
<path id="path14" inkscape:connector-curvature="0" class="st1" d="M226,100.1l-0.5-0.5v-2.5c0-0.1,0.1-0.5,0.5-0.5l0,0V100.1z"/>
<path id="path16" inkscape:connector-curvature="0" class="st2" d="M80.6,108.8c-1.2-0.8-2.1-2-3-2.9c-0.8-0.7-1.3-1.4-1.3-2.5
	c-1.3-0.5-2.1,0.5-3,0.8c-1,0.8-2.1,1.2-3.4,0.8c0-1.2,0.7-2.1,1.7-2.5c1.8-0.7,3.3-2.2,3.4-4.2c0-0.5-0.1-0.9-0.5-1.3
	c1.4-0.9,2.5-2.4,2.6-4.2c0.4-1.3,0.5-2.5,0.5-3.7c0.4-3.7,1-7.3,2.1-10.9c0.5-0.8,0-2.1,0-2.9s0-1.3,0.5-1.6
	c1.4-1.4,3.4-2.2,5.6-2.5h2.5c0.8,0,1.7,0.5,2.6,0.5c1,0.3,2,0.5,3,0.5h1.7c0-0.5,0-0.5-0.5-0.8c-0.8-1.3-1.3-2.5-2.1-3.7
	c-0.8-1.3-0.8-1.3-1.7-1.3c-0.8,0-1.7-0.5-2.1-1.3h-0.7c-1.7,0-1.7-1.3-2.6-2.1c0-0.3,0.1-0.7,0.5-0.8h0.8c0.5,0.5,0.8,0.5,1.3,0.8
	c0.5-0.8-0.8-1.3,0-1.6c2.4,1.2,4.3,2.4,6,4.2c1.2,1.2,2.5,2.2,3.8,2.9c0-0.5,0.5-0.8,0.5-1.6s-0.5-0.5-0.5-0.8
	c0.8-1.3,2.1-2.1,3-3.4c0.8-0.7,1.7-1.3,2.6-1.6c0.5,0,0.8-0.5,1.7-0.5c0-0.7-0.1-1.2-0.5-1.6h-0.9c-0.8,0.5-1.3,0-2.1-0.5
	c-0.8-0.5-0.8-1.3-1.3-1.6c-0.5,0-1,0.1-1.3,0.5c0-2.1-0.5-3.9-1.3-5.9c0-0.7,0.1-1.2,0.5-1.6c1-0.9,2-1.7,3-2.5
	c2.1-1.4,4.6-1.3,6.3,0.1c0.4,0.3,0.8,0.5,1.3,0.5c1.7,0.5,2.1,1.3,2.1,2.5V53c0,1.4,0.5,2.8,1.3,3.7c0.5,0.8,1.3,1.3,1.3,2.1
	l0.5,0.5v44.5c-0.4,0.3-0.5,0.8-0.5,1.3v3.7H80.6z"/>
<path id="path18" inkscape:connector-curvature="0" class="st3" d="M80.6,108.8H114v-3.7c0-0.5-0.5-0.8,0.5-1.3V47.6
	c0-0.5-0.1-0.9-0.5-1.3l-1.3-1.3c-0.5-0.5-0.8-1.3-0.5-1.6c-0.5,0-0.8-0.5-0.8-1.3s0-0.8,0.5-0.8s0.8-0.5,2.1,0
	c0.4-0.8,0.1-1.7-0.5-2.5c-0.8-1.2-1.7-2.4-2.1-3.7c-0.8-1.2-1.3-2.4-1.7-3.7c-0.5-1.7,0.4-3.5,2.1-3.9c0.5-0.1,0.8-0.1,1.3-0.1h0.8
	v-0.5c-1.3-1.2-2.5-2.4-3.4-3.7c-0.8-0.5-0.8-0.8-0.5-1.6c0.8-2.2,2.1-4.2,3.8-5.9c3.3-3.5,7.2-6.5,11.5-8.8
	c5.2-2.5,10.9-4.2,16.8-5c3.7-0.5,7.2-0.7,10.9-0.7c9,0.7,17.7,3.5,25.3,8.3c3.4,2,6.4,4.6,8.5,8c0.8,1.3,1.3,2.9,2.1,4.2
	c-1.7,1.6-3,3.4-4.7,5h1.3c1.8-0.1,3.3,1.2,3.4,2.9c0,0.1,0,0.3,0,0.5c-0.1,1.7-0.7,3.5-1.7,5c-0.5,1.3-1,2.5-1.7,3.7
	c-0.5,0.8-0.5,1.3-0.8,2.1c0.8-0.5,1.7-0.8,2.6,0.5c0.8,1.3,0,1.6-0.8,2.5c0.5,0.8,0.5,1.3-0.5,2.1c-1.7,0.8-1.7,2.5-1.7,4.2V103
	c0,0.8-0.5,1.3,0.5,1.6v4.6h35.1c1.3,0,2.1,0.5,2.1,2.1H76.2c0-1.2,0.8-2.1,1.8-2.1c0.1,0,0.1,0,0.4,0
	C78.8,108.9,79.7,108.8,80.6,108.8L80.6,108.8z M176,28.5h-53.4v5.4c-0.5,0-0.5,0.5-0.8,0.5v68.8c0,0.8,0,1.6,0.8,1.6v4.6
	c2.6,0.5,52.1,0,53.4,0V105c1.3-0.5,0.8-1.3,0.8-2.1V34.8c-0.5,0-0.5-0.5-0.8-0.5V28.5z M112.2,21.8c0.8,0.8,1.7,2.1,2.6,2.9
	c0.4,1.2,1.4,1.7,2.6,1.6h65.1l1.3-1.3c0.8-0.8,1.7-2.1,2.6-2.9c0.8-0.8,0.5-0.8,0-1.6s-0.5-0.5-0.5-0.8c-1.7-2.9-4.1-5.2-6.9-7.1
	c-3.7-2.5-7.7-4.6-11.9-5.9l-8.5-2.5c-2.8-0.5-5.8-0.8-8.5-0.8c-2.5,0-5,0-7.2,0.5c-1.7,0.5-3.4,0.5-5.1,0.8c-3,0.8-5.8,1.7-8.5,2.9
	c-5.1,2-9.7,4.8-13.2,8.8C114,17.9,112.7,19.7,112.2,21.8L112.2,21.8z M117,48.9v55.4h2.5V48.9H117z M181.6,104.3V48.9H179v55.4
	H181.6z M117,34L117,34v12.2c0,0.5,0.5,0.5,0.8,0.5h0.8c1.3,0,1.3,0,1.3-1.3V33.7C119,33.7,117.9,34,117,34L117,34z M181.6,46.8v-13
	H179v10.9C179,47.2,179,47.2,181.6,46.8z M177.7,32.1h4.3c0.5,0,0.8-0.3,0.8-0.8v-2.5h-5.1V32.1z M115.7,32.1h4.3
	c0.8,0,0.8-0.5,0.8-0.8v-2.5h-5.1C115.7,28.8,115.7,32.1,115.7,32.1z M115.7,109.3h2.6c2.1,0,2.6-0.5,2.1-2.5c0-0.5-0.4-0.8-0.8-0.8
	h-4.3C115.5,107.1,115.7,108.1,115.7,109.3L115.7,109.3z M178.1,109.3h4.3c0.5,0,0.8-0.3,0.8-0.8v-2.1c0-0.5-0.4-0.8-0.8-0.8h-4.3
	v2.9C177.7,108.8,177.7,109.3,178.1,109.3L178.1,109.3z"/>
<path id="path20" inkscape:connector-curvature="0" class="st4" d="M176,28.5v5.4c0.5,0,0.5,0.5,0.8,0.5v68.4c0,0.8,0.5,1.6-0.8,2.1
	v4.2c-1.3,0.5-51,0.5-53.4,0v-4.6c-1.3-0.5-0.8-0.8-0.8-1.6V34c0.5,0,0.5-0.5,0.8-0.5v-5.4C140.5,28.5,157.9,28.5,176,28.5L176,28.5
	z M171.3,32.9h-43.6c-0.5,3.4,0,70,0,70.9h43.6V32.9z"/>
<path id="path22" inkscape:connector-curvature="0" class="st5" d="M112.2,21.8c0.8-2.1,2-3.9,3.4-5.9c3.8-3.7,8.4-6.7,13.4-8.8
	c2.8-1.3,5.6-2.2,8.5-2.9c1.7-0.5,3.4-0.8,5.1-0.8c2.5-0.3,5-0.5,7.2-0.5c3,0,5.8,0.3,8.5,0.8c3,0.3,5.9,1.3,8.5,2.5
	c4.3,1.6,8.3,3.5,11.9,5.9c2.6,2,5.1,4.3,6.9,7.1c0,0.5,0.5,0.5,0.5,0.8c0,0.5,0.5,0.8,0,1.6c-0.5,0.8-1.7,2.1-2.6,2.9l-1.3,1.3h-65
	c-1,0.1-2.1-0.3-2.6-1.3C113.9,23.9,113,22.8,112.2,21.8L112.2,21.8z M121.6,21.3h56.1c-0.4-0.3-0.8-0.8-0.8-1.2
	c-1.8-2.5-4.1-4.6-6.9-6.3c-3.3-2.1-6.9-3.8-10.6-5c-3-0.9-6.3-1.4-9.3-1.3c-1.8,0-3.8,0-5.6,0.5c-3.3,0.8-6.7,1.7-9.8,2.9
	c-4.1,1.6-7.9,4.2-10.6,7.5C122.5,18.9,122,20.2,121.6,21.3L121.6,21.3z"/>
<path id="path24" inkscape:connector-curvature="0" class="st6" d="M117,48.9h2.5v55.4h-2.6L117,48.9L117,48.9z M181.6,104.3H179
	V48.9h2.6V104.3z"/>
<path id="path26" inkscape:connector-curvature="0" class="st7" d="M117,34h2.5v11.7c0,1.3,0,1.3-1.3,1.3h-0.8
	c-0.5,0-0.5-0.5-0.8-0.5V46C116.8,41.8,117,37.9,117,34L117,34z"/>
<path id="path28" inkscape:connector-curvature="0" class="st8" d="M181.6,46.8c-2.6,0.5-2.6,0.5-2.6-2.1V33.8h2.6V46.8z"/>
<path id="path30" inkscape:connector-curvature="0" class="st9" d="M177.7,32.1v-3.3c0.8-0.5,1.7,0,2.6,0h2.6v2.5
	c0,0.5-0.4,0.8-0.8,0.8H177.7z M115.7,32.1v-3.3h5.1v2.5c0,0.8-0.5,0.8-0.8,0.8H115.7z"/>
<path id="path32" inkscape:connector-curvature="0" class="st10" d="M115.7,109.3v-3.4h4.3c0.5,0,0.8,0.3,0.8,0.8
	c0.5,2.1,0,2.5-2.1,2.5L115.7,109.3L115.7,109.3z M178.1,109.3v-3.4h4.3c0.5,0,0.8,0.3,0.8,0.8v2.1c0,0.5-0.4,0.8-0.8,0.8
	C181,109.4,179.6,109.3,178.1,109.3L178.1,109.3z"/>
<path id="path34" inkscape:connector-curvature="0" class="st11" d="M171.3,32.9v70.9h-43.6c-0.5-0.8-0.5-67.5,0-70.9H171.3z
	 M155.8,97.1v-57c3.4-1.6,6.9-3.4,10.6-5h-34.1l10.3,5v57c-3.4,1.6-6.9,2.9-10.3,4.6h33.8C162.5,100.5,159.2,98.8,155.8,97.1z
	 M129.7,57.6v22.9h0.5c3.4-1.3,7.2-2.1,11.1-3.4V60.6C137.5,59.8,133.5,58.9,129.7,57.6L129.7,57.6z M157.6,77.6
	c3.8,1.3,7.2,2.1,11.1,3.4c0.5-3.7,0-22,0-23.3c-3.8,1.3-7.2,2.1-11.1,3.4V77.6z M129.2,35.9v19.6c3.8,1.3,7.7,2.1,11.5,3.4v-18
	C136.8,39.6,133,37.9,129.2,35.9z M169.2,36.3c-2.1,0.8-3.8,1.6-5.6,2.5c-1.7,0.8-3.8,1.6-5.6,2.5c-0.5,5,0,16.6,0,17.8
	c3.8-1.3,7.2-2.1,11.1-3.4V36.3H169.2z M129.2,82.6v17.8c3.9-1.3,7.9-2.8,11.5-4.6V79.3C136.9,80.5,133.1,81.3,129.2,82.6z
	 M157.6,79.3v16.6c3.8,1.6,7.2,3.4,11.1,4.6V82.6C165.4,81.8,161.4,80.5,157.6,79.3z"/>
<path id="path36" inkscape:connector-curvature="0" class="st12" d="M121.6,21.3c0.5-1.3,1.2-2.4,2.1-3.4c3-3.1,6.7-5.8,10.6-7.5
	c3.3-1.3,6.5-2.2,9.8-2.9c1.8-0.3,3.8-0.5,5.6-0.5c3.1,0,6.4,0.3,9.3,1.3c3.9,0.9,7.6,2.8,10.6,5c2.6,2,5,4.2,6.9,6.7
	c0.5,0.5,0.5,0.8,0.8,1.3C177.4,21.3,121.6,21.3,121.6,21.3z M149.4,19.7h1.3c3.1-0.9,4.7-4.3,3.8-7.2c0-0.1-0.1-0.5-0.4-0.7
	c-0.8-1.3-3.4-1.6-4.3-0.5c-0.7,0.9-1,2.2-0.8,3.4c0.5,1.6,1.7,2.1,3.4,1.6c0.4,0,0.7-0.1,0.8-0.5C152.4,17.5,151.1,18.8,149.4,19.7
	L149.4,19.7z M155.5,17.2c1.3,0,2.6,0.5,3.4,0.5v2.5c1.3,0,1.3,0,1.3-0.8v-1.3c0.8-0.5,1.3-1.3,0.8-1.6h-1.3v-5.1h-0.5
	C157.8,13.1,156.5,15.2,155.5,17.2L155.5,17.2z M142.6,13.5c0.5-0.5,0.5-1.3,0.8-1.3c0.5,0,2.1-0.8,3,0c0,0.5-0.1,0.9-0.5,1.3
	l-1.3,2.5c-0.5,0.9-1,2-1.3,2.9c-0.5,1.3,0,1.6,1.3,1.3c0-0.8,0-1.7,0.5-2.5c0.5-1.3,0.8-2.5,1.3-4.2c0.7-0.8,0.8-2,0.5-2.9
	c-1.2,0-3,0.3-4.3,0.3C142.6,11.7,142.2,12.2,142.6,13.5L142.6,13.5z M140.9,19.2c-0.5-0.5-0.8-0.5-1.3-0.8v-7.5l-2.6,1.3v0.5h0.8
	V19c-0.1,0-0.5,0.1-0.5,0.5l0,0l-0.5,0.5C138.2,19.4,139.6,19.2,140.9,19.2L140.9,19.2z"/>
<path id="path38" inkscape:connector-curvature="0" class="st13" d="M155.8,97.1c3.4,1.6,6.9,2.9,10.6,4.6h-33.7
	c3.4-1.6,6.9-2.9,10.3-4.6v-57l-10.3-5H167c-3.8,1.6-7.2,3.4-10.6,5C155.8,59.3,155.8,78,155.8,97.1L155.8,97.1z"/>
<path id="path40" inkscape:connector-curvature="0" class="st14" d="M129.7,57.6c3.8,1.3,7.7,2.1,11.1,3.4v16.6
	c-3.8,1.3-7.2,2.1-11.1,3.4V58.1C129.2,58.1,129.2,58.1,129.7,57.6L129.7,57.6z"/>
<path id="path42" inkscape:connector-curvature="0" class="st15" d="M157.6,77.6V60.8c3.8-1.3,7.2-2.1,11.1-3.4
	c0.5,7.9,0.5,15.5,0,23.3C165.4,79.7,161.4,78.8,157.6,77.6z"/>
<path id="path44" inkscape:connector-curvature="0" class="st16" d="M129.2,35.9l11.5,5v17.8c-3.8-1.3-7.7-2.4-11.5-3.4V35.9z"/>
<path id="path46" inkscape:connector-curvature="0" class="st15" d="M169.2,36.3V56c-3.8,1.3-7.2,2.1-11.1,3.4
	c-0.5-5.9-0.5-11.9,0-17.8l5.1-2.5C165.4,38,166.9,37.3,169.2,36.3z"/>
<path id="path48" inkscape:connector-curvature="0" class="st14" d="M129.2,82.6c3.8-1.3,7.7-2.1,11.5-3.4v16.6
	c-3.7,2-7.6,3.5-11.5,4.7V82.6z"/>
<path id="path50" inkscape:connector-curvature="0" class="st15" d="M157.6,79.3c3.8,1.3,7.7,2.1,11.1,3.4v17.8
	c-3.8-1.6-7.7-3.4-11.1-4.6V79.3z"/>
<path id="path52" inkscape:connector-curvature="0" class="st17" d="M149.4,19.7c1.3-0.8,3-1.6,3.4-3.7c-0.5,0-0.5,0-0.8,0.5
	c-1.3,0.5-2.8-0.1-3.3-1.4c0-0.1,0-0.1-0.1-0.3c-0.4-1.2,0-2.4,0.8-3.4c0.8-1.3,3.4-0.8,4.3,0.5c1.4,2.9,0.1,6.3-2.6,7.6
	c-0.1,0.1-0.5,0.1-0.7,0.3C150.3,19.2,149.9,19.2,149.4,19.7L149.4,19.7z M151.1,10.9c-0.5,0.5-1.3,0.8-0.8,1.6c0,0.8,0,1.7,0.5,2.5
	c0.8,0.8,1.7,0.8,2.1,0c0.8-1.3,0.5-3-1-3.8C151.7,11.1,151.3,11.1,151.1,10.9L151.1,10.9z"/>
<path id="path54" inkscape:connector-curvature="0" class="st11" d="M155.5,17.2c1.2-2.2,2.6-4.3,4.7-5.9h0.5v5h1.3
	c0.5,0.5,0,1.3-0.8,1.6v1.3c0,0.8,0,0.8-1.3,0.8v-2.5C158.3,17.3,156.9,17.2,155.5,17.2L155.5,17.2z M158.8,13
	c-0.8,1.3-1.7,2.1-2.1,2.9h2.1V13z"/>
<path id="path56" inkscape:connector-curvature="0" class="st18" d="M142.6,13.5c-0.5-0.8,0-1.6,0-2.5c1.3,0,3-0.5,4.3-0.5
	c0.4,0.9,0.1,2.1-0.5,2.9c-0.5,1.3-0.8,2.5-1.3,4.2c0,0.8,0,1.7-0.5,2.5c-1.7,0.5-1.7,0-1.3-1.3c0.5-1.3,0.5-2.1,1.3-2.9l1.3-2.5
	c0-0.5,0.5-0.8,0.5-1.3c-1-0.1-2-0.1-3,0C143.1,12.2,143.1,13,142.6,13.5L142.6,13.5z"/>
<path id="path58" inkscape:connector-curvature="0" class="st11" d="M140.9,19.2h-3.4l0.5-0.5c0.1,0,0.5-0.1,0.5-0.5l0,0v-5.9h-1
	v-0.5l2.6-1.3V18C140.1,18.9,140.5,18.9,140.9,19.2L140.9,19.2z"/>
<path id="path60" inkscape:connector-curvature="0" class="st19" d="M151.1,10.9c1.7,0.8,2.6,2.5,1.7,3.7c-0.8,1.3-1.3,1.3-2.1,0
	c-0.4-0.8-0.5-1.6-0.5-2.5C150.3,11.7,150.7,11.4,151.1,10.9L151.1,10.9z"/>
<path id="path62" inkscape:connector-curvature="0" class="st20" d="M158.8,13v2.9h-2.1C157.6,15.1,157.9,13.8,158.8,13z"/>
<g class="st21">
	<path class="st15" d="M48.1,146.3H48l-7.7-12c-0.5-0.8-0.8-0.9-1.7-0.9h-6.1c-0.8,0-1,0.1-1,1.2v17.5h4.1c0.7-0.1,1-0.1,1.6-0.8
		l5.4-6h0.1V160h-0.1l-5.4-6c-0.6-0.6-0.8-0.8-1.6-0.8h-4v17.6c0,1,0.2,1.2,1,1.2h6.9c1,0,1.4-0.1,1.8-0.8l7.4-12.3h0.1v14.3H16.1
		V173l4-3.7c0.5-0.5,0.5-0.6,0.5-1.4v-30.5c0-0.8-0.1-0.9-0.5-1.4l-4-3.7v-0.1h32V146.3z"/>
	<path class="st15" d="M80.4,173.1l-20.6-31v21.3c0,0.9,0.1,1,0.7,1.8l6.1,7.8v0.1H51.8V173l6-7.8c0.7-0.8,0.8-1,0.8-1.9v-22
		c0-0.9-0.1-1.2-0.5-1.9l-6-7.2v-0.1h14.1l20.3,30.7V142c0-0.9-0.1-1-0.7-1.9l-6.1-7.8v-0.1h14.9v0.1l-6,7.8c-0.6,0.8-0.8,1-0.8,1.9
		v31.1H80.4z"/>
	<path class="st15" d="M108.9,173.7c-3.6,0-8.5-0.6-12.2-1.6v-13.9h0.1l7.9,13.3c0.4,0.7,0.6,0.9,1.3,1c0.9,0.1,1.7,0.1,2.5,0.1
		c4.8,0,8.1-2.4,8.1-6.7c0-3.9-2.8-5.6-8.2-8.1l-1.9-0.9c-5.3-2.4-11.1-5.8-11.1-13.1c0-7.4,6.1-12.2,15.5-12.2
		c3.1,0,7.3,0.3,11.5,1.3v13.3h-0.1l-8.1-12.6c-0.4-0.6-0.6-0.7-1.2-0.8c-0.7-0.1-1.2-0.1-1.7-0.1c-4.2,0-7.1,2.3-7.1,6.4
		c0,3.7,2.9,5.4,7.6,7.6l2.2,1c6.3,3,11.6,5.8,11.6,12.6C125.6,168.3,119,173.7,108.9,173.7z"/>
	<path class="st15" d="M130,158.2h15.5v1.2H130V158.2z"/>
	<path class="st15" d="M148.1,173l4-3.7c0.5-0.5,0.5-0.6,0.5-1.4v-30.5c0-0.8-0.1-0.9-0.5-1.4l-4-3.7v-0.1H168
		c13.9,0,20.7,7.7,20.7,19.5c0,13.5-7.9,21.3-21.8,21.3h-18.8V173z M165.9,172c7.8,0,10.5-6.7,10.5-19.4c0-12.4-2.7-19.2-10.1-19.2
		h-1.9c-0.8,0-1,0.1-1,1.1v36.3c0,1.1,0.2,1.2,1.3,1.2H165.9z"/>
	<path class="st15" d="M236.7,169.3l3.9,3.7v0.1h-19.9V173l4-3.7c0.5-0.5,0.5-0.6,0.5-1.4v-23.4c0-1,0.1-2.3,0.2-3.5L212,173.6h-0.1
		l-14-29.9c-0.4-0.8-0.8-1.7-1.1-2.6v22.2c0,0.9,0.1,1,0.8,1.9l6,7.7v0.1h-14.9V173l6-7.7c0.7-0.9,0.8-1,0.8-1.9v-23
		c0-1-0.1-1.1-0.5-1.7l-4.9-6.3v-0.1h14.3l12.5,26.5l11-26.5h12.8v0.1l-3.9,4.2c-0.5,0.5-0.6,0.6-0.6,1.5v29.9
		C236.1,168.7,236.2,168.9,236.7,169.3z"/>
	<path class="st15" d="M248.8,163.5c-0.3,0.9-0.2,1,0.5,2l5.3,7.4v0.1h-14.2V173l5.7-7.4c0.9-1.1,1-1.3,1.4-2.4l8.3-24.8
		c0.4-1.1,0.4-1.3-0.4-2l-3.5-4v-0.1h14l11.2,34.5c0.3,0.9,0.7,1.6,1.2,2.4l2.5,3.9v0.1h-17.7V173l2.9-3.9c0.4-0.5,0.4-0.8,0.1-1.6
		l-2.8-8.7h-13L248.8,163.5z M250.7,157.7H263l-6-18.8L250.7,157.7z"/>
</g>
</svg>
