<svg width="100" height="100" xmlns="http://www.w3.org/2000/svg"><g transform="translate(12 23)" fill="none" fill-rule="evenodd"><path d="M68.912 23.597h4.625M67.433 34.887l3.144 2.22M67.433 11.845l3.144-2.221M5.088 23.597H.463M6.567 34.887l-3.145 2.22M6.567 11.845L3.422 9.624" stroke-opacity=".6" stroke="#AAA" stroke-width="3" stroke-linecap="round"/><ellipse fill-opacity=".3" fill="#AAA" cx="37.462" cy="56.91" rx="15.262" ry="5.09"/><path d="M37.925 55.06c-.185 0-.37 0-.555-.093C24.605 48.49 17.575 38.033 17.575 25.54V12.122c0-.74.462-1.295 1.018-1.48l17.482-5.46a5.962 5.962 0 0 1 1.85-.278c.648 0 1.203.093 1.85.278l17.482 5.367c.555.185 1.018.833 1.018 1.48v13.419c0 12.492-7.03 22.949-19.795 29.427-.185.185-.37.185-.555.185z" fill="#4495D4"/><path d="M37.925 6.755c.463 0 .832.093 1.295.185l17.205 5.367V25.54c0 11.66-6.568 21.469-18.5 27.669-11.932-6.108-18.5-15.916-18.5-27.669V12.307L36.63 7.033c.462-.185.832-.278 1.295-.278zm0-3.701c-.832 0-1.572.092-2.405.37L18.037 8.79c-1.387.463-2.312 1.758-2.312 3.331V25.54c0 13.418 7.77 24.523 20.812 31.093a3.71 3.71 0 0 0 1.388.277 3.71 3.71 0 0 0 1.387-.277c13.043-6.57 20.813-17.675 20.813-31.093V12.122c0-1.48-.925-2.868-2.313-3.238L40.33 3.516c-.832-.277-1.573-.462-2.405-.462z" fill="#6ACCF2" fill-rule="nonzero"/><g><path d="M65.305 50.063a1.62 1.62 0 0 0 0-2.314l-2.22-2.22L55.5 37.94l-2.127 2.129L64.38 51.08l.925-1.018z" fill="#2F6894"/><path d="M53.28 40.069l-2.127 2.128 2.22 2.22 5.365 5.368 2.22 2.221a1.619 1.619 0 0 0 2.312 0l1.018-1.018-11.008-10.92z" fill="#4495D4"/><path d="M58.46 37.385L28.12 7.033c-2.683-2.684-6.198-4.627-9.99-5.367l-3.977-.74v.092l40.33 40.346 3.977-3.979z" fill="silver"/><path d="M14.245 1.018l.74 3.886c.74 3.795 2.59 7.218 5.365 9.995L50.69 45.25l3.885-3.887-40.33-40.346z" fill="#E6E6E6"/><path fill="silver" d="M39.304 26.077l3.926-3.736 3.858 3.67-3.926 3.737zM35.4 29.956l3.859-3.672 3.859 3.672-3.86 3.672z"/><path d="M56.517 31.37c.278 1.296.278 2.684 0 4.164a10.135 10.135 0 0 1-7.77 7.773c-1.48.278-2.867.278-4.162 0-.648-.092-1.203.186-1.387.833l-.463 1.203c-.277.74.185 1.48.925 1.666 1.758.37 3.607.463 5.55.092 5.55-1.017 9.99-5.46 11.007-11.011.37-1.944.278-3.794-.092-5.553-.185-.74-.925-1.203-1.665-.925l-1.11.278c-.648.277-1.018.832-.833 1.48z" fill="#2F6894"/><g><path d="M9.62 49.97a1.62 1.62 0 0 1 0-2.313l2.22-2.221 7.585-7.588 2.127 2.128-11.007 11.012-.925-1.018z" fill="#4495D4"/><path d="M21.552 39.976l2.128 2.128-2.22 2.221-5.365 5.368-2.22 2.313a1.619 1.619 0 0 1-2.313 0l-1.017-1.018 11.007-11.012z" fill="#2F6894"/><path d="M16.28 37.385L46.62 7.033c2.683-2.684 6.198-4.627 9.99-5.367l3.977-.833v.092l-40.33 40.347-3.977-3.887z" fill="#FFF"/><path d="M60.495 1.018l-.74 3.886c-.74 3.795-2.59 7.218-5.365 9.995l-30.247 30.26-3.885-3.887L60.495 1.018z" fill="#E6E6E6"/><path d="M18.223 31.37c-.278 1.296-.278 2.684 0 4.164a10.135 10.135 0 0 0 7.77 7.773c1.48.278 2.867.278 4.162 0 .647-.092 1.202.186 1.387.833l.37 1.203c.278.74-.184 1.48-.924 1.666-1.758.37-3.608.463-5.55.092-5.55-1.017-9.99-5.46-11.008-11.011-.37-1.944-.278-3.794.092-5.553.185-.74.925-1.203 1.665-.925l1.203.37c.648.185 1.018.74.833 1.388z" fill="#2F6894"/></g></g></g></svg>
