<svg width="256" height="53" xmlns="http://www.w3.org/2000/svg"><defs><linearGradient x1="0%" y1="50%" y2="50%" id="a"><stop stop-color="#666464" offset="0%"/><stop stop-color="#F2871F" offset="100%"/></linearGradient></defs><g fill="none" fill-rule="evenodd"><path fill="url(#a)" d="M0 0v53h153V43H148l-.02 5H5V5.01h143l.02 9.98H153V0z"/><g fill="#231F20"><path d="M117.82 26.79c0 3.1-2.36 11.54-11.86 11.54-5.43 0-8.81-2.88-8.81-7.43 0-3.64 2.36-11.83 11.83-11.83 5.68 0 8.84 2.77 8.84 7.72zm-6.11-1.06c0-2.4-.88-3.45-2.88-3.45-4.51 0-5.39 8.19-5.39 9.71 0 1.97 1.02 3.13 2.8 3.13 4.63 0 5.47-8.3 5.47-9.39zm25.27-2.07c0 7.13-4.95 14.67-12.12 14.67-3.46 0-5.57-1.53-5.57-4.04 0-.44.03-.84.1-1.24l1.25-6.73c.03-.37.07-.7.07-.99 0-1.13-.51-1.67-2.08-1.67h-.43l.54-2.99c2.73-.14 4.22-.4 7-1.27h1.88l-2.03 11.21c-.11.58-.19 1.31-.19 1.64 0 1.05.84 1.82 1.93 1.82 2.08 0 5.2-2.8 5.2-6.8 0-1.43-.17-1.94-.97-2.74-.8-.8-1.1-1.38-1.1-2.22 0-1.82 1.5-3.24 3.42-3.24 1.86 0 3.1 1.86 3.1 4.59zm18.9 10.15c-1.82 2-6 4.52-10.01 4.52-5.1 0-8.59-3.17-8.59-7.72 0-6.3 5.97-11.54 13.14-11.54 3.86 0 6.4 1.79 6.4 4.48 0 4.37-6.04 6.37-12.3 6.37-.14 0-.54 0-.94-.04-.08.62-.11 1.1-.11 1.57 0 2.04 1.42 3.38 3.6 3.38 2.19 0 4.33-1.02 6.84-3.16l1.97 2.14zm-4.44-10.15c0-1.02-.84-1.75-2.04-1.75-2.66 0-4.84 3.2-5.31 5.46h.43c3.79 0 6.92-1.67 6.92-3.71zm24.76-1.75c0 1.71-1.42 3.02-3.28 3.02-.87 0-1.45-.22-2.32-.87-.48-.37-.7-.47-1.06-.47-2.33 0-3.35 4.36-3.79 6.15L164.12 38h-5.76l2.15-11.68c.04-.37.08-.7.08-.99 0-1.13-.51-1.67-2.08-1.67h-.44l.55-2.99c2.73-.14 4.22-.4 6.99-1.27h1.9l-.52 2.77c1.64-2.04 3.6-3.1 5.64-3.1 2.08 0 3.57 1.2 3.57 2.84zm27.46 13.83c-2.37 1.97-4.08 2.73-6.23 2.73-2.73 0-4.58-1.42-4.58-3.53 0-.73 0-.73.4-2.87l2.54-13.9c.11-.7.19-1.32.19-1.86 0-1.82-.84-2.88-3.94-2.88a5.1 5.1 0 0 0-4 1.75c-.65.8-.87 1.34-1.42 4.22h3.6l-.58 3.28H186l-1.6 8.8c-.4 2.26-2.37 14.1-14.41 14.1-2.55 0-4.23-1.14-4.23-2.85 0-1.53 1.42-2.84 3.02-2.84 1.1 0 1.5.22 2.66 1.42.55.58.98.77 1.64.77 3.68 0 4.73-6.08 5.57-10.6l1.6-8.8h-3.06l.59-3.28h3.09c1.16-6.19 5.17-8.52 12.56-8.52 2.87 0 4.91.15 9.32.7L199 32.06c-.08.36-.11.69-.11.94 0 .91.5 1.5 1.3 1.5.66 0 1.17-.22 1.97-.84l1.5 2.07zm21.23-8.95c0 3.1-2.37 11.54-11.87 11.54-5.42 0-8.8-2.88-8.8-7.43 0-3.64 2.36-11.83 11.82-11.83 5.68 0 8.85 2.77 8.85 7.72zm-6.12-1.06c0-2.4-.87-3.45-2.87-3.45-4.52 0-5.4 8.19-5.4 9.71 0 1.97 1.03 3.13 2.81 3.13 4.62 0 5.46-8.3 5.46-9.39zm36.88-1.45c0 6.8-4.84 14.05-12.34 14.05-2.25 0-3.7-.58-5.1-2.08a11.89 11.89 0 0 1-6.54 2.08c-3.06 0-5.35-1.79-5.35-4.15 0-.22.03-.44.07-.66l1.3-7.2c.05-.37.08-.7.08-.99 0-1.13-.5-1.67-2.07-1.67h-.44l.55-2.99c2.73-.14 4.22-.4 6.99-1.27h1.89l-2.15 11.83c-.18.91-.18 1.13-.18 1.38 0 1.06.94 1.79 2.33 1.79a6.6 6.6 0 0 0 3.1-.88l2.54-14.12h5.75l-2.11 11.68c-.07.33-.1.62-.1.91 0 1.35.76 2.26 2.43 2.26 2.55 0 4.73-3.1 4.73-6.66 0-1.53-.18-1.9-1.56-3.24a2.9 2.9 0 0 1-.91-1.97c0-1.78 1.6-3.3 3.5-3.3 2.17 0 3.6 2.03 3.6 5.2zM28.45 21.8a27.03 27.03 0 0 1 3.82-1.93c1.08-.42 2-.63 2.74-.63 1.54 0 2.74.5 3.6 1.5.86 1 1.28 2.4 1.28 4.2V35.8l.7.61 2.03.19v1.38h-8.34V36.6l1.8-.19.68-.61V25.7c0-1.36-.28-2.36-.84-2.99-.56-.63-1.42-.95-2.59-.95-.58 0-1.23.1-1.95.3-.71.21-1.5.53-2.35.95V35.8l.67.61 1.8.19v1.38h-8.14V36.6l1.84-.19.66-.61V25.7c0-1.35-.28-2.34-.83-2.98-.56-.64-1.4-.96-2.55-.96-.62 0-1.29.1-2 .3-.72.21-1.5.53-2.34.95V35.8l.65.61 1.83.19v1.38h-8.37V36.6l2.07-.19.65-.61V21.99h-2.72V20.8l4.44-1.36h1.45v2.09a23.29 23.29 0 0 1 3.48-1.74 7.6 7.6 0 0 1 2.63-.55c.94 0 1.76.21 2.47.65a4.69 4.69 0 0 1 1.73 1.92zM55.5 34.49v-6.73c-3.2.89-5.29 1.7-6.29 2.43-1 .73-1.5 1.7-1.5 2.89 0 .95.28 1.71.83 2.28.55.57 1.3.85 2.23.85.6 0 1.28-.14 2.06-.43.77-.29 1.67-.71 2.67-1.29zm0 1.29a17.35 17.35 0 0 1-3.38 1.87c-1.03.4-1.99.6-2.88.6a4.78 4.78 0 0 1-3.55-1.33 4.8 4.8 0 0 1-1.33-3.55c0-1.62.66-2.9 2-3.84 1.34-.93 4.38-1.96 9.14-3.1V25.2c0-1.6-.26-2.72-.78-3.34-.52-.62-1.43-.93-2.72-.93-.49 0-.97.05-1.44.15-.47.1-.96.25-1.47.45v3.2h-2.63c-.46 0-.77-.08-.94-.25-.17-.17-.25-.47-.25-.92 0-1.24.72-2.27 2.15-3.1A11.13 11.13 0 0 1 53 19.25c2 0 3.45.43 4.36 1.3.9.87 1.36 2.27 1.36 4.2V35.8l.65.61 2.01.19v1.38h-5.36l-.5-2.22zm9.43-13.85h-2.4v-1.2l2.51-1.1 1.64-3.55h1.42v4.06h5.82v1.79H68.1v10.07c0 1.65.23 2.76.7 3.32.45.57 1.28.85 2.47.85a11.41 11.41 0 0 0 2.65-.32v1.42c-.87.27-1.73.48-2.58.63-.84.14-1.65.21-2.44.21-1.46 0-2.5-.28-3.08-.83-.6-.55-.89-1.56-.89-3.03V21.92zM79.2 9.9h1.45v11.63a27.8 27.8 0 0 1 3.69-1.77 7.4 7.4 0 0 1 2.48-.52c1.68 0 2.96.5 3.84 1.49.89 1 1.33 2.43 1.33 4.32v10.76l.65.61 2.01.19v1.38h-8.31V36.6l1.79-.19.65-.61V25.7c0-1.44-.3-2.45-.9-3.04-.59-.6-1.58-.9-2.96-.9-.6 0-1.26.1-1.97.3-.71.21-1.48.53-2.3.95V35.8l.68.61 1.8.19v1.38h-8.37V36.6l2.07-.19.66-.61V12.45h-2.95v-1.2L79.2 9.9z"/></g></g></svg>