<svg height="107" viewBox="0 0 262 107" width="262" xmlns="http://www.w3.org/2000/svg"><g fill="#0055A4"><path d="m47.46 44.27v-.01z"/><path d="m92.9 0c-.52 0-.66 0-1.5.65s-34.73 21.2-52.21 31.83v11.78h-18.51l-4.68 6.24h27.2l4.26-6.23v-6.13l45.21-27.62 43 27.22v58.93c.02139.6558554-.152646 1.303269-.5 1.86h-95.91c.71 4.81 4.13 8.35 8.39 8.35h87.78c4.79 0 8.55-4.49 8.55-10.21v-57.67-6.28l-50.05-32.31c-.2754733-.26770115-.645913-.4151577-1.03-.41z"/><path d="m45 85.08-27.23.02-4.71 6.23 27.23-.02z"/><path d="m40.41 57.87-27.23.01-4.71 6.23 27.23-.02z"/><path d="m31.94 71.48-27.23.01-4.71 6.23 27.23-.02z"/><path d="m80.67 43.39c-.0764061-.3673711-.2411556-.7105993-.48-1-.2363822-.2694352-.525727-.4872948-.85-.64-.3428318-.1660491-.7190754-.2515591-1.1-.25-.5137691.0005802-1.0203933.12039-1.48.35-.4646999.2162498-.8773864.5300279-1.21.92l-24.55 28.37c-.4606315.4829855-.7669858 1.0922127-.88 1.75-.173879.7352295-.0087112 1.5096831.45 2.11.4987058.5772428 1.238679.8880315 2 .84h16.6l-1.51 8.58c-.1690314.7428122.0156163 1.5220255.5 2.11.4846648.6001115 1.2301175.9281106 2 .88.8457185-.000985 1.661259-.3143805 2.29-.88.6575093-.5295565 1.1014495-1.2789276 1.25-2.11l1.51-8.58h3.49c.8421784.0025045 1.6576614-.295324 2.3-.84.663727-.5370011 1.1082854-1.2980851 1.25-2.14.195116-.7478708.0181184-1.5439398-.4755119-2.1386751s-1.2434738-.9153423-2.0144881-.8613249h-3.54l4.47-25.34c.0672446-.3743542.0604498-.7582599-.02-1.13zm-10.45 26.52h-10.87l13.65-15.76zm28.19-17.34c3.522484-3.1841123 8.091829-4.9634522 12.84-5 1.84707-.0189511 3.682639.2926215 5.42.92 1.60497.6010356 3.076179 1.5116225 4.33 2.68.506045.5660101 1.241886.871384 2 .83.420529-.0017187.837265-.0796448 1.23-.23.399427-.1494364.768659-.3696207 1.09-.65.331454-.281104.609269-.6199027.82-1 .215726-.3711851.364651-.7773432.44-1.2.196735-.73011.033273-1.5102726-.44-2.1-3.689939-3.5540063-8.648358-5.4840806-13.77-5.36-6.439199.0371237-12.6410264 2.4353061-17.43 6.74-5.0312775 4.0803536-8.4278548 9.8335948-9.57 16.21-1.1533333 6.3933333.1133333 11.83 3.8 16.31s8.6866667 6.72 15 6.72c5.522829-.0516464 10.889469-1.8393602 15.34-5.11.682802-.5503766 1.152982-1.3210486 1.33-2.18l2.37-13.46c.085337-.3819582.085337-.7780418 0-1.16-.0853-.3642996-.249115-.7055811-.48-1-.235407-.2756146-.524659-.5002102-.85-.66-.343649-.1625977-.719855-.244679-1.1-.24h-11c-.427273-.0009459-.851047.0770285-1.25.23-.394097.1541764-.759255.3739472-1.08.65-.324749.2849935-.598655.6231495-.81 1-.219604.3657517-.368838.7693622-.44 1.19-.174413.7602127.005845 1.5584963.49 2.17.495595.5845711 1.234465.9059794 2 .87h7.92l-1.56 8.9c-2.948308 1.7888501-6.33145 2.733224-9.78 2.73-4.270168.1862539-8.3801029-1.6428525-11.1-4.94-2.6666667-3.2666667-3.6-7.2466667-2.8-11.94.8367965-4.6906727 3.3361886-8.9225979 7.04-11.92zm73.41 31.51c-4.426061.1835289-8.51996-2.3396304-10.345216-6.3759823-1.825257-4.0363518-1.015972-8.7767529 2.045049-11.9789159 3.061021-3.2021631 7.760153-4.2241697 11.874631-2.5825939 4.114477 1.6415757 6.819495 5.6176569 6.835536 10.0474921.128488 5.880256-4.529925 10.753466-10.41 10.89zm-17.420026-42.78.000026 32c-.007969 4.6296524 1.826255 9.0722702 5.098042 12.3478091s7.7123 5.1148539 12.341958 5.1121909c9.65 0 17.47-8.4 17.45-18.07.110744-4.5134517-1.632813-8.8751389-4.824321-12.0685364-3.191508-3.1933974-7.552163-4.9395357-12.065679-4.8314636-4.1 0-8.75 2-10.79 4.86 0 0 0-15.81 0-19.3zm99.320026 31.93c4.85-2.8 8.1-8.47 7.5-16.84h-7.06c.51 7.84-3.06 13.87-9.11 13.87s-9.6-6.14-9.21-13.87h-7c-.66 8.11 2.44 13.79 7.52 16.91-5 3-8.13 8.54-7.52 16.94h7.07c-.36-8.53 2.83-13.87 9.11-13.87s9.58 5.47 9.21 13.87h7c.7-8.75-2.52-14.21-7.51-17m-43.81 10.81c-4.432991.1056642-8.488952-2.4822584-10.260966-6.5470517-1.772013-4.0647933-.907528-8.7977444 2.187017-11.9736486 3.094545-3.1759041 7.803474-4.1628977 11.912875-2.4969441 4.1094 1.6659537 6.801686 5.6534039 6.811074 10.0876444.07228 5.9571399-4.69299 10.8476943-10.65 10.93m0-28.47c-7.113663-.0121175-13.532673 4.266398-16.258681 10.8370323-2.726007 6.5706342-1.22102 14.1366369 3.811975 19.1638935 5.032996 5.0272566 12.60071 6.5236107 19.16823 3.7901084 6.56752-2.7335022 10.838709-9.1573894 10.818476-16.2710342-.022068-9.6942179-7.895771-17.536587-17.59-17.52"/></g></svg>