<svg xmlns="http://www.w3.org/2000/svg" viewBox="0 0 310.26 64.84"><defs><style>.cls-1{fill:#d51f35;}.cls-2{fill:#a71426;}.cls-3{fill:#1b5091;}.cls-4{fill:#6084b2;}.cls-5{fill:#1b365d;}.cls-6{fill:#d0d2d3;}</style></defs><title>Asset 7</title><g id="Layer_2" data-name="Layer 2"><g id="Layer_1-2" data-name="Layer 1"><path class="cls-1" d="M216.94,52.18l-.79-2.53h-5.22l-.83,2.53h-4.36l6.17-17h3.22l6.17,17Zm-3.31-10.54-1.53,4.53h3Z"/><path class="cls-1" d="M227.67,52.33a6.32,6.32,0,0,1-4.72-1.91c-1.79-1.79-1.72-4.17-1.72-6.72s-.07-4.93,1.72-6.72a6.32,6.32,0,0,1,4.72-1.91,6.14,6.14,0,0,1,6.43,5.53h-4.24a2.1,2.1,0,0,0-2.17-1.81,2,2,0,0,0-1.64.71c-.38.5-.64,1.1-.64,4.19s.26,3.69.64,4.2a2,2,0,0,0,1.64.71,2.1,2.1,0,0,0,2.17-1.81h4.24A6.14,6.14,0,0,1,227.67,52.33Z"/><path class="cls-1" d="M245,52.18l-.79-2.53H239l-.83,2.53h-4.36l6.17-17h3.22l6.17,17Zm-3.31-10.54-1.53,4.53h3Z"/><path class="cls-1" d="M261.21,50.52a6.32,6.32,0,0,1-4.58,1.67h-6.29v-17h6.29a6.32,6.32,0,0,1,4.58,1.67c2,2,1.76,4.15,1.76,6.82S263.18,48.54,261.21,50.52Zm-2.86-10.63a2.17,2.17,0,0,0-2-1h-1.84v9.53h1.84a2.17,2.17,0,0,0,2-1c.33-.48.45-.93.45-3.81S258.68,40.36,258.34,39.88Z"/><path class="cls-1" d="M265.09,52.18v-17h11.54v3.72h-7.37v2.84h6.29v3.72h-6.29v3h7.37v3.72Z"/><path class="cls-1" d="M290.48,52.18V44.06l-2.41,4.2H285.4L283,44.06v8.13h-4.17v-17h4.1l3.81,7.48,3.81-7.48h4.1v17Z"/><path class="cls-1" d="M305.14,45.27v6.91H301V45.27l-5.12-10.06h4.55l2.67,6.1,2.65-6.1h4.55Z"/><path class="cls-1" d="M227.88,23.51c6.28,4.86,9.93-6.62,1.53-7.05-4.17-.22-7.23,2.43-7.47,7.13-.63,12.31,16.68,7.79,11.25,2.09-1.22,2.57-6.57,4-6.24-2.39.43-8.55,6.71-3.58.94.23"/><path class="cls-1" d="M293,25.29c-16,0-25,10.83-25-3.17,0-.83,0-2.05.11-3.42.34,0,.68,0,1,0,5.85,0,4.62-4.57,4.62-4.57a20.31,20.31,0,0,1-5.31.76,18.2,18.2,0,0,1,.7-3.36c-1.91-.7-3.74-.45-4.8,2.79A11.83,11.83,0,0,1,261,12.67c-1.21,2.41-.22,4.32,2.65,5.31a45.05,45.05,0,0,0-.23,5.06c0,12.13,7.44,8.1,26.66,8.27,8.1.07,11.48,2.65,12.6,6.47,5.6-4.48,1.8-12.48-9.67-12.48"/><path class="cls-1" d="M247.83,23.69c0-10.81-13.68-7.92-11.8-1.8,1.94-2.16,6.77-3.65,7.36,1.48-7.36-4.61-11.71,8-2.25,8a7,7,0,0,0,3.92-1,2.63,2.63,0,0,0,2.92.61c-.54-1-.14-3.8-.14-7.25m-4.39.23c0,.18,0,.38,0,.59,0,9.19-7.7,3.4,0-.59"/><path class="cls-1" d="M254,20.45c0-2,4.23-.68,5.49.85,5.24-5.27-10.13-7.59-10.13-.63,0,5.61,8,4,8,6.42,0,2.21-5.34.14-6.89-1.1-5.07,5.11,11.17,8.66,11.17.65,0-5.06-7.61-4.17-7.61-6.19"/><path class="cls-2" d="M276.21,28.86c.66.64,8.06,0,3.87-1.14"/><path class="cls-2" d="M283.06,27.88c.69.66,8.2.11,4-1.37"/><path class="cls-2" d="M289.75,27c.16,1.06,8.41,1.18,5.42-.6"/><path class="cls-2" d="M297.16,27.3c.81,1.72,7.32,3.26,4.77.53"/><path class="cls-2" d="M303.5,31.37c.26,3,1.29,3.06,1.42,1.35"/><path class="cls-3" d="M276,28.86c-.5-.42,1.61-2.76,2.4-2.76s2.34,1.82,1.92,2.26-3.76,1-4.32.5"/><path class="cls-4" d="M276.87,28.3a.25.25,0,0,1,0-.1A.86.86,0,0,1,277,28a1.91,1.91,0,0,1,.44-.55A1.89,1.89,0,0,1,278,27a1.32,1.32,0,0,1,.23-.08l.1,0a.25.25,0,0,1,0,.1.86.86,0,0,1-.1.23,1.91,1.91,0,0,1-.44.55,1.89,1.89,0,0,1-.58.4,1.32,1.32,0,0,1-.23.08l-.1,0"/><path class="cls-3" d="M282.71,27.76c-.55-.47,1.84-3,2.71-3s2.55,2,2.06,2.53-4.17,1-4.77.47"/><path class="cls-4" d="M283.53,27.07a.52.52,0,0,0,0-.1,1.86,1.86,0,0,1,.13-.24,2.43,2.43,0,0,1,.52-.58,2.73,2.73,0,0,1,.64-.42,1.33,1.33,0,0,1,.26-.1l.11,0a.52.52,0,0,0,0,.1,1.86,1.86,0,0,1-.13.24,2.43,2.43,0,0,1-.52.58,2.73,2.73,0,0,1-.64.42,1.33,1.33,0,0,1-.26.1.28.28,0,0,1-.11,0"/><path class="cls-3" d="M289.59,27c-.56-.58,2.35-3.24,3.34-3.16s2.71,2.56,2.13,3.06-4.82.74-5.46.1"/><path class="cls-4" d="M290.54,26.33a.45.45,0,0,1,.06-.11,1.79,1.79,0,0,1,.19-.29,4.76,4.76,0,0,1,.69-.73,4.28,4.28,0,0,1,.82-.55l.31-.15.13,0a.45.45,0,0,1-.06.11,1.79,1.79,0,0,1-.19.29,4.75,4.75,0,0,1-.69.73,4.28,4.28,0,0,1-.82.55l-.31.15a.28.28,0,0,1-.13,0"/><path class="cls-3" d="M297.1,27.3c-.35-.63,2.74-2.19,3.56-1.9s1.71,2.79,1.1,3.08-4.27-.48-4.66-1.18"/><path class="cls-4" d="M298,27.07l.08-.1a1.48,1.48,0,0,1,.23-.21,4.27,4.27,0,0,1,.77-.48A3.45,3.45,0,0,1,300,26l.31,0h.13l-.08.1a1.48,1.48,0,0,1-.23.21,4.27,4.27,0,0,1-.77.48,3.67,3.67,0,0,1-.87.29l-.31,0H298"/><path class="cls-3" d="M303.27,29.73c.26-.44,2.35.85,2.47,1.47s-1.06,2.06-1.47,1.81-1.27-2.77-1-3.27"/><path class="cls-4" d="M303.92,30.54l0,0,.13,0a.48.48,0,0,1,.56.24.26.26,0,0,1,0,.13.16.16,0,0,1,0,.06l0,0-.13,0a.45.45,0,0,1-.32,0,.55.55,0,0,1-.24-.23.26.26,0,0,1,0-.13.08.08,0,0,1,0,0"/><path class="cls-1" d="M215.06,9.52c5.69,0,9.25,6.19,1,12.69,7.34,2.52,4.3,9.55-2.68,9.55-4.79,0-7.65-3.53-7.65-11.59,0-5.29,2-6.3,6.57-4.25-2.23,5.29-2.7,13.46,1,13.46,2.93,0,3.2-4.08-2-6.24,6.89-5.38,5.15-9.21,3.58-9.21-2.56,0-3,4-2.43,6C206.49,21.95,206.69,9.52,215.06,9.52Z"/><polygon class="cls-1" points="28.2 0 19.58 4.96 28.2 9.93 36.8 4.96 28.2 0"/><polygon class="cls-1" points="18.62 5.51 10.03 10.48 18.62 15.44 27.22 10.48 18.62 5.51"/><polygon class="cls-1" points="37.75 5.51 29.15 10.48 37.75 15.44 46.35 10.48 37.75 5.51"/><polygon class="cls-1" points="47.3 11.03 38.7 15.99 47.3 20.95 55.9 15.99 47.3 11.03"/><polygon class="cls-1" points="9.07 11.03 0.48 15.99 9.07 20.95 17.67 15.99 9.07 11.03"/><polygon class="cls-5" points="0 48.83 8.6 53.79 8.6 43.86 0 38.9 0 48.83"/><polygon class="cls-5" points="9.55 54.34 18.15 59.33 18.15 49.38 9.55 44.42 9.55 54.34"/><polygon class="cls-5" points="0 37.8 8.6 42.76 8.6 32.84 0 27.87 0 37.8"/><polygon class="cls-5" points="0 26.77 8.6 31.73 8.6 21.78 0 16.82 0 26.77"/><polygon class="cls-5" points="19.1 59.88 27.72 64.84 27.72 54.89 19.1 49.93 19.1 59.88"/><polygon class="cls-6" points="56.4 48.83 47.77 53.79 47.77 43.86 56.4 38.9 56.4 48.83"/><polygon class="cls-6" points="46.82 54.34 38.23 59.33 38.23 49.38 46.82 44.42 46.82 54.34"/><polygon class="cls-6" points="56.4 37.8 47.77 42.76 47.77 32.84 56.4 27.87 56.4 37.8"/><polygon class="cls-6" points="56.4 26.77 47.77 31.73 47.77 21.78 56.4 16.82 56.4 26.77"/><polygon class="cls-6" points="37.27 59.88 28.68 64.84 28.68 54.89 37.27 49.93 37.27 59.88"/><polygon class="cls-1" points="28.2 54.07 36.8 49.1 28.2 44.14 19.58 49.1 28.2 54.07"/><polygon class="cls-1" points="37.75 48.55 46.35 43.59 37.75 38.63 29.15 43.59 37.75 48.55"/><polygon class="cls-1" points="18.62 48.55 27.22 43.59 18.62 38.63 10.03 43.59 18.62 48.55"/><polygon class="cls-5" points="46.82 21.78 38.23 16.82 38.23 26.77 46.82 31.73 46.82 21.78"/><polygon class="cls-5" points="37.27 16.27 28.68 11.3 28.68 21.23 37.27 26.22 37.27 16.27"/><polygon class="cls-5" points="46.82 32.84 38.23 27.87 38.23 37.8 46.82 42.76 46.82 32.84"/><polygon class="cls-6" points="9.55 21.78 18.15 16.82 18.15 26.77 9.55 31.73 9.55 21.78"/><polygon class="cls-6" points="19.1 16.27 27.72 11.3 27.72 21.23 19.1 26.22 19.1 16.27"/><polygon class="cls-6" points="9.55 32.84 18.15 27.87 18.15 37.8 9.55 42.76 9.55 32.84"/><polygon class="cls-6" points="37.27 37.8 37.27 27.87 28.68 32.84 28.68 42.76 37.27 37.8"/><polygon class="cls-5" points="19.1 37.8 27.7 42.76 27.7 32.84 19.1 27.87 19.1 37.8"/><polygon class="cls-1" points="28.2 22.06 19.58 27.05 28.2 32.01 36.8 27.05 28.2 22.06"/><path class="cls-5" d="M95.87,52l-1.81-5.83H82L80.08,52H70L84.26,12.85h7.42L105.93,52ZM88.22,27.7,84.7,38.14h6.82Z"/><path class="cls-5" d="M128.65,48.54a13.82,13.82,0,0,1-19,0c-2.47-2.69-3.24-5.5-3.24-11.33s.77-8.63,3.24-11.33a13.83,13.83,0,0,1,19,0c2.47,2.7,3.25,5.55,3.25,11.33S131.12,45.84,128.65,48.54Zm-7.09-17.49a4,4,0,0,0-4.84,0c-1.15,1.15-1.32,3.24-1.32,6.16s.17,5,1.32,6.16a4,4,0,0,0,4.84,0c1.15-1.16,1.32-3.25,1.32-6.16S122.71,32.2,121.55,31.05Z"/><path class="cls-5" d="M151.64,38h-5.88V52h-9.62V12.85h15.51C160.33,12.85,165,19,165,25.44S160.33,38,151.64,38Zm-.44-16.55h-5.44V29.4h5.44a4,4,0,1,0,0-7.92Z"/><path class="cls-5" d="M181.06,52.33c-6,0-10.89-1.1-14.85-5.17L172.37,41c2,2,5.61,2.75,8.74,2.75,3.79,0,5.61-1.26,5.61-3.52a3.27,3.27,0,0,0-.77-2.31,4.37,4.37,0,0,0-2.58-1l-4.73-.66c-3.46-.5-6.1-1.65-7.86-3.46s-2.69-4.51-2.69-7.86c0-7.15,5.39-12.37,14.3-12.37,5.61,0,9.84,1.32,13.2,4.67l-6,6c-2.47-2.47-5.72-2.31-7.42-2.31-3.35,0-4.73,1.92-4.73,3.63a2.58,2.58,0,0,0,.77,1.81,4.41,4.41,0,0,0,2.7,1.16l4.73.66c3.52.5,6,1.59,7.7,3.25,2.09,2,2.92,4.95,2.92,8.58C196.18,48,189.31,52.33,181.06,52.33Z"/></g></g></svg>