<svg xmlns="http://www.w3.org/2000/svg" viewBox="0 0 418.22 64.84"><defs><style>.cls-1{fill:#61ad00;}.cls-2{fill:#1b365d;}.cls-3{fill:#d0d2d3;}</style></defs><title>Asset 8</title><g id="Layer_2" data-name="Layer 2"><g id="Layer_1-2" data-name="Layer 1"><polygon class="cls-1" points="28.2 0 19.58 4.96 28.2 9.93 36.8 4.96 28.2 0"/><polygon class="cls-1" points="18.62 5.51 10.03 10.48 18.62 15.44 27.22 10.48 18.62 5.51"/><polygon class="cls-1" points="37.75 5.51 29.15 10.48 37.75 15.44 46.35 10.48 37.75 5.51"/><polygon class="cls-1" points="47.3 11.03 38.7 15.99 47.3 20.95 55.9 15.99 47.3 11.03"/><polygon class="cls-1" points="9.07 11.03 0.48 15.99 9.07 20.95 17.67 15.99 9.07 11.03"/><polygon class="cls-2" points="0 48.83 8.6 53.79 8.6 43.86 0 38.9 0 48.83"/><polygon class="cls-2" points="9.55 54.34 18.15 59.33 18.15 49.38 9.55 44.42 9.55 54.34"/><polygon class="cls-2" points="0 37.8 8.6 42.76 8.6 32.84 0 27.87 0 37.8"/><polygon class="cls-2" points="0 26.77 8.6 31.73 8.6 21.78 0 16.82 0 26.77"/><polygon class="cls-2" points="19.1 59.88 27.72 64.84 27.72 54.89 19.1 49.93 19.1 59.88"/><polygon class="cls-3" points="56.4 48.83 47.77 53.79 47.77 43.86 56.4 38.9 56.4 48.83"/><polygon class="cls-3" points="46.82 54.34 38.23 59.33 38.23 49.38 46.82 44.42 46.82 54.34"/><polygon class="cls-3" points="56.4 37.8 47.77 42.76 47.77 32.84 56.4 27.87 56.4 37.8"/><polygon class="cls-3" points="56.4 26.77 47.77 31.73 47.77 21.78 56.4 16.82 56.4 26.77"/><polygon class="cls-3" points="37.27 59.88 28.68 64.84 28.68 54.89 37.27 49.93 37.27 59.88"/><polygon class="cls-1" points="28.2 54.07 36.8 49.1 28.2 44.14 19.58 49.1 28.2 54.07"/><polygon class="cls-1" points="37.75 48.55 46.35 43.59 37.75 38.63 29.15 43.59 37.75 48.55"/><polygon class="cls-1" points="18.62 48.55 27.22 43.59 18.62 38.63 10.03 43.59 18.62 48.55"/><polygon class="cls-2" points="46.82 21.78 38.23 16.82 38.23 26.77 46.82 31.73 46.82 21.78"/><polygon class="cls-2" points="37.27 16.27 28.68 11.3 28.68 21.23 37.27 26.22 37.27 16.27"/><polygon class="cls-2" points="46.82 32.84 38.23 27.87 38.23 37.8 46.82 42.76 46.82 32.84"/><polygon class="cls-3" points="9.55 21.78 18.15 16.82 18.15 26.77 9.55 31.73 9.55 21.78"/><polygon class="cls-3" points="19.1 16.27 27.72 11.3 27.72 21.23 19.1 26.22 19.1 16.27"/><polygon class="cls-3" points="9.55 32.84 18.15 27.87 18.15 37.8 9.55 42.76 9.55 32.84"/><polygon class="cls-3" points="37.27 37.8 37.27 27.87 28.68 32.84 28.68 42.76 37.27 37.8"/><polygon class="cls-2" points="19.1 37.8 27.7 42.76 27.7 32.84 19.1 27.87 19.1 37.8"/><polygon class="cls-1" points="28.2 22.06 19.58 27.05 28.2 32.01 36.8 27.05 28.2 22.06"/><path class="cls-2" d="M95.87,52l-1.82-5.83H82L80.08,52H70L84.26,12.85h7.42L105.93,52ZM88.22,27.7,84.7,38.14h6.82Z"/><path class="cls-2" d="M128.65,48.54a13.82,13.82,0,0,1-19,0c-2.47-2.69-3.25-5.5-3.25-11.33s.77-8.63,3.25-11.33a13.82,13.82,0,0,1,19,0c2.47,2.69,3.24,5.55,3.24,11.33S131.12,45.84,128.65,48.54Zm-7.09-17.49a4,4,0,0,0-4.84,0c-1.16,1.15-1.32,3.24-1.32,6.16s.17,5,1.32,6.16a4,4,0,0,0,4.84,0c1.16-1.15,1.32-3.24,1.32-6.16S122.71,32.2,121.55,31.05Z"/><path class="cls-2" d="M151.64,38h-5.88V52h-9.62V12.85h15.51C160.32,12.85,165,19,165,25.44S160.32,38,151.64,38Zm-.44-16.55h-5.44V29.4h5.44a4,4,0,1,0,0-7.92Z"/><path class="cls-2" d="M181.06,52.33c-6,0-10.89-1.1-14.85-5.17L172.37,41c2,2,5.61,2.75,8.74,2.75,3.79,0,5.61-1.26,5.61-3.52a3.27,3.27,0,0,0-.77-2.31,4.37,4.37,0,0,0-2.58-1l-4.73-.66c-3.46-.5-6.1-1.65-7.86-3.46s-2.69-4.51-2.69-7.86c0-7.15,5.39-12.37,14.3-12.37,5.61,0,9.84,1.32,13.2,4.67l-6,6c-2.47-2.47-5.72-2.31-7.42-2.31-3.35,0-4.73,1.92-4.73,3.63a2.58,2.58,0,0,0,.77,1.81,4.41,4.41,0,0,0,2.7,1.15l4.73.66c3.52.5,6,1.6,7.7,3.24,2.09,2,2.92,4.95,2.92,8.58C196.18,48,189.31,52.33,181.06,52.33Z"/><path class="cls-1" d="M230.28,52l-2.69-7.86H212.14L209.44,52h-6.32l14.35-39.15h4.78L236.61,52ZM220,21.7l-6.1,17.38h12Z"/><path class="cls-1" d="M251.13,52.33c-6.27,0-12.43-3.85-12.43-14.3s6.16-14.24,12.43-14.24a11.44,11.44,0,0,1,9.18,3.9l-3.85,3.74c-1.76-1.92-3.13-2.64-5.33-2.64A6.29,6.29,0,0,0,246,31.27c-1.21,1.54-1.65,3.52-1.65,6.76s.44,5.28,1.65,6.82a6.29,6.29,0,0,0,5.17,2.47c2.2,0,3.57-.71,5.33-2.64l3.85,3.68A11.49,11.49,0,0,1,251.13,52.33Z"/><path class="cls-1" d="M280.23,52V49.47c-2,2-4,2.86-7.42,2.86s-5.77-.83-7.48-2.53a8.56,8.56,0,0,1-2.2-6c0-4.67,3.25-8,9.62-8h7.37v-2c0-3.52-1.76-5.22-6.1-5.22-3.08,0-4.56.71-6.1,2.69l-3.68-3.46c2.64-3.08,5.39-4,10-4,7.64,0,11.49,3.24,11.49,9.57V52Zm-.11-12.32h-6.54c-3.3,0-5,1.48-5,4s1.59,4,5.11,4c2.15,0,3.74-.17,5.22-1.6.83-.82,1.21-2.14,1.21-4.12Z"/><path class="cls-1" d="M309,52V49a8.58,8.58,0,0,1-7.37,3.3,9.65,9.65,0,0,1-6.82-2.47c-2.8-2.8-3.13-7.59-3.13-11.82s.33-9,3.13-11.77a9.5,9.5,0,0,1,6.76-2.48c3,0,5.28.72,7.31,3.13V12.85h5.61V52ZM303.11,28.8c-5.06,0-5.83,4.29-5.83,9.24s.77,9.29,5.83,9.29S308.88,43,308.88,38,308.17,28.8,303.11,28.8Z"/><path class="cls-1" d="M326.16,39.68c0,4.78,2.53,7.81,7.09,7.81A8.33,8.33,0,0,0,340,44.63L343.59,48a13.09,13.09,0,0,1-10.45,4.34c-7,0-12.54-3.68-12.54-14.3,0-9,4.67-14.24,11.82-14.24,7.48,0,11.82,5.5,11.82,13.42v2.47ZM337.92,32a5.75,5.75,0,0,0-5.5-3.52A5.82,5.82,0,0,0,326.87,32a8.82,8.82,0,0,0-.71,3.79h12.54A8.8,8.8,0,0,0,337.92,32Z"/><path class="cls-1" d="M384.29,52V35c0-4.34-2.47-6.21-5.61-6.21a5.52,5.52,0,0,0-5.77,5.94V52h-5.61V35c0-4.34-2.47-6.21-5.61-6.21s-5.77,1.92-5.77,6.21V52H350.3V24.12h5.5v2.8a10.09,10.09,0,0,1,7.42-3.13,8.91,8.91,0,0,1,7.92,4.07,10.59,10.59,0,0,1,8.74-4.07,10.09,10.09,0,0,1,7,2.53,10.35,10.35,0,0,1,3,7.86V52Z"/><path class="cls-1" d="M405.91,57.56a9,9,0,0,1-2,3.46,7.74,7.74,0,0,1-5.72,2H395.9V58h1.43c2.37,0,3.19-.71,4-3l1.54-4.34-9.73-26.56h5.94l6.65,19.63,6.49-19.63h6Z"/></g></g></svg>
