<?xml version="1.0" encoding="utf-8"?>
<!-- Generator: Adobe Illustrator 22.0.1, SVG Export Plug-In . SVG Version: 6.00 Build 0)  -->
<!DOCTYPE svg PUBLIC "-//W3C//DTD SVG 1.1//EN" "http://www.w3.org/Graphics/SVG/1.1/DTD/svg11.dtd">
<svg version="1.1" id="Layer_1" xmlns="http://www.w3.org/2000/svg" xmlns:xlink="http://www.w3.org/1999/xlink" x="0px" y="0px"
	 viewBox="0 0 289 289" enable-background="new 0 0 289 289" xml:space="preserve">
<g>
	<path fill="#FFFFFF" d="M270.5,288.5h-252c-9.9,0-18-8.1-18-18v-252c0-9.9,8.1-18,18-18h252c9.9,0,18,8.1,18,18v252
		C288.5,280.4,280.4,288.5,270.5,288.5z"/>
	<path fill="#1b365d" d="M154.1,288.5c0-0.6,0.1-1.2,0.1-1.8c0-36.1,0-72.2,0-108.4c0-0.4,0-0.9,0-1.4c-0.6,0-1.1,0-1.5,0
		c-11.5,0-23,0-34.6,0c-1.6,0-1.6,0-1.6-1.5c0-13.5,0-27,0-40.6c0-1.2,0.4-1.5,1.6-1.5c11.5,0,23,0,34.6,0c0.5,0,1,0,1.6,0
		c0-0.5,0-0.9,0-1.3c0-11.2-0.1-22.5,0.1-33.7c0.1-9,1.9-17.8,5.8-26c5.4-11.1,13.8-19.1,25.2-23.8c7.6-3.2,15.6-4.7,23.9-4.5
		c9.4,0.1,18.9,0.6,28.3,0.9c1.8,0.1,3.5,0.4,5.3,0.5c1,0,1.3,0.4,1.3,1.4c0,5.6,0,11.2,0,16.8c0,6.6,0,13.2,0,19.8
		c0,1.2-0.3,1.5-1.5,1.5c-7.2,0-14.3-0.1-21.5,0c-3.3,0.1-6.6,0.4-9.7,1.1c-6.1,1.3-9.8,5.4-11,11.5c-0.5,2.5-0.8,5-0.8,7.5
		c-0.1,9.2,0,18.3,0,27.5c0,0.3,0,0.5,0.1,1c0.5,0,1.1,0,1.6,0c13.2,0,26.4,0,39.6,0c1.7,0,1.8,0,1.5,1.6
		c-0.9,7.2-1.9,14.4-2.8,21.6c-0.8,6-1.5,12-2.2,18.1c-0.3,2.3-0.2,2.3-2.5,2.3c-11.2,0-22.4,0-33.6,0c-0.5,0-0.9,0-1.6,0
		c0,0.6,0,1.2,0,1.7c0,35.7,0,71.4,0,107.2c0,0.9,0,1.8,0,2.6C184.3,288.5,169.2,288.5,154.1,288.5z"/>
</g>
</svg>
