<?xml version="1.0" encoding="utf-8"?>
<!-- Generator: Adobe Illustrator 22.0.1, SVG Export Plug-In . SVG Version: 6.00 Build 0)  -->
<!DOCTYPE svg PUBLIC "-//W3C//DTD SVG 1.1//EN" "http://www.w3.org/Graphics/SVG/1.1/DTD/svg11.dtd">
<svg version="1.1" id="Layer_1" xmlns="http://www.w3.org/2000/svg" xmlns:xlink="http://www.w3.org/1999/xlink" x="0px" y="0px"
	 viewBox="0 0 289 289" enable-background="new 0 0 289 289" xml:space="preserve">
<g>
	<path fill="#FFFFFF" d="M270.5,288.5h-252c-9.9,0-18-8.1-18-18v-252c0-9.9,8.1-18,18-18h252c9.9,0,18,8.1,18,18v252
		C288.5,280.4,280.4,288.5,270.5,288.5z"/>
	<path fill="#1b365d" d="M246.7,88.1c-7.5,3.3-15.6,5.6-24.1,6.6c8.7-5.2,15.3-13.4,18.4-23.2c-8.1,4.8-17.1,8.3-26.6,10.2
		c-7.6-8.1-18.5-13.2-30.6-13.2c-23.2,0-41.9,18.8-41.9,41.9c0,3.3,0.4,6.5,1.1,9.6c-34.8-1.7-65.7-18.4-86.4-43.8
		c-3.6,6.2-5.7,13.4-5.7,21.1c0,14.5,7.4,27.4,18.7,34.9c-6.9-0.2-13.3-2.1-19-5.2c0,0.2,0,0.4,0,0.5c0,20.3,14.5,37.3,33.6,41.1
		c-3.5,1-7.2,1.5-11,1.5c-2.7,0-5.3-0.3-7.9-0.8c5.3,16.7,20.8,28.8,39.2,29.1C90,209.6,72,216.3,52.3,216.3c-3.4,0-6.7-0.2-10-0.6
		c18.6,11.9,40.6,18.8,64.3,18.8c77.1,0,119.3-63.9,119.3-119.3c0-1.8,0-3.6-0.1-5.4C233.9,103.9,241.1,96.5,246.7,88.1z"/>
</g>
</svg>
